<svg width="6255" height="800" viewBox="0 0 6255 800" fill="none" xmlns="http://www.w3.org/2000/svg">
<circle cx="5855" cy="400" r="400" fill="url(#paint0_linear_454_17)"/>
<path d="M5848.88 585.972C5822.37 585.972 5798.75 581.414 5778.04 572.3C5757.44 563.067 5741.17 550.401 5729.21 534.303C5717.37 518.086 5711.28 499.383 5710.92 478.195H5788.34C5788.81 487.072 5791.71 494.885 5797.04 501.632C5802.48 508.261 5809.7 513.41 5818.7 517.08C5827.7 520.749 5837.82 522.584 5849.06 522.584C5860.78 522.584 5871.14 520.512 5880.13 516.369C5889.13 512.226 5896.17 506.485 5901.26 499.146C5906.35 491.807 5908.9 483.344 5908.9 473.756C5908.9 464.049 5906.18 455.467 5900.73 448.01C5895.4 440.434 5887.71 434.516 5877.65 430.254C5867.71 425.993 5855.87 423.862 5842.14 423.862H5808.22V367.399H5842.14C5853.74 367.399 5863.98 365.387 5872.86 361.362C5881.85 357.338 5888.84 351.774 5893.81 344.672C5898.78 337.451 5901.26 329.047 5901.26 319.459C5901.26 310.344 5899.07 302.354 5894.69 295.489C5890.43 288.505 5884.4 283.06 5876.58 279.153C5868.89 275.247 5859.89 273.294 5849.6 273.294C5839.18 273.294 5829.65 275.188 5821.01 278.976C5812.37 282.645 5805.44 287.913 5800.23 294.778C5795.03 301.644 5792.24 309.693 5791.89 318.926H5718.2C5718.56 297.974 5724.54 279.509 5736.14 263.528C5747.74 247.548 5763.36 235.06 5783.01 226.064C5802.78 216.949 5825.09 212.392 5849.95 212.392C5875.04 212.392 5897 216.949 5915.82 226.064C5934.64 235.178 5949.26 247.489 5959.68 262.996C5970.22 278.384 5975.42 295.666 5975.31 314.842C5975.42 335.202 5969.09 352.188 5956.31 365.801C5943.64 379.414 5927.13 388.055 5906.77 391.724V394.565C5933.52 397.998 5953.88 407.29 5967.85 422.442C5981.93 437.475 5988.92 456.296 5988.8 478.905C5988.92 499.62 5982.94 518.027 5970.87 534.125C5958.91 550.223 5942.4 562.889 5921.33 572.122C5900.26 581.355 5876.11 585.972 5848.88 585.972Z" fill="white"/>
<circle cx="3119" cy="400" r="400" fill="url(#paint1_linear_454_17)"/>
<path d="M2978.47 581V525.602L3107.91 405.751C3118.92 395.098 3128.15 385.51 3135.61 376.987C3143.19 368.464 3148.93 360.119 3152.84 351.952C3156.74 343.666 3158.69 334.729 3158.69 325.141C3158.69 314.487 3156.27 305.313 3151.41 297.619C3146.56 289.807 3139.93 283.829 3131.53 279.686C3123.12 275.425 3113.6 273.294 3102.94 273.294C3091.81 273.294 3082.11 275.543 3073.82 280.041C3065.54 284.539 3059.14 290.991 3054.65 299.395C3050.15 307.799 3047.9 317.802 3047.9 329.402H2974.92C2974.92 305.609 2980.31 284.954 2991.08 267.435C3001.85 249.916 3016.95 236.362 3036.36 226.774C3055.77 217.186 3078.14 212.392 3103.47 212.392C3129.52 212.392 3152.18 217.009 3171.48 226.241C3190.89 235.356 3205.98 248.022 3216.76 264.239C3227.53 280.455 3232.91 299.04 3232.91 319.991C3232.91 333.723 3230.19 347.276 3224.75 360.652C3219.42 374.028 3209.89 388.884 3196.16 405.219C3182.43 421.436 3163.07 440.908 3138.1 463.635L3085.01 515.659V518.145H3237.71V581H2978.47Z" fill="white"/>
<circle cx="400" cy="400" r="400" fill="url(#paint2_linear_454_17)"/>
<path d="M442.678 217.364V581H365.795V290.339H363.665L280.391 342.541V274.359L370.412 217.364H442.678Z" fill="white"/>
<rect x="999" y="400" width="1500" height="55" fill="url(#paint3_linear_454_17)"/>
<rect x="3759" y="400" width="1500" height="55" fill="url(#paint4_linear_454_17)"/>
<defs>
<linearGradient id="paint0_linear_454_17" x1="6226" y1="320" x2="5855" y2="1000" gradientUnits="userSpaceOnUse">
<stop stop-color="#43E794"/>
<stop offset="0" stop-color="#000"/>
</linearGradient>
<linearGradient id="paint1_linear_454_17" x1="3490" y1="320" x2="3119" y2="1000" gradientUnits="userSpaceOnUse">
<stop stop-color="#43E794"/>
<stop offset="0" stop-color="#000"/>
</linearGradient>
<linearGradient id="paint2_linear_454_17" x1="771" y1="320" x2="400" y2="1000" gradientUnits="userSpaceOnUse">
<stop stop-color="#43E794"/>
<stop offset="0" stop-color="#000"/>
</linearGradient>
<linearGradient id="paint3_linear_454_17" x1="2499" y1="455.001" x2="999" y2="400.001" gradientUnits="userSpaceOnUse">
<stop stop-color="#000"/>
<stop offset="0.99999" stop-color="#43E794"/>
</linearGradient>
<linearGradient id="paint4_linear_454_17" x1="5259" y1="400" x2="3759" y2="400.001" gradientUnits="userSpaceOnUse">
<stop stop-color="#43E794"/>
<stop offset="0.99999" stop-color="#000"/>
</linearGradient>
</defs>
</svg>
