<svg width="200" height="142" viewBox="0 0 250 192" fill="none" xmlns="http://www.w3.org/2000/svg">
<g clip-path="url(#clip0)">
<path d="M120.017 191.307C119.981 191.247 119.113 189.799 118.812 186.791C118.536 184.031 118.714 179.38 121.126 172.891C125.696 160.599 120.073 150.681 120.016 150.582L120.293 150.421C121.375 152.493 122.158 154.709 122.616 157.002C123.748 162.34 123.336 167.891 121.427 173.003C116.865 185.274 120.256 191.083 120.291 191.14L120.017 191.307Z" fill="#ba9202"/>
<path d="M118.229 149.861C119.38 149.861 120.313 148.928 120.313 147.776C120.313 146.625 119.38 145.692 118.229 145.692C117.078 145.692 116.145 146.625 116.145 147.776C116.145 148.928 117.078 149.861 118.229 149.861Z" fill="#236a4a"/>
<path d="M124.803 157.556C125.954 157.556 126.887 156.623 126.887 155.472C126.887 154.321 125.954 153.388 124.803 153.388C123.652 153.388 122.719 154.321 122.719 155.472C122.719 156.623 123.652 157.556 124.803 157.556Z" fill="#236a4a"/>
<path d="M120.311 162.687C121.462 162.687 122.395 161.753 122.395 160.602C122.395 159.451 121.462 158.518 120.311 158.518C119.16 158.518 118.227 159.451 118.227 160.602C118.227 161.753 119.16 162.687 120.311 162.687Z" fill="#236a4a"/>
<path d="M125.764 167.015C126.915 167.015 127.848 166.082 127.848 164.931C127.848 163.78 126.915 162.847 125.764 162.847C124.613 162.847 123.68 163.78 123.68 164.931C123.68 166.082 124.613 167.015 125.764 167.015Z" fill="#236a4a"/>
<path d="M118.709 173.749C119.86 173.749 120.794 172.816 120.794 171.664C120.794 170.513 119.86 169.58 118.709 169.58C117.558 169.58 116.625 170.513 116.625 171.664C116.625 172.816 117.558 173.749 118.709 173.749Z" fill="#236a4a"/>
<path d="M121.275 191.383C121.275 191.383 119.191 186.253 125.443 182.405L121.275 191.383Z" fill="#236a4a"/>
<path d="M118.712 191.291C118.712 191.291 117.763 185.836 110.422 185.882L118.712 191.291Z" fill="#236a4a"/>
<path d="M35.6956 39.6817C34.0291 39.6817 32.4 39.1875 31.0143 38.2617C29.6287 37.3358 28.5487 36.0198 27.9109 34.4802C27.2732 32.9405 27.1063 31.2463 27.4314 29.6118C27.7566 27.9773 28.5591 26.4759 29.7375 25.2975C30.9159 24.1191 32.4173 23.3166 34.0518 22.9915C35.6863 22.6664 37.3805 22.8332 38.9201 23.471C40.4598 24.1087 41.7758 25.1887 42.7016 26.5744C43.6275 27.96 44.1217 29.5891 44.1217 31.2557C44.1217 33.4904 43.2339 35.6336 41.6537 37.2138C40.0735 38.794 37.9303 39.6817 35.6956 39.6817ZM35.6956 23.1204C34.0865 23.1204 32.5136 23.5975 31.1757 24.4915C29.8378 25.3854 28.7951 26.656 28.1793 28.1426C27.5635 29.6292 27.4024 31.265 27.7163 32.8432C28.0302 34.4213 28.8051 35.8709 29.9429 37.0087C31.0807 38.1465 32.5303 38.9213 34.1084 39.2352C35.6866 39.5492 37.3224 39.3881 38.809 38.7723C40.2955 38.1565 41.5661 37.1138 42.4601 35.7759C43.354 34.438 43.8312 32.8651 43.8312 31.256C43.8312 30.1876 43.6208 29.1297 43.2119 28.1426C42.8031 27.1556 42.2038 26.2587 41.4483 25.5032C40.6929 24.7478 39.796 24.1485 38.809 23.7397C37.8219 23.3308 36.764 23.1204 35.6956 23.1204Z" fill="#C2C2C2"/>
<path d="M121.11 39.6817C119.443 39.6817 117.814 39.1875 116.428 38.2617C115.043 37.3358 113.963 36.0198 113.325 34.4802C112.687 32.9405 112.52 31.2463 112.846 29.6118C113.171 27.9773 113.973 26.4759 115.152 25.2975C116.33 24.1191 117.831 23.3166 119.466 22.9915C121.1 22.6664 122.795 22.8332 124.334 23.471C125.874 24.1087 127.19 25.1887 128.116 26.5744C129.042 27.96 129.536 29.5891 129.536 31.2557C129.536 33.4904 128.648 35.6336 127.068 37.2138C125.488 38.794 123.344 39.6817 121.11 39.6817ZM121.11 23.1204C119.501 23.1204 117.928 23.5975 116.59 24.4915C115.252 25.3854 114.209 26.656 113.593 28.1426C112.978 29.6292 112.816 31.265 113.13 32.8432C113.444 34.4213 114.219 35.8709 115.357 37.0087C116.495 38.1465 117.944 38.9213 119.522 39.2352C121.101 39.5492 122.736 39.3881 124.223 38.7723C125.71 38.1565 126.98 37.1138 127.874 35.7759C128.768 34.438 129.245 32.8651 129.245 31.256C129.245 30.1876 129.035 29.1297 128.626 28.1426C128.217 27.1556 127.618 26.2587 126.862 25.5032C126.107 24.7478 125.21 24.1485 124.223 23.7397C123.236 23.3308 122.178 23.1204 121.11 23.1204Z" fill="#C2C2C2"/>
<path d="M146.256 20H11.7442C9.12562 20.0064 7.00359 23.739 7 28.3457V119.654C7.00359 124.261 9.12562 127.991 11.7442 128H146.256C148.874 127.994 150.996 124.261 151 119.654V28.3453C150.996 23.739 148.874 20.0085 146.256 20ZM150.443 119.654C150.44 123.719 148.567 127.013 146.256 127.018H11.7442C9.43333 127.013 7.56165 123.719 7.55807 119.654V28.3453C7.56076 24.2805 9.43333 20.9864 11.7442 20.9818H146.256C148.567 20.9869 150.438 24.2805 150.442 28.3453L150.443 119.654Z" fill="#5E5E5E"/>
<path d="M36.8386 48.2717H10.7578V66.5283H36.8386V48.2717Z" fill="#F2F2F2"/>
<path d="M73.3504 48.2717H47.2695V66.5283H73.3504V48.2717Z" fill="#F2F2F2"/>
<path d="M109.866 48.2717H83.7852V66.5283H109.866V48.2717Z" fill="#F2F2F2"/>
<path d="M146.378 48.2717H120.297V66.5283H146.378V48.2717Z" fill="#F2F2F2"/>
<path d="M36.8386 75.0045H10.7578V93.2611H36.8386V75.0045Z" fill="#F2F2F2"/>
<path d="M73.3504 75.0045H47.2695V93.2611H73.3504V75.0045Z" fill="#F2F2F2"/>
<path d="M109.866 75.0045H83.7852V93.2611H109.866V75.0045Z" fill="#F2F2F2"/>
<path d="M146.378 75.0045H120.297V93.2611H146.378V75.0045Z" fill="#F2F2F2"/>
<path d="M36.8386 101.005H10.7578V119.261H36.8386V101.005Z" fill="#F2F2F2"/>
<path d="M73.3543 101.005H47.2734V119.261H73.3543V101.005Z" fill="#F2F2F2"/>
<path d="M109.866 101.005H83.7852V119.261H109.866V101.005Z" fill="#F2F2F2"/>
<path d="M146.378 101.005H120.297V119.261H146.378V101.005Z" fill="#F2F2F2"/>
<path d="M55.9614 93.1549L49.8047 84.6522L51.4817 83.4381L56.1945 89.9463L74.2284 71.4185L75.7118 72.8627L55.9614 93.1549Z" fill="#ba9202"/>
<path d="M92.7973 66.422L86.6406 57.9193L88.3176 56.7052L93.0304 63.2134L111.064 44.6855L112.548 46.1298L92.7973 66.422Z" fill="#ba9202"/>
<path d="M35.805 10H35.3594V30H35.805V10Z" fill="#C2C2C2"/>
<path d="M121.547 10H121.102V30H121.547V10Z" fill="#C2C2C2"/>
<path d="M224.524 191.864H100.884C100.823 191.868 100.761 191.859 100.704 191.839C100.646 191.818 100.593 191.786 100.548 191.744C100.503 191.702 100.468 191.651 100.443 191.595C100.419 191.539 100.406 191.478 100.406 191.417C100.406 191.355 100.419 191.295 100.443 191.238C100.468 191.182 100.503 191.131 100.548 191.089C100.593 191.047 100.646 191.015 100.704 190.995C100.761 190.974 100.823 190.965 100.884 190.969H224.524C224.585 190.965 224.646 190.974 224.704 190.995C224.762 191.015 224.815 191.047 224.86 191.089C224.905 191.131 224.94 191.182 224.965 191.238C224.989 191.295 225.002 191.355 225.002 191.417C225.002 191.478 224.989 191.539 224.965 191.595C224.94 191.651 224.905 191.702 224.86 191.744C224.815 191.786 224.762 191.818 224.704 191.839C224.646 191.859 224.585 191.868 224.524 191.864Z" fill="#C2C2C2"/>
<path d="M19.7739 66.422L13.6172 57.9193L15.2942 56.7052L20.007 63.2134L38.0409 44.6855L39.5242 46.1298L19.7739 66.422Z" fill="#ba9202"/>
<path d="M178.943 121.532C179.116 121.481 179.293 121.443 179.472 121.419L186.611 106.912L184.432 103.644L188.933 99.71L194.592 106.634L183.067 123.407C183.351 124.042 183.435 124.748 183.308 125.431C183.181 126.115 182.849 126.743 182.356 127.233C181.863 127.724 181.233 128.052 180.548 128.175C179.864 128.298 179.159 128.21 178.526 127.922C177.893 127.634 177.363 127.161 177.006 126.564C176.648 125.968 176.481 125.277 176.527 124.583C176.572 123.889 176.828 123.226 177.259 122.681C177.691 122.136 178.278 121.735 178.943 121.532Z" fill="#FFB8B8"/>
<path d="M191.128 101.717C191.031 101.819 190.92 101.907 190.797 101.977L183.493 106.212C183.156 106.407 182.756 106.46 182.38 106.36C182.004 106.26 181.683 106.015 181.488 105.678C181.467 105.643 181.448 105.607 181.431 105.57L177.877 98.0646C177.726 97.7488 177.694 97.3891 177.786 97.0513C177.878 96.7134 178.088 96.4199 178.378 96.2243L182.906 93.1442C183.189 92.9519 183.53 92.8644 183.87 92.8967C184.211 92.9291 184.529 93.0794 184.771 93.3215L191.099 99.6725C191.369 99.9426 191.523 100.307 191.528 100.689C191.533 101.07 191.389 101.439 191.127 101.716L191.128 101.717Z" fill="#236a4a"/>
<path d="M201.384 184.84L197.527 185.889L191.645 171.512L197.337 169.963L201.384 184.84Z" fill="#FFB8B8"/>
<path d="M194.474 185.535L201.911 183.511L203.185 188.193L191.065 191.491C190.727 190.249 190.896 188.924 191.535 187.806C192.175 186.689 193.232 185.872 194.474 185.534H194.474L194.474 185.535Z" fill="#236a4a"/>
<path d="M168.414 187.783H164.417L162.516 172.366H168.414V187.783Z" fill="#FFB8B8"/>
<path d="M161.564 186.64H169.272V191.494H156.711C156.711 190.857 156.836 190.226 157.08 189.637C157.324 189.048 157.682 188.513 158.132 188.062C158.583 187.611 159.118 187.254 159.707 187.01C160.295 186.766 160.927 186.64 161.564 186.64H161.564Z" fill="#236a4a"/>
<path d="M172.628 88.0267C177.05 88.0267 180.635 84.4418 180.635 80.0196C180.635 75.5974 177.05 72.0125 172.628 72.0125C168.206 72.0125 164.621 75.5974 164.621 80.0196C164.621 84.4418 168.206 88.0267 172.628 88.0267Z" fill="#FFB8B8"/>
<path d="M168.171 176.791H162.709C162.336 176.791 161.976 176.648 161.704 176.392C161.431 176.137 161.266 175.787 161.242 175.414C159.615 149.542 160.567 130.983 164.238 117.008C164.254 116.947 164.274 116.887 164.298 116.828L164.591 116.097C164.699 115.824 164.887 115.59 165.13 115.426C165.373 115.261 165.66 115.174 165.954 115.175H177.185C177.397 115.175 177.606 115.22 177.798 115.309C177.991 115.397 178.162 115.526 178.299 115.687L179.825 117.467C179.854 117.502 179.882 117.537 179.909 117.574C186.788 127.168 192.953 145.922 200.093 171.131C200.198 171.497 200.157 171.89 199.977 172.226C199.796 172.562 199.492 172.814 199.129 172.929L193.26 174.808C192.923 174.914 192.56 174.896 192.235 174.756C191.91 174.616 191.647 174.365 191.492 174.048L176.26 142.455C176.153 142.234 175.978 142.053 175.761 141.94C175.544 141.826 175.296 141.785 175.054 141.824C174.812 141.862 174.588 141.977 174.417 142.152C174.245 142.327 174.135 142.553 174.101 142.796L169.625 175.522C169.576 175.873 169.402 176.195 169.135 176.428C168.868 176.661 168.525 176.79 168.171 176.791Z" fill="#2F2E41"/>
<path d="M179.211 117.597H179.165L165.521 117.166C165.17 117.156 164.835 117.021 164.576 116.784C164.317 116.547 164.151 116.225 164.11 115.877C162.382 101.878 167.123 98.1272 169.243 97.1638C169.42 97.0839 169.574 96.9595 169.689 96.8029C169.804 96.6462 169.876 96.4625 169.899 96.2696L170.083 94.8025C170.114 94.5433 170.214 94.2973 170.372 94.0899C173.696 89.7849 178.234 88.4062 180.642 87.968C181.024 87.8993 181.418 87.9853 181.737 88.2071C182.056 88.4289 182.274 88.7683 182.343 89.1507C182.347 89.1747 182.351 89.1989 182.354 89.2232L182.629 91.3302C182.656 91.5311 182.737 91.7212 182.861 91.8815C189.792 100.942 182.071 114.32 180.452 116.91C180.32 117.12 180.137 117.293 179.92 117.413C179.703 117.534 179.459 117.597 179.211 117.597Z" fill="#236a4a"/>
<path d="M174.917 135.095L164.609 137.082L164.218 135.049L172.108 133.528L162.938 109.353L164.873 108.619L174.917 135.095Z" fill="#ba9202"/>
<path d="M188.782 80.921C186.996 78.4059 184.854 76.1635 182.423 74.2639C180.402 72.6857 178.153 71.337 175.672 70.6921C173.191 70.0473 170.45 70.1568 168.186 71.3601C165.922 72.5634 163.581 74.9544 163.566 77.5181C163.562 78.342 163.772 79.4563 164.583 79.3138L164.817 79.3464L170.688 78.1607L173.188 86.8378C173.364 87.4475 173.599 88.1291 174.178 88.389C174.723 88.6338 175.352 88.403 175.906 88.1728C175.997 88.135 176.776 86.3856 176.776 86.3856C176.795 86.331 176.829 86.2825 176.874 86.2452C176.918 86.208 176.972 86.1833 177.029 86.1737C177.086 86.1641 177.145 86.17 177.199 86.1908C177.254 86.2115 177.301 86.2464 177.337 86.2917L177.8 86.8704C177.889 86.9812 178.011 87.0602 178.148 87.0955C178.285 87.1307 178.43 87.1204 178.561 87.066L188.134 83.0695C188.575 82.8853 189.068 82.6456 189.196 82.1843C189.317 81.7406 189.047 81.2947 188.782 80.921Z" fill="#2F2E41"/>
<path d="M177.935 137.496C178.355 137.202 178.704 136.819 178.96 136.376C179.215 135.932 179.37 135.438 179.414 134.927C179.457 134.417 179.389 133.904 179.212 133.423C179.036 132.942 178.757 132.506 178.394 132.145L180.928 101.542L173.383 102.58L173.239 132.312C172.672 132.962 172.363 133.797 172.371 134.66C172.379 135.522 172.703 136.352 173.282 136.991C173.861 137.63 174.655 138.035 175.512 138.128C176.369 138.221 177.231 137.996 177.934 137.496L177.935 137.496Z" fill="#FFB8B8"/>
<path d="M181.422 105.949C181.281 105.949 181.14 105.929 181.005 105.889L172.905 103.506C172.72 103.452 172.548 103.362 172.398 103.241C172.248 103.12 172.123 102.97 172.031 102.801C171.938 102.632 171.88 102.446 171.86 102.255C171.839 102.063 171.857 101.87 171.911 101.685C171.923 101.646 171.936 101.607 171.95 101.569L174.948 93.8252C175.073 93.4981 175.312 93.2268 175.62 93.0609C175.928 92.895 176.286 92.8455 176.628 92.9215L181.979 94.0847C182.314 94.1574 182.612 94.3444 182.823 94.6135C183.033 94.8826 183.144 95.2169 183.134 95.5586L182.885 104.521C182.875 104.903 182.716 105.265 182.443 105.532C182.17 105.798 181.804 105.948 181.422 105.949V105.949Z" fill="#236a4a"/>
</g>
<defs>
<clipPath id="clip0">
<rect width="250" height="191.865" fill="white"/>
</clipPath>
</defs>
</svg>
