<?xml version="1.0" encoding="iso-8859-1"?>
<!-- Generator: Adobe Illustrator 19.0.0, SVG Export Plug-In . SVG Version: 6.00 Build 0)  -->
<svg version="1.1" width="50px" height="50px" fill="#db892c" id="Layer_1" xmlns="http://www.w3.org/2000/svg" xmlns:xlink="http://www.w3.org/1999/xlink" x="0px" y="0px"
	 viewBox="0 0 510 510" style="enable-background:new 0 0 512 512;" xml:space="preserve">
<g>
	<g>
		<path d="M457.991,331.481l-56.005-23.312c14.16-2.967,27.223-7.158,38.267-12.321c6.366-2.976,10.447-9.402,10.396-16.373
			c-0.41-55.571-6.503-94.598-19.175-122.821c-16.099-35.858-43.49-54.04-81.412-54.04c-37.922,0-65.314,18.182-81.412,54.039
			c-12.672,28.223-18.764,67.252-19.175,122.821c-0.051,6.971,4.03,13.399,10.397,16.373c11.045,5.163,24.108,9.353,38.267,12.321
			l-56.005,23.313c-6.837,2.845-11.253,9.468-11.253,16.872c0,10.078,8.198,18.277,18.277,18.277h201.81
			c10.078,0,18.277-8.198,18.277-18.277C469.244,340.95,464.828,334.326,457.991,331.481z M266.662,281.322
			c-0.708-0.329-1.16-1.008-1.153-1.729c0.393-53.269,6.039-90.248,17.769-116.373c13.466-29.993,35.312-44.573,66.786-44.573
			c31.474,0,53.32,14.58,66.786,44.573c11.73,26.125,17.376,63.103,17.769,116.373c0.005,0.721-0.447,1.401-1.151,1.731
			c-11.857,5.541-26.432,9.873-42.325,12.597v-5.185l10.097-5.61c9.978-5.544,16.553-15.64,17.586-27.008l5.346-58.803
			c0.337-3.705-1.92-7.155-5.449-8.331c-15.629-5.21-21.336-21.258-21.378-21.378c-0.77-2.307-2.543-4.14-4.824-4.984
			c-2.282-0.844-4.821-0.606-6.906,0.645c-31.094,18.658-101.688,25.275-102.397,25.339c-4.409,0.402-7.659,4.301-7.258,8.709
			l5.346,58.802c1.034,11.368,7.607,21.464,17.586,27.009l10.096,5.608v5.185C293.093,291.195,278.519,286.863,266.662,281.322z
			 M378.86,312.244c-7.394,8.093-17.778,12.7-28.797,12.7s-21.405-4.608-28.798-12.701c2.392-3.469,3.754-7.643,3.754-12.062v-2.539
			l8.306,4.614c5.241,2.912,10.988,4.366,16.738,4.366c5.747,0,11.498-1.456,16.738-4.366l8.306-4.614v2.544
			C375.107,304.604,376.468,308.777,378.86,312.244z M359.014,288.241c-5.603,3.114-12.295,3.115-17.903,0l-34.435-19.131
			c-5.337-2.965-8.853-8.364-9.405-14.444l-4.632-50.943c18.459-2.16,64.401-8.674,93.509-22.592
			c3.796,6.477,10.566,15.181,21.519,20.602l-4.812,52.934c-0.553,6.08-4.068,11.479-9.405,14.444L359.014,288.241z
			 M450.967,350.597H249.158c-1.237,0-2.244-1.006-2.244-2.244c0-0.909,0.542-1.721,1.381-2.07l59.711-24.855
			c10.494,12.425,25.783,19.549,42.057,19.549c16.275,0,31.56-7.123,42.056-19.549l59.711,24.854
			c0.839,0.349,1.381,1.162,1.381,2.071C453.211,349.591,452.205,350.597,450.967,350.597z"/>
	</g>
</g>
<g>
	<g>
		<path d="M469.779,68.409H42.221C18.941,68.409,0,87.35,0,110.63V401.37c0,23.281,18.941,42.221,42.221,42.221h427.557
			c23.281,0,42.221-18.941,42.221-42.221V110.63C512,87.35,493.059,68.409,469.779,68.409z M495.967,401.37
			c0,14.44-11.748,26.188-26.188,26.188H42.221c-14.44,0-26.188-11.748-26.188-26.188V110.63c0-14.44,11.748-26.188,26.188-26.188
			h427.557c14.44,0,26.188,11.748,26.188,26.188V401.37z"/>
	</g>
</g>
<g>
	<g>
		<path d="M461.228,384.802H142.982c-3.354-9.93-12.752-17.102-23.8-17.102s-20.446,7.172-23.8,17.102H50.772
			c-4.427,0-8.017,3.589-8.017,8.017c0,4.427,3.589,8.017,8.017,8.017h44.609c3.354,9.93,12.752,17.102,23.8,17.102
			s20.446-7.172,23.8-17.102h318.246c4.427,0,8.017-3.589,8.017-8.017C469.244,388.391,465.655,384.802,461.228,384.802z
			 M119.182,401.904c-5.001,0-9.07-4.062-9.085-9.06c0-0.009,0.001-0.017,0.001-0.026s-0.001-0.017-0.001-0.026
			c0.014-4.998,4.083-9.06,9.085-9.06c5.01,0,9.086,4.076,9.086,9.086C128.267,397.828,124.192,401.904,119.182,401.904z"/>
	</g>
</g>
<g>
	<g>
		<path d="M159.735,156.724c-11.927-9.694-27.55-13.418-42.862-10.222c-19.948,4.167-35.68,20.526-39.147,40.709
			c-3.384,19.708,4.603,39.037,20.846,50.445c2.569,1.804,4.041,4.335,4.041,6.946v2.848c0,9.136,7.432,16.568,16.568,16.568h0.534
			v0.534c0,4.427,3.589,8.017,8.017,8.017s8.017-3.589,8.017-8.017v-0.536h0.534c9.136,0,16.568-7.432,16.568-16.568v-2.893
			c0-2.607,1.366-5.047,3.749-6.696c13.716-9.491,21.905-25.086,21.905-41.718C178.505,180.785,171.664,166.418,159.735,156.724z
			 M147.477,224.675c-6.674,4.618-10.659,12.05-10.659,19.88v2.893c0,0.295-0.239,0.534-0.534,0.534h-17.102
			c-0.295,0-0.534-0.239-0.534-0.534v-2.848c0-7.906-3.958-15.219-10.86-20.066c-11.12-7.809-16.583-21.071-14.258-34.609
			c2.326-13.539,13.274-24.94,26.623-27.728c2.576-0.538,5.137-0.804,7.658-0.804c7.968,0,15.521,2.657,21.814,7.772
			c8.165,6.637,12.848,16.468,12.848,26.976C162.472,207.512,156.867,218.178,147.477,224.675z"/>
	</g>
</g>
<g>
	<g>
		<path d="M237.221,260.426l-24.511-40.851v-74.74c0-18.566-15.105-33.67-33.67-33.67H76.426c-18.566,0-33.67,15.105-33.67,33.67
			v128.267c0,18.566,15.105,33.67,33.67,33.67H179.04c18.566,0,33.67-15.105,33.67-33.67v-0.534h17.637
			c2.888,0,5.553-1.554,6.976-4.067C238.746,265.987,238.706,262.903,237.221,260.426z M204.693,256.534
			c-4.427,0-8.017,3.589-8.017,8.017v8.551c0,9.725-7.912,17.637-17.637,17.637H76.426c-9.725,0-17.637-7.912-17.637-17.637V144.835
			c0-9.725,7.912-17.637,17.637-17.637H179.04c9.725,0,17.637,7.912,17.637,17.637v76.96c0,1.453,0.396,2.879,1.143,4.125
			l18.368,30.614H204.693z"/>
	</g>
</g>
<g>
	<g>
		<path d="M127.733,171.023c-4.427,0-8.017,3.589-8.017,8.017v17.102c0,4.427,3.589,8.017,8.017,8.017s8.017-3.589,8.017-8.017
			V179.04C135.749,174.612,132.16,171.023,127.733,171.023z"/>
	</g>
</g>
<g>
	<g>
		<path d="M127.818,213.779h-0.086c-4.427,0-7.974,3.589-7.974,8.017s3.632,8.017,8.059,8.017s8.017-3.589,8.017-8.017
			S132.246,213.779,127.818,213.779z"/>
	</g>
</g>
<g>
</g>
<g>
</g>
<g>
</g>
<g>
</g>
<g>
</g>
<g>
</g>
<g>
</g>
<g>
</g>
<g>
</g>
<g>
</g>
<g>
</g>
<g>
</g>
<g>
</g>
<g>
</g>
<g>
</g>
</svg>
