<?xml version="1.0" encoding="iso-8859-1"?>
<!-- Generator: Adobe Illustrator 19.0.0, SVG Export Plug-In . SVG Version: 6.00 Build 0)  -->
<svg version="1.1" fill="#236a4a" width="50" height="50" id="Layer_1" xmlns="http://www.w3.org/2000/svg" xmlns:xlink="http://www.w3.org/1999/xlink" x="0px" y="0px"
	 viewBox="0 0 530 500" style="enable-background:new 0 0 512 512;" xml:space="preserve">
<g>
	<g>
		<path d="M277.558,377.263h-64.674c-4.465,0-8.084,3.618-8.084,8.084c0,4.466,3.62,8.084,8.084,8.084h64.674
			c4.465,0,8.084-3.618,8.084-8.084C285.642,380.882,282.023,377.263,277.558,377.263z"/>
	</g>
</g>
<g>
	<g>
		<path d="M342.232,377.263h-32.337c-4.465,0-8.084,3.618-8.084,8.084c0,4.466,3.62,8.084,8.084,8.084h32.337
			c4.465,0,8.084-3.618,8.084-8.084C350.316,380.882,346.696,377.263,342.232,377.263z"/>
	</g>
</g>
<g>
	<g>
		<path d="M342.232,420.379h-64.674c-4.465,0-8.084,3.618-8.084,8.084c0,4.466,3.62,8.084,8.084,8.084h64.674
			c4.465,0,8.084-3.618,8.084-8.084C350.316,423.998,346.696,420.379,342.232,420.379z"/>
	</g>
</g>
<g>
	<g>
		<path d="M245.221,420.379h-32.337c-4.465,0-8.084,3.618-8.084,8.084c0,4.466,3.62,8.084,8.084,8.084h32.337
			c4.465,0,8.084-3.618,8.084-8.084C253.305,423.998,249.686,420.379,245.221,420.379z"/>
	</g>
</g>
<g>
	<g>
		<path d="M366.5,344.926h-40.306c-4.465,0-8.084,3.62-8.084,8.084c0,4.465,3.62,8.084,8.084,8.084H366.5
			c5.945,0,10.763,4.819,10.763,10.763v70.094c0,5.945-4.819,10.763-10.763,10.763H188.615c-5.945,0-10.763-4.819-10.763-10.763
			v-70.094c0-5.945,4.819-10.763,10.763-10.763h101.933c4.465,0,8.084-3.62,8.084-8.084c0-4.465-3.62-8.084-8.084-8.084H188.615
			c-14.874,0-26.931,12.058-26.931,26.931v70.094c0,14.874,12.057,26.932,26.931,26.932h177.884
			c14.875,0,26.932-12.058,26.932-26.931v-70.094C393.432,356.985,381.374,344.926,366.5,344.926z"/>
	</g>
</g>
<g>
	<g>
		<path d="M277.558,129.347c-52.006,0-94.316,42.31-94.316,94.316s42.311,94.316,94.316,94.316c52.006,0,94.316-42.31,94.316-94.316
			S329.564,129.347,277.558,129.347z M277.558,156.295c19.316,0,35.032,15.715,35.032,35.032s-15.716,35.032-35.032,35.032
			c-19.316,0-35.032-15.715-35.032-35.032S258.242,156.295,277.558,156.295z M207.278,257.806
			c-5.035-10.321-7.868-21.906-7.868-34.142c0-30.679,17.778-57.272,43.565-70.055c-10.207,9.367-16.618,22.806-16.618,37.718
			c0,16.413,7.773,31.036,19.819,40.412C231.329,236.983,217.926,245.905,207.278,257.806z M277.558,301.811
			c-24.793,0-46.909-11.619-61.235-29.682c14.787-18.635,37.277-29.602,61.235-29.602c23.958,0,46.449,10.968,61.235,29.602
			C324.467,290.192,302.351,301.811,277.558,301.811z M308.935,231.741c12.05-9.377,19.822-24,19.822-40.415
			c0-14.912-6.411-28.351-16.618-37.718c25.788,12.783,43.565,39.375,43.565,70.055c0,12.236-2.833,23.821-7.869,34.143
			C337.189,245.905,323.784,236.985,308.935,231.741z"/>
	</g>
</g>
<g>
	<g>
		<path d="M503.916,350.316c2.981,0,5.721-1.641,7.128-4.27c1.407-2.628,1.253-5.817-0.402-8.299l-18.569-27.853l18.569-27.853
			c1.654-2.481,1.808-5.671,0.402-8.299c-1.407-2.628-4.147-4.27-7.128-4.27h-45.81v-26.947h45.81c2.981,0,5.721-1.641,7.128-4.27
			c1.407-2.628,1.253-5.817-0.402-8.299l-18.569-27.853l18.569-27.853c1.654-2.481,1.808-5.671,0.402-8.299
			c-1.407-2.628-4.147-4.27-7.128-4.27h-46.271c-1.896-17.07-9.717-32.37-21.36-43.802c0.165-0.644,0.262-1.314,0.262-2.008V79.032
			c0-11.706-4.34-22.412-11.482-30.615c12.444-1.018,22.261-11.462,22.261-24.164C447.326,10.88,436.447,0,423.074,0H72.758
			C53.145,0,34.755,7.688,20.976,21.648C7.425,35.375,0.016,53.494,0.017,72.758H0v366.484C0,479.361,32.639,512,72.758,512h312.589
			c33.596,0,61.933-22.893,70.264-53.895h48.305c2.981,0,5.721-1.641,7.128-4.27c1.407-2.628,1.253-5.817-0.402-8.299
			l-18.569-27.853l18.569-27.853c1.654-2.481,1.808-5.671,0.402-8.299c-1.407-2.628-4.147-4.27-7.128-4.27h-45.81v-26.947H503.916z
			 M458.105,177.853h30.705l-13.179,19.769c-1.811,2.716-1.811,6.253,0,8.968l13.179,19.769h-30.705V177.853z M458.105,285.642
			h30.705l-13.179,19.769c-1.811,2.716-1.811,6.253,0,8.968l13.179,19.769h-30.705V285.642z M118.568,495.832h-45.81
			c-31.204,0-56.589-25.387-56.589-56.589V118.041c13.555,16.712,34.368,27.474,57.554,27.474h44.846V495.832z M118.568,129.347
			H73.723c-31.333,0-57.149-25.047-57.549-55.836c-0.198-15.265,5.593-29.651,16.309-40.506
			C43.2,22.149,57.504,16.169,72.758,16.169h350.316c4.458,0,8.084,3.626,8.084,8.084c0,4.458-3.626,8.084-8.084,8.084h-33.222
			h-79.957H73.431c-22.057,0-40.485,17.627-41.078,39.29c-0.302,11.017,3.758,21.429,11.432,29.315
			c7.677,7.891,17.966,12.236,28.973,12.236h45.81V129.347z M420.379,79.032v26.99c-10.398-5.737-22.338-9.012-35.032-9.012H72.758
			c-6.603,0-12.777-2.607-17.384-7.343c-4.604-4.732-7.04-10.982-6.859-17.598c0.356-12.993,11.534-23.565,24.916-23.565h236.464
			h79.957C406.684,48.505,420.379,62.2,420.379,79.032z M441.937,234.442v43.116v64.674v43.116v53.895
			c0,31.203-25.385,56.589-56.589,56.589h-250.61V113.179h250.61c31.204,0,56.589,25.387,56.589,56.589V234.442z M488.81,393.432
			L475.631,413.2c-1.811,2.716-1.811,6.253,0,8.968l13.179,19.769h-30.705v-2.695v-45.811H488.81z"/>
	</g>
</g>
<g>
</g>
<g>
</g>
<g>
</g>
<g>
</g>
<g>
</g>
<g>
</g>
<g>
</g>
<g>
</g>
<g>
</g>
<g>
</g>
<g>
</g>
<g>
</g>
<g>
</g>
<g>
</g>
<g>
</g>
</svg>
