<?xml version="1.0" encoding="iso-8859-1"?>
<!-- Generator: Adobe Illustrator 19.0.0, SVG Export Plug-In . SVG Version: 6.00 Build 0)  -->
<svg version="1.1" width="50px" height="50px" fill="#8e1e94" id="Layer_1" xmlns="http://www.w3.org/2000/svg" xmlns:xlink="http://www.w3.org/1999/xlink" x="0px" y="0px"
	 viewBox="0 0 512.001 512.001" style="enable-background:new 0 0 512.001 512.001;" xml:space="preserve">
<g>
	<g>
		<g>
			<rect x="183.628" y="149.949" width="40.013" height="15.704"/>
			<rect x="287.66" y="149.949" width="40.013" height="15.704"/>
			<rect x="119.609" y="408.118" width="16.005" height="15.704"/>
			<polygon points="63.594,479.84 71.746,479.84 71.746,512 87.45,512 87.45,464.136 63.594,464.136 			"/>
			<rect x="375.684" y="408.118" width="16.004" height="15.704"/>
			<polygon points="423.849,512 439.553,512 439.553,479.84 447.707,479.84 447.707,464.136 423.849,464.136 			"/>
			<path d="M255.65,336.099c-13.321,0-24.158-10.837-24.158-24.158h-15.704c0,21.98,17.881,39.861,39.861,39.861
				s39.861-17.881,39.861-39.861h-15.704C279.809,325.262,268.971,336.099,255.65,336.099z"/>
			<path d="M471.191,391.501c-24.023-31.757-57.553-55.966-95.029-68.77c4.77-13.389,7.375-27.796,7.375-42.801v-48.164h0.151
				c17.567,0,31.86-14.291,31.86-31.859s-14.291-31.859-31.86-31.859h-0.151v-32.311h16.004V91.496
				c0-28.388-23.096-51.484-51.484-51.484c-7.619,0-14.694,2.369-20.536,6.403v-9.286C327.522,16.656,310.866,0,290.392,0h-58.749
				c-70.518,0-127.888,57.37-127.888,127.887v7.852h24.008v32.311h-0.151c-17.567,0-31.86,14.291-31.86,31.859
				s14.291,31.859,31.86,31.859h0.151v48.164c0,15.086,2.634,29.566,7.451,43.016c-37.226,12.858-70.517,36.976-94.409,68.558
				C14.388,426.428,0.425,468.095,0.425,512h15.704c0-40.457,12.865-78.847,37.202-111.02c18.75-24.788,43.781-44.579,71.975-57.226
				l-47.301,81.089l45.882,53.53l-20.131,13.42v20.206h15.704v-11.803l27.885-18.589l-50.145-58.503l46.984-80.546
				c11.272,19.982,27.756,36.65,47.6,48.137v121.304h15.704V398.394c5.157,2.104,10.478,3.886,15.943,5.31v42.67
				c0,5.126,4.102,9.304,9.194,9.445l-9.194,13.791V512h15.704v-37.634l12.355-18.532h7.602l12.355,18.532V512h15.704V469.61
				l-9.194-13.791c5.092-0.141,9.194-4.319,9.194-9.445v-42.485c5.778-1.469,11.395-3.341,16.83-5.567V512h15.704V390.592
				c19.768-11.484,36.197-28.106,47.438-48.032l46.984,80.546l-50.145,58.503l27.885,18.589V512h15.704v-20.206l-20.131-13.42
				l45.882-53.53l-47.549-81.512c28.58,12.627,53.959,32.583,72.919,57.646c24.339,32.174,37.204,70.565,37.204,111.023h15.704
				C511.574,468.094,497.611,426.425,471.191,391.501z M127.764,216.063h-0.151c-8.908,0-16.156-7.247-16.156-16.155
				c0-8.908,7.248-16.155,16.156-16.155h0.151V216.063z M383.688,183.753c8.908,0,16.156,7.247,16.156,16.155
				c0,8.908-7.248,16.155-16.156,16.155h-0.151v-32.31H383.688z M327.522,76.252c0-11.324,9.213-20.537,20.536-20.537
				c19.729,0,35.78,16.051,35.78,35.78v28.539h-32.99c-12.862,0-23.326-10.464-23.326-23.326V76.252z M119.732,120.035
				c4.043-58.209,52.692-104.331,111.912-104.331h58.749c11.814,0,21.426,9.612,21.426,21.425v31.596
				c0,28.292-23.017,51.31-51.31,51.31H119.732z M271.443,440.129h-32.31v-32.311h32.31V440.129z M367.834,279.932
				c0,59.218-46.124,107.859-104.331,111.905v-7.874H247.8v7.874c-58.208-4.044-104.331-52.686-104.331-111.905v-96.179h32.491
				c-5.128,6.709-8.183,15.081-8.183,24.158c0,21.98,17.881,39.861,39.861,39.861s39.861-17.882,39.861-39.861
				c0-0.05-0.004-0.101-0.004-0.151h16.313c-0.001,0.05-0.004,0.101-0.004,0.151c0,21.98,17.881,39.861,39.861,39.861
				s39.861-17.882,39.861-39.861c0-9.076-3.055-17.449-8.183-24.158h32.491V279.932z M183.479,207.911
				c0-13.321,10.838-24.158,24.157-24.158c13.32,0,24.158,10.837,24.158,24.158s-10.838,24.158-24.158,24.158
				C194.317,232.068,183.479,221.23,183.479,207.911z M279.506,207.911c0-13.321,10.838-24.158,24.158-24.158
				s24.158,10.837,24.158,24.158s-10.838,24.158-24.158,24.158S279.506,221.23,279.506,207.911z M367.834,168.049h-64.169
				c-16.348,0-30.421,9.895-36.564,24.007h-22.899c-6.143-14.111-20.217-24.007-36.564-24.007h-64.169v-32.311h117.041
				c21.758,0,41.12-10.429,53.371-26.544c5.22,15.415,19.815,26.544,36.97,26.544h16.986V168.049z"/>
			<path d="M255.65,295.785c13.153,0,23.856-10.701,23.856-23.856v-8.003h-15.704v8.003c0,4.495-3.657,8.152-8.152,8.152
				c-4.495,0-8.152-3.657-8.152-8.152v-8.003h-15.704v8.003C231.794,285.084,242.497,295.785,255.65,295.785z"/>
		</g>
	</g>
</g>
<g>
</g>
<g>
</g>
<g>
</g>
<g>
</g>
<g>
</g>
<g>
</g>
<g>
</g>
<g>
</g>
<g>
</g>
<g>
</g>
<g>
</g>
<g>
</g>
<g>
</g>
<g>
</g>
<g>
</g>
</svg>
