<svg width="20" height="20" viewBox="0 0 20 20" fill="none" xmlns="http://www.w3.org/2000/svg">
<path fill-rule="evenodd" clip-rule="evenodd" d="M10 20C15.5228 20 20 15.5228 20 10C20 4.47715 15.5228 0 10 0C4.47715 0 0 4.47715 0 10C0 15.5228 4.47715 20 10 20Z" fill="#6084A4"/>
<path fill-rule="evenodd" clip-rule="evenodd" d="M10.5942 14.3441C10.5942 14.6893 10.3143 14.9691 9.96915 14.9691C9.62397 14.9691 9.34415 14.6893 9.34415 14.3441L9.34415 10.5941L5.59415 10.5941C5.24897 10.5941 4.96915 10.3143 4.96915 9.96912C4.96915 9.62394 5.24897 9.34412 5.59415 9.34412L9.34415 9.34412L9.34415 5.59411C9.34415 5.24893 9.62397 4.96911 9.96915 4.96911C10.3143 4.96911 10.5942 5.24893 10.5942 5.59411L10.5942 9.34412L14.3442 9.34412C14.6893 9.34412 14.9692 9.62394 14.9692 9.96912C14.9692 10.3143 14.6893 10.5941 14.3442 10.5941L10.5942 10.5941L10.5942 14.3441Z" fill="white"/>
</svg>
