<svg width="170" height="122" viewBox="0 0 220 160" fill="none" xmlns="http://www.w3.org/2000/svg">
<g clip-path="url(#clip0)">
<path d="M140.194 119.547V157.988H43.8853C32.9122 157.988 23.9844 149.365 23.9844 138.768C23.9844 128.17 32.9122 119.547 43.8853 119.547H140.194Z" fill="#F2F2F2"/>
<path d="M142.563 157.692C142.563 158.084 142.407 158.46 142.13 158.738C141.853 159.015 141.477 159.171 141.085 159.171H42.1733C36.8013 159.171 31.6493 157.037 27.8506 153.238C24.052 149.44 21.918 144.288 21.918 138.915C21.918 133.543 24.052 128.391 27.8506 124.593C31.6493 120.794 36.8013 118.66 42.1733 118.66H141.085C141.477 118.66 141.853 118.816 142.13 119.093C142.407 119.37 142.563 119.746 142.563 120.139C142.563 120.531 142.407 120.907 142.13 121.184C141.853 121.461 141.477 121.617 141.085 121.617H42.1733C37.5855 121.617 33.1856 123.44 29.9415 126.684C26.6975 129.928 24.875 134.328 24.875 138.915C24.875 143.503 26.6975 147.903 29.9415 151.147C33.1856 154.391 37.5855 156.214 42.1733 156.214H141.085C141.477 156.214 141.853 156.37 142.13 156.647C142.407 156.924 142.563 157.3 142.563 157.692Z" fill="#6f93bf"/>
<path d="M140.197 128.418H36.7019C36.6235 128.418 36.5483 128.387 36.4929 128.332C36.4374 128.276 36.4062 128.201 36.4062 128.122C36.4062 128.044 36.4374 127.969 36.4929 127.913C36.5483 127.858 36.6235 127.827 36.7019 127.827H140.197C140.275 127.827 140.35 127.858 140.406 127.913C140.461 127.969 140.492 128.044 140.492 128.122C140.492 128.201 140.461 128.276 140.406 128.332C140.35 128.387 140.275 128.418 140.197 128.418Z" fill="#CCCCCC"/>
<path d="M140.197 135.515H36.7019C36.6235 135.515 36.5483 135.484 36.4929 135.428C36.4374 135.373 36.4062 135.298 36.4062 135.219C36.4062 135.141 36.4374 135.066 36.4929 135.01C36.5483 134.955 36.6235 134.923 36.7019 134.923H140.197C140.275 134.923 140.35 134.955 140.406 135.01C140.461 135.066 140.492 135.141 140.492 135.219C140.492 135.298 140.461 135.373 140.406 135.428C140.35 135.484 140.275 135.515 140.197 135.515Z" fill="#CCCCCC"/>
<path d="M140.197 142.612H36.7019C36.6235 142.612 36.5483 142.58 36.4929 142.525C36.4374 142.47 36.4062 142.394 36.4062 142.316C36.4062 142.238 36.4374 142.162 36.4929 142.107C36.5483 142.051 36.6235 142.02 36.7019 142.02H140.197C140.275 142.02 140.35 142.051 140.406 142.107C140.461 142.162 140.492 142.238 140.492 142.316C140.492 142.394 140.461 142.47 140.406 142.525C140.35 142.58 140.275 142.612 140.197 142.612Z" fill="#CCCCCC"/>
<path d="M140.197 149.708H36.7019C36.6235 149.708 36.5483 149.677 36.4929 149.622C36.4374 149.566 36.4062 149.491 36.4062 149.413C36.4062 149.334 36.4374 149.259 36.4929 149.204C36.5483 149.148 36.6235 149.117 36.7019 149.117H140.197C140.275 149.117 140.35 149.148 140.406 149.204C140.461 149.259 140.492 149.334 140.492 149.413C140.492 149.491 140.461 149.566 140.406 149.622C140.35 149.677 140.275 149.708 140.197 149.708Z" fill="#CCCCCC"/>
<path d="M214.626 126.783L190.508 156.716L115.514 96.2898C106.969 89.4051 105.427 77.0894 112.077 68.837C118.726 60.5846 131.088 59.4719 139.633 66.3567L214.626 126.783Z" fill="#F2F2F2"/>
<path d="M192.533 157.97C192.287 158.275 191.929 158.47 191.54 158.512C191.15 158.554 190.759 158.439 190.454 158.194L113.434 96.1346C109.25 92.764 106.578 87.8698 106.003 82.5286C105.428 77.1873 106.999 71.8366 110.37 67.6535C113.74 63.4704 118.634 60.7975 123.976 60.2229C129.317 59.6483 134.668 61.2191 138.851 64.5897L215.871 126.649C216.022 126.77 216.148 126.921 216.241 127.091C216.335 127.262 216.393 127.449 216.414 127.642C216.435 127.835 216.417 128.03 216.363 128.217C216.308 128.403 216.217 128.577 216.095 128.728C215.973 128.879 215.823 129.005 215.653 129.098C215.482 129.191 215.295 129.25 215.102 129.271C214.909 129.291 214.713 129.274 214.527 129.219C214.341 129.164 214.167 129.073 214.016 128.951L136.996 66.8922C135.227 65.4659 133.194 64.402 131.014 63.7613C128.834 63.1206 126.549 62.9157 124.29 63.1583C122.031 63.4009 119.842 64.0862 117.847 65.1751C115.853 66.264 114.093 67.7351 112.667 69.5045C111.241 71.2738 110.178 73.3067 109.538 75.487C108.899 77.6673 108.695 79.9523 108.938 82.2114C109.182 84.4706 109.868 86.6596 110.957 88.6535C112.047 90.6474 113.519 92.4071 115.289 93.832L192.309 155.891C192.614 156.137 192.809 156.494 192.851 156.884C192.893 157.274 192.779 157.665 192.533 157.97Z" fill="#404399"/>
<path d="M209.063 133.69L128.473 68.7557C128.443 68.7314 128.418 68.7013 128.399 68.6672C128.381 68.6331 128.369 68.5957 128.365 68.5571C128.361 68.5185 128.364 68.4794 128.375 68.4422C128.386 68.4049 128.404 68.3702 128.429 68.3399C128.453 68.3097 128.483 68.2845 128.517 68.2659C128.551 68.2473 128.589 68.2356 128.627 68.2315C128.666 68.2273 128.705 68.2308 128.742 68.2417C128.78 68.2527 128.814 68.2708 128.845 68.2952L209.434 133.23C209.464 133.254 209.489 133.284 209.508 133.318C209.526 133.353 209.538 133.39 209.542 133.429C209.547 133.467 209.543 133.506 209.532 133.544C209.521 133.581 209.503 133.616 209.479 133.646C209.454 133.676 209.424 133.701 209.39 133.72C209.356 133.739 209.319 133.75 209.28 133.754C209.241 133.759 209.202 133.755 209.165 133.744C209.128 133.733 209.093 133.715 209.063 133.69V133.69Z" fill="#CCCCCC"/>
<path d="M204.609 139.217L124.02 74.282C123.959 74.2327 123.92 74.1613 123.912 74.0834C123.904 74.0055 123.926 73.9274 123.976 73.8664C124.025 73.8054 124.096 73.7664 124.174 73.758C124.252 73.7495 124.33 73.7724 124.391 73.8215L204.98 138.756C205.011 138.78 205.036 138.811 205.054 138.845C205.073 138.879 205.085 138.916 205.089 138.955C205.093 138.993 205.09 139.033 205.079 139.07C205.068 139.107 205.05 139.142 205.025 139.172C205.001 139.202 204.971 139.228 204.937 139.246C204.903 139.265 204.865 139.277 204.827 139.281C204.788 139.285 204.749 139.281 204.712 139.27C204.674 139.259 204.639 139.241 204.609 139.217Z" fill="#CCCCCC"/>
<path d="M200.156 144.743L119.567 79.8081C119.506 79.7589 119.467 79.6875 119.459 79.6095C119.45 79.5315 119.473 79.4534 119.522 79.3923C119.572 79.3313 119.643 79.2922 119.721 79.2839C119.799 79.2755 119.877 79.2984 119.938 79.3476L200.528 144.282C200.558 144.307 200.583 144.337 200.602 144.371C200.62 144.405 200.632 144.442 200.636 144.481C200.64 144.52 200.637 144.559 200.626 144.596C200.615 144.633 200.597 144.668 200.572 144.698C200.548 144.728 200.518 144.753 200.484 144.772C200.45 144.791 200.412 144.802 200.374 144.807C200.335 144.811 200.296 144.807 200.259 144.796C200.221 144.785 200.187 144.767 200.156 144.743V144.743Z" fill="#CCCCCC"/>
<path d="M195.703 150.269L115.114 85.334C115.084 85.3096 115.059 85.2795 115.04 85.2454C115.021 85.2113 115.01 85.1739 115.006 85.1353C115.001 85.0967 115.005 85.0577 115.016 85.0204C115.027 84.9832 115.045 84.9484 115.069 84.9182C115.094 84.8879 115.124 84.8628 115.158 84.8442C115.192 84.8256 115.229 84.8139 115.268 84.8097C115.307 84.8056 115.346 84.809 115.383 84.82C115.42 84.8309 115.455 84.8491 115.485 84.8734L196.074 149.808C196.105 149.832 196.13 149.863 196.149 149.897C196.167 149.931 196.179 149.968 196.183 150.007C196.187 150.045 196.184 150.084 196.173 150.122C196.162 150.159 196.144 150.194 196.119 150.224C196.095 150.254 196.065 150.28 196.031 150.298C195.997 150.317 195.959 150.328 195.921 150.333C195.882 150.337 195.843 150.333 195.806 150.322C195.768 150.311 195.734 150.293 195.703 150.269Z" fill="#CCCCCC"/>
<path d="M219.704 159.466H0.295699C0.217275 159.466 0.142062 159.435 0.086608 159.38C0.0311537 159.324 0 159.249 0 159.171C0 159.092 0.0311537 159.017 0.086608 158.962C0.142062 158.906 0.217275 158.875 0.295699 158.875H219.704C219.783 158.875 219.858 158.906 219.913 158.962C219.969 159.017 220 159.092 220 159.171C220 159.249 219.969 159.324 219.913 159.38C219.858 159.435 219.783 159.466 219.704 159.466Z" fill="#CCCCCC"/>
<path d="M99.9686 115.507L96.5882 115.506L94.9805 102.467L99.9698 102.468L99.9686 115.507Z" fill="#FFB8B8"/>
<path d="M94.1791 114.541H100.699V118.645H90.0742C90.0742 118.106 90.1804 117.573 90.3867 117.075C90.593 116.576 90.8953 116.124 91.2765 115.743C91.6577 115.362 92.1102 115.059 92.6082 114.853C93.1062 114.647 93.64 114.541 94.1791 114.541Z" fill="#2F2E41"/>
<path d="M65.4334 115.507L62.053 115.506L60.4453 102.467L65.4346 102.468L65.4334 115.507Z" fill="#FFB8B8"/>
<path d="M59.6361 114.541H66.1557V118.645H55.5313C55.5312 118.106 55.6374 117.573 55.8437 117.075C56.05 116.576 56.3524 116.124 56.7335 115.743C57.1147 115.362 57.5672 115.059 58.0653 114.853C58.5633 114.647 59.0971 114.541 59.6361 114.541Z" fill="#2F2E41"/>
<path d="M76.7266 18.7868V17.3083C76.7266 14.7791 77.7313 12.3535 79.5197 10.5651C81.3081 8.77669 83.7337 7.77197 86.2628 7.77197H86.2629C88.792 7.77197 91.2176 8.77669 93.006 10.5651C94.7944 12.3535 95.7992 14.7791 95.7992 17.3083V18.7868C95.7992 20.6101 95.0748 22.3588 93.7855 23.6481C92.4962 24.9374 90.7475 25.6618 88.9242 25.6618H83.6016C82.6987 25.6618 81.8047 25.4839 80.9706 25.1384C80.1365 24.7929 79.3786 24.2865 78.7402 23.6481C78.1018 23.0097 77.5954 22.2518 77.2499 21.4177C76.9044 20.5836 76.7266 19.6896 76.7266 18.7868Z" fill="#2F2E41"/>
<path d="M86.2627 26.1703C90.2737 26.1703 93.5253 22.9187 93.5253 18.9076C93.5253 14.8966 90.2737 11.645 86.2627 11.645C82.2516 11.645 79 14.8966 79 18.9076C79 22.9187 82.2516 26.1703 86.2627 26.1703Z" fill="#FFB8B8"/>
<path d="M46.7581 43.8686C47.0528 43.5903 47.405 43.38 47.7898 43.2525C48.1745 43.125 48.5826 43.0835 48.9852 43.1308C49.3878 43.1781 49.7751 43.3131 50.1199 43.5262C50.4647 43.7394 50.7585 44.0256 50.9807 44.3646L57.2066 43.1869L58.845 46.7958L50.0296 48.3354C49.4353 48.671 48.7386 48.7769 48.0714 48.6331C47.4043 48.4892 46.813 48.1057 46.4098 47.5551C46.0065 47.0045 45.8193 46.3251 45.8835 45.6457C45.9476 44.9662 46.2588 44.3339 46.7581 43.8686V43.8686Z" fill="#FFB8B8"/>
<path d="M80.602 30.7442L80.6835 30.8675L70.4742 37.593L53.2473 43.094C53.0189 43.1674 52.8231 43.3176 52.693 43.5192C52.563 43.7207 52.5068 43.9611 52.5341 44.1994L52.9099 47.4363C52.9265 47.5796 52.973 47.7178 53.0462 47.842C53.1194 47.9663 53.2177 48.0739 53.3349 48.1579C53.4522 48.242 53.5856 48.3006 53.7268 48.33C53.868 48.3595 54.0138 48.3591 54.1548 48.3289L70.3679 44.8536C71.1526 44.6864 71.8945 44.3597 72.5477 43.8939L84.0172 35.7335C84.433 35.4361 84.7648 35.0361 84.9803 34.5725C85.1957 34.1089 85.2876 33.5974 85.2468 33.0878C85.2048 32.5775 85.0306 32.0869 84.7414 31.6643C84.4523 31.2417 84.0581 30.9017 83.5976 30.6777C83.1372 30.4537 82.6264 30.3534 82.1154 30.3867C81.6044 30.4199 81.1109 30.5857 80.6835 30.8675L80.602 30.7442Z" fill="#CCCCCC"/>
<path d="M96.6479 111.806C96.3885 111.806 96.1346 111.731 95.9173 111.589C95.7001 111.447 95.5288 111.245 95.4244 111.008L79.9269 72.7144C79.8907 72.6313 79.83 72.5614 79.7528 72.5139C79.6757 72.4664 79.5858 72.4436 79.4954 72.4487C79.4049 72.4538 79.3182 72.4865 79.2469 72.5424C79.1755 72.5982 79.123 72.6746 79.0964 72.7612L66.4528 110.041C66.3994 110.215 66.3111 110.375 66.1934 110.513C66.0756 110.651 65.9308 110.764 65.7679 110.844C65.605 110.924 65.4274 110.97 65.2461 110.979C65.0648 110.988 64.8836 110.96 64.7136 110.896L60.4738 109.306C60.2437 109.22 60.0418 109.073 59.8905 108.879C59.7393 108.686 59.6447 108.454 59.6172 108.211C57.7098 91.5945 74.343 49.6534 74.5112 49.2318L74.5578 49.115L89.7204 52.469L89.7519 52.5034C95.8013 59.1027 100.774 100.727 101.709 109.004C101.744 109.303 101.676 109.605 101.516 109.86C101.356 110.115 101.115 110.308 100.83 110.407L97.088 111.731C96.9467 111.781 96.7979 111.806 96.6479 111.806Z" fill="#2F2E41"/>
<path d="M83.5885 53.8187C79.9148 53.8187 75.8192 53.0863 74.5585 50.0631L74.5295 49.9937L74.5687 49.9293C75.5638 48.2966 76.879 45.5114 76.1721 44.9886C74.7796 43.959 74.1038 42.2652 74.1638 39.9542C74.2941 34.9375 77.7123 30.4833 82.6698 28.8707H82.6699C84.0537 28.4279 85.4618 28.0653 86.8874 27.7848C87.9267 27.5751 88.9995 27.5982 90.0288 27.8524C91.0582 28.1065 92.0184 28.5855 92.8406 29.2549C93.6731 29.9287 94.3461 30.7785 94.8111 31.7433C95.2762 32.7081 95.5217 33.7639 95.5302 34.8349C95.5822 40.1962 94.7568 47.6633 90.5294 52.7898C90.3312 53.0277 90.0555 53.188 89.7508 53.2426C87.7169 53.6105 85.6553 53.8032 83.5885 53.8187Z" fill="#CCCCCC"/>
<path d="M82.2154 53.6181C82.4153 52.9009 82.8902 52.2916 83.5368 51.9226C84.1834 51.5537 84.9495 51.4548 85.6687 51.6475C85.8155 51.6885 85.9587 51.7416 86.0968 51.806L90.8241 47.504L94.1116 49.7188L87.3514 55.7011C87.0462 56.2515 86.5656 56.684 85.9862 56.9297C85.4068 57.1755 84.7618 57.2204 84.1539 57.0573C83.7998 56.9604 83.4685 56.7943 83.179 56.5685C82.8895 56.3428 82.6476 56.0619 82.4673 55.742C82.2871 55.4222 82.172 55.0698 82.1287 54.7053C82.0855 54.3407 82.1149 53.9712 82.2154 53.6181Z" fill="#FFB8B8"/>
<path d="M90.077 53.6728C89.7703 53.673 89.473 53.5669 89.2356 53.3726L87.3714 51.8492C87.216 51.7222 87.0914 51.5617 87.0068 51.3797C86.9222 51.1977 86.8799 50.999 86.883 50.7983C86.8861 50.5976 86.9345 50.4003 87.0247 50.221C87.1149 50.0417 87.2444 49.8851 87.4037 49.763L95.2225 43.7663C95.3151 43.6949 95.3759 43.5898 95.3916 43.4738C95.4073 43.3579 95.3766 43.2404 95.3063 43.1469L90.4804 36.7669C89.9197 36.0281 89.6385 35.1148 89.6865 34.1886C89.7345 33.2624 90.1087 32.383 90.7428 31.7062C91.4106 30.985 92.3251 30.5411 93.3049 30.4628C94.2848 30.3844 95.2582 30.6772 96.0322 31.2832L96.0627 31.3154L101.102 38.5311C101.647 38.9584 102.086 39.5058 102.384 40.1307C102.682 40.7555 102.832 41.4409 102.822 42.1333C102.812 42.8257 102.641 43.5063 102.325 44.122C102.008 44.7377 101.553 45.2719 100.996 45.6827L90.8691 53.4119C90.6398 53.5813 90.3622 53.6728 90.077 53.6728Z" fill="#CCCCCC"/>
<path d="M79.832 16.8645V13.2611L86.2651 10.452L92.3992 13.2611V16.8645C92.3992 17.0214 92.3369 17.1718 92.226 17.2827C92.1151 17.3936 91.9647 17.4559 91.8078 17.4559H80.4234C80.2666 17.4559 80.1162 17.3936 80.0052 17.2827C79.8943 17.1718 79.832 17.0214 79.832 16.8645Z" fill="#2F2E41"/>
<path d="M85.9645 8.24994C85.0186 5.22242 87.0051 1.75274 89.9419 0.554374C92.8786 -0.643996 96.3921 0.193701 98.8701 2.17359C101.348 4.15348 102.886 7.11898 103.7 10.1844C104.515 13.2499 104.669 16.4464 104.82 19.6147C108.428 20.2774 110.883 24.557 109.633 28.0061C108.383 31.4551 103.756 33.1686 100.561 31.3659C97.3661 29.5632 96.4407 24.7172 98.7467 21.864C99.8378 20.5139 100.447 18.8384 100.479 17.1028C100.51 15.3673 99.9614 13.6708 98.9198 12.2822C97.8781 10.8936 96.403 9.89221 94.728 9.43663C93.053 8.98106 91.2738 9.09734 89.6724 9.76706C87.8941 10.5107 85.6628 8.57854 85.9645 8.24994Z" fill="#2F2E41"/>
<path d="M45.4237 29.89C41.1037 29.8616 36.8377 28.9273 32.9014 27.1474C32.667 27.043 32.4681 26.8726 32.3289 26.6572C32.1897 26.4417 32.1161 26.1904 32.1172 25.9339V15.1651C32.1176 14.8123 32.2579 14.4741 32.5074 14.2246C32.7568 13.9752 33.0951 13.8349 33.4478 13.8345H57.3995C57.7522 13.8349 58.0905 13.9752 58.3399 14.2247C58.5894 14.4741 58.7297 14.8123 58.7301 15.1651V25.9339C58.7312 26.1904 58.6576 26.4417 58.5184 26.6572C58.3792 26.8727 58.1803 27.043 57.946 27.1474C54.0096 28.9273 49.7436 29.8616 45.4237 29.89Z" fill="#6f93bf"/>
<path d="M45.4214 21.166C45.2439 21.1662 45.0681 21.1308 44.9044 21.0621L25.911 13.0488C25.6661 12.9454 25.4577 12.7711 25.3128 12.5483C25.1679 12.3254 25.093 12.0643 25.0979 11.7985C25.1028 11.5327 25.1871 11.2744 25.3401 11.057C25.4931 10.8397 25.7078 10.6731 25.9563 10.5788L44.9499 3.37329C45.2558 3.2567 45.594 3.25742 45.8995 3.37531L64.6385 10.5808C64.8857 10.6758 65.0988 10.8425 65.2508 11.0593C65.4027 11.2762 65.4864 11.5335 65.4913 11.7982C65.4962 12.063 65.422 12.3231 65.2782 12.5455C65.1344 12.7678 64.9275 12.9422 64.6841 13.0463L45.9448 21.0595C45.7793 21.13 45.6013 21.1662 45.4214 21.166Z" fill="#6f93bf"/>
<path d="M34.3406 27.8804C35.3205 27.8804 36.1148 27.086 36.1148 26.1062C36.1148 25.1263 35.3205 24.332 34.3406 24.332C33.3607 24.332 32.5664 25.1263 32.5664 26.1062C32.5664 27.086 33.3607 27.8804 34.3406 27.8804Z" fill="#3F3D56"/>
<path opacity="0.2" d="M64.7482 11.9088L46.0089 19.922C45.8628 19.9845 45.7056 20.0169 45.5467 20.0173C45.3878 20.0176 45.2305 19.986 45.0841 19.9242L26.0908 11.9112C25.8523 11.8129 25.6533 11.638 25.5252 11.4141C25.4415 11.5593 25.3896 11.7207 25.373 11.8875C25.3564 12.0543 25.3755 12.2227 25.429 12.3816C25.4825 12.5405 25.5691 12.6862 25.6832 12.809C25.7973 12.9318 25.9363 13.029 26.0908 13.094L45.0841 21.107C45.2305 21.1688 45.3878 21.2004 45.5467 21.2C45.7056 21.1997 45.8628 21.1673 46.0089 21.1048L64.7482 13.0916C64.902 13.026 65.0401 12.9286 65.1534 12.8057C65.2667 12.6829 65.3527 12.5373 65.4056 12.3788C65.4585 12.2203 65.4773 12.0523 65.4605 11.886C65.4438 11.7197 65.3919 11.5588 65.3084 11.414C65.1813 11.6362 64.9844 11.8101 64.7482 11.9088Z" fill="black"/>
<path d="M34.4793 26.0992C34.5577 26.0992 34.6329 26.0681 34.6884 26.0126C34.7438 25.9572 34.775 25.8819 34.775 25.8035V15.909L44.5275 12.3562C44.6059 12.3573 44.6816 12.3273 44.7378 12.2727C44.7941 12.218 44.8264 12.1433 44.8276 12.0649C44.8287 11.9864 44.7987 11.9108 44.7441 11.8545C44.6895 11.7982 44.6147 11.7659 44.5363 11.7648L34.7838 15.3176C34.7053 15.3158 34.6273 15.33 34.5544 15.3592C34.4816 15.3884 34.4154 15.4322 34.36 15.4877C34.3039 15.5426 34.2594 15.6082 34.2291 15.6805C34.1988 15.7529 34.1834 15.8306 34.1836 15.909V25.8035C34.1836 25.8819 34.2148 25.9572 34.2702 26.0126C34.3257 26.0681 34.4009 26.0992 34.4793 26.0992Z" fill="#3F3D56"/>
</g>
<defs>
<clipPath id="clip0">
<rect width="220" height="159.466" fill="white"/>
</clipPath>
</defs>
</svg>
