<svg width="17" height="21" viewBox="0 0 17 21" fill="none" xmlns="http://www.w3.org/2000/svg">
<path d="M7.06563 0C5.60137 0 4.38945 1.14551 4.25 2.57656H0V4.27656H4.22344V4.30312H12.7766V4.27656H17V2.57656H12.75C12.6172 1.14551 11.4617 0 10.0406 0H7.06563ZM7.06563 1.75313H10.0406C10.4723 1.75313 10.791 2.0918 10.9172 2.55H6.08281C6.20234 2.0918 6.53438 1.75313 7.06563 1.75313ZM1.7 5.12656V19.1516C1.7 19.8322 2.29434 20.4266 2.975 20.4266H14.1047C14.7854 20.4266 15.3797 19.8322 15.3797 19.1516V5.12656H1.7ZM4.25 7.67656H5.1V18.7266H4.25V7.67656ZM6.8 7.67656H7.65V18.7266H6.8V7.67656ZM9.35 7.67656H10.2V18.7266H9.35V7.67656ZM11.9 7.67656H12.75V18.7266H11.9V7.67656Z" fill="#0E314C"/>
</svg>
