<svg width="1130" height="831.56" xmlns="http://www.w3.org/2000/svg">
 <defs>
  <linearGradient y2="0.00008" x2="0.50039" y1="0.99991" x1="0.50039" id="af868219-7e5b-405b-a411-f7ffae4abd96">
   <stop stop-opacity="0.25" stop-color="gray" offset="0"/>
   <stop stop-opacity="0.12" stop-color="gray" offset="0.54"/>
   <stop stop-opacity="0.1" stop-color="gray" offset="1"/>
  </linearGradient>
 </defs>
 <title>youtube tutorial</title>
 <g>
  <title>background</title>
  <rect fill="none" id="canvas_background" height="602" width="802" y="-1" x="-1"/>
 </g>
 <g>
  <title>Layer 1</title>
  <path id="svg_1" opacity="0.1" fill="#33b57d" d="m656.53998,124.69c-72.44,-2.51001 -141.44,-25.91 -207.31998,-51.49001s-131.14999,-53.93 -201.85001,-67.49c-45.48,-8.72 -97.48999,-9.93 -134.12999,14.43c-35.27,23.46 -46.66,64 -52.78,101.55c-4.60999,28.28 -7.32,58 5.3,84.51001c8.77,18.37 24.34,33.82001 35.11,51.41998c37.45,61.26001 11,136.79001 -29.62,196.59c-19,28.06 -41.13,54.82001 -55.82,84.68997s-21.49,64.08002 -8.64,94.54004c12.75,30.20001 43.11,52.87994 76,68.82996c66.81,32.40009 145.53998,41.67999 222.31,46.92999c169.94998,11.58002 340.80002,6.58002 511.18997,1.58002c63.06,-1.86993 126.39001,-3.75995 188.42999,-13.51001c34.43994,-5.40997 70,-14 95,-34.75c31.75,-26.3399 39.62,-70.94 18.33997,-104c-35.67993,-55.38995 -134.34998,-69.14996 -159.28998,-128.59998c-13.72998,-32.72 0.37,-69.16998 20.32001,-99.51999c42.80005,-65.10999 114.54004,-122.22 118.32007,-196.64c2.59998,-51.11 -31.89001,-102.3 -85.21008,-126.48c-55.89996,-25.35 -133.39996,-22.16 -174.63995,19.8c-42.44,43.21001 -117.06,59.83002 -181.02002,57.61002z"/>
  <polygon id="svg_2" fill="#d0d2d5" points="664.18 755.89 469.18 753.39 469.75 748.39 479.18 665.89 650.43 665.89 663.03 748.39 663.99 754.64 664.18 755.89"/>
  <polygon id="svg_3" opacity="0.1" points="663.99 754.64 566.68 754.64 469.18 753.39 469.75 748.39 663.03 748.39 663.99 754.64"/>
  <rect id="svg_4" fill="#d0d2d5" height="6.25" width="258.75" y="749.64" x="436.68"/>
  <path id="svg_5" fill="#444053" d="m942.29999,170.37a16.27,16.27 0 0 0 -16.19,-16.34999l-722.60999,0a16.27,16.27 0 0 0 -16.2,16.34999l0,438l754.99998,0l0,-438z"/>
  <path id="svg_6" fill="#d0d2d5" d="m187.3,604.02002l0,51.29993a16.2,16.2 0 0 0 16.2,16.20001l722.60999,0a16.2,16.2 0 0 0 16.19,-16.20001l0,-51.29993l-754.99998,0z"/>
  <rect id="svg_7" opacity="0.1" fill="#33b57d" height="393.75" width="696.25" y="181.52" x="218.55"/>
  <path id="svg_8" fill="#33b57d" d="m568.54999,652.05005a16.89,16.89 0 0 0 13.28003,-6.44006l0,0a17.21,17.21 0 0 0 1.31,-1.92993l-9.26001,-1.52008l10,0.08002a16.85,16.85 0 0 0 0.32001,-13.38l-13.42999,7l12.38995,-9.09998a16.87,16.87 0 1 0 -27.87,18.88007l0,0a16.87,16.87 0 0 0 13.26001,6.40997z"/>
  <polygon id="svg_9" opacity="0.1" points="585.43 671.52 663.22 749.64 651.29 671.52 585.43 671.52"/>
  <rect id="svg_10" fill="#fff" rx="2.6" height="274" width="457" y="252.56" x="239"/>
  <rect id="svg_11" fill="#fff" height="23" width="696" y="181.56" x="219"/>
  <rect id="svg_12" fill="#33b57d" rx="0.78" height="14" width="20" y="185.56" x="222"/>
  <rect id="svg_13" opacity="0.3" fill="#33b57d" rx="0.58" height="14" width="210" y="185.56" x="460"/>
  <path id="svg_14" fill="#444053" d="m663.77002,194l-0.51001,0l-0.19,-0.16a4.25,4.25 0 0 0 1,-2.72a4.14,4.14 0 1 0 -4.13,4.17a4.27,4.27 0 0 0 2.72003,-1l0.19,0.16l0,0.52l3.20001,3.2l1,-1l-3.28003,-3.17zm-3.84003,0a2.89,2.89 0 1 1 2.88,-2.88a2.86,2.86 0 0 1 -2.88,2.88z"/>
  <circle id="svg_15" fill="#33b57d" r="7" cy="192.56" cx="905"/>
  <rect id="svg_16" fill="#fff" rx="2.43" height="44" width="65" y="229.56" x="729"/>
  <rect id="svg_17" fill="#fff" rx="0.61" height="7" width="84" y="229.56" x="811"/>
  <rect id="svg_18" fill="#fff" rx="0.61" height="7" width="84" y="244.56" x="811"/>
  <rect id="svg_19" fill="#fff" rx="0.61" height="7" width="84" y="259.56" x="811"/>
  <rect id="svg_20" fill="#fff" rx="2.43" height="44" width="65" y="298.56" x="729"/>
  <rect id="svg_21" fill="#fff" rx="0.61" height="7" width="84" y="298.56" x="811"/>
  <rect id="svg_22" fill="#fff" rx="0.61" height="7" width="84" y="313.56" x="811"/>
  <rect id="svg_23" fill="#fff" rx="0.66" height="7" width="84" y="328.56" x="811"/>
  <rect id="svg_24" fill="#fff" rx="2.43" height="44" width="65" y="367.56" x="729"/>
  <rect id="svg_25" fill="#fff" rx="0.66" height="7" width="84" y="367.56" x="811"/>
  <rect id="svg_26" fill="#fff" rx="0.66" height="7" width="84" y="382.56" x="811"/>
  <rect id="svg_27" fill="#fff" rx="0.66" height="7" width="84" y="397.56" x="811"/>
  <rect id="svg_28" fill="#fff" rx="2.43" height="44" width="65" y="436.56" x="729"/>
  <rect id="svg_29" fill="#fff" rx="0.66" height="7" width="84" y="436.56" x="811"/>
  <rect id="svg_30" fill="#fff" rx="0.66" height="7" width="84" y="451.56" x="811"/>
  <rect id="svg_31" fill="#fff" rx="0.66" height="7" width="84" y="466.56" x="811"/>
  <rect id="svg_32" fill="#fff" rx="2.43" height="44" width="65" y="505.56" x="729"/>
  <rect id="svg_33" fill="#fff" rx="0.66" height="7" width="84" y="505.56" x="811"/>
  <rect id="svg_34" fill="#fff" rx="0.66" height="7" width="84" y="520.56" x="811"/>
  <rect id="svg_35" fill="#fff" rx="0.66" height="7" width="84" y="535.56" x="811"/>
  <rect id="svg_36" opacity="0.1" fill="#33b57d" height="5.33" width="102.83" y="325.17" x="304.92"/>
  <rect id="svg_37" opacity="0.1" fill="#33b57d" height="28.18" width="9.9" y="296.99" x="314.06"/>
  <rect id="svg_38" opacity="0.1" fill="#33b57d" height="28.18" width="9.9" y="296.99" x="328.53"/>
  <rect id="svg_39" opacity="0.1" fill="#33b57d" height="28.18" width="9.9" y="296.99" x="343"/>
  <rect id="svg_40" opacity="0.1" fill="#33b57d" height="28.18" width="9.9" y="296.99" x="357.47"/>
  <rect id="svg_41" opacity="0.1" fill="#33b57d" height="28.18" width="9.9" y="296.99" x="371.94"/>
  <rect id="svg_42" opacity="0.1" fill="#33b57d" height="28.18" width="9.9" y="296.99" x="386.42"/>
  <rect id="svg_43" opacity="0.1" fill="#33b57d" height="3.05" width="9.9" y="302.32" x="314.06"/>
  <rect id="svg_44" opacity="0.1" fill="#33b57d" height="3.05" width="9.9" y="302.32" x="328.53"/>
  <rect id="svg_45" opacity="0.1" fill="#33b57d" height="3.05" width="9.9" y="302.32" x="343"/>
  <rect id="svg_46" opacity="0.1" fill="#33b57d" height="3.05" width="9.9" y="302.32" x="357.47"/>
  <rect id="svg_47" opacity="0.1" fill="#33b57d" height="3.05" width="9.9" y="302.32" x="371.94"/>
  <rect id="svg_48" opacity="0.1" fill="#33b57d" height="3.05" width="9.9" y="302.32" x="386.42"/>
  <rect id="svg_49" opacity="0.1" fill="#33b57d" height="3.05" width="9.9" y="316.03" x="314.06"/>
  <rect id="svg_50" opacity="0.1" fill="#33b57d" height="3.05" width="9.9" y="316.03" x="328.53"/>
  <rect id="svg_51" opacity="0.1" fill="#33b57d" height="3.05" width="9.9" y="316.03" x="343"/>
  <rect id="svg_52" opacity="0.1" fill="#33b57d" height="3.05" width="9.9" y="316.03" x="357.47"/>
  <rect id="svg_53" opacity="0.1" fill="#33b57d" height="3.05" width="9.9" y="316.03" x="371.94"/>
  <rect id="svg_54" opacity="0.1" fill="#33b57d" height="3.05" width="9.9" y="316.03" x="386.42"/>
  <rect id="svg_55" opacity="0.1" fill="#33b57d" height="5.33" width="102.83" y="338.88" x="530.37"/>
  <rect id="svg_56" opacity="0.1" fill="#33b57d" height="28.18" width="9.9" y="310.7" x="539.51"/>
  <rect id="svg_57" opacity="0.1" fill="#33b57d" height="28.18" width="9.9" y="310.7" x="553.98"/>
  <rect id="svg_58" opacity="0.1" fill="#33b57d" height="28.18" width="9.9" y="310.7" x="568.45"/>
  <rect id="svg_59" opacity="0.1" fill="#33b57d" height="28.18" width="9.9" y="310.7" x="582.93"/>
  <rect id="svg_60" opacity="0.1" fill="#33b57d" height="28.18" width="9.9" y="310.7" x="597.4"/>
  <rect id="svg_61" opacity="0.1" fill="#33b57d" height="28.18" width="9.9" y="310.7" x="611.87"/>
  <rect id="svg_62" opacity="0.1" fill="#33b57d" height="3.05" width="9.9" y="316.03" x="539.51"/>
  <rect id="svg_63" opacity="0.1" fill="#33b57d" height="3.05" width="9.9" y="316.03" x="553.98"/>
  <rect id="svg_64" opacity="0.1" fill="#33b57d" height="3.05" width="9.9" y="316.03" x="568.45"/>
  <rect id="svg_65" opacity="0.1" fill="#33b57d" height="3.05" width="9.9" y="316.03" x="582.93"/>
  <rect id="svg_66" opacity="0.1" fill="#33b57d" height="3.05" width="9.9" y="316.03" x="597.4"/>
  <rect id="svg_67" opacity="0.1" fill="#33b57d" height="3.05" width="9.9" y="316.03" x="611.87"/>
  <rect id="svg_68" opacity="0.1" fill="#33b57d" height="3.05" width="9.9" y="329.74" x="539.51"/>
  <rect id="svg_69" opacity="0.1" fill="#33b57d" height="3.05" width="9.9" y="329.74" x="553.98"/>
  <rect id="svg_70" opacity="0.1" fill="#33b57d" height="3.05" width="9.9" y="329.74" x="568.45"/>
  <rect id="svg_71" opacity="0.1" fill="#33b57d" height="3.05" width="9.9" y="329.74" x="582.93"/>
  <rect id="svg_72" opacity="0.1" fill="#33b57d" height="3.05" width="9.9" y="329.74" x="597.4"/>
  <rect id="svg_73" opacity="0.1" fill="#33b57d" height="3.05" width="9.9" y="329.74" x="611.87"/>
  <rect id="svg_74" opacity="0.1" fill="#33b57d" height="5.33" width="102.83" y="377.72" x="530.37"/>
  <rect id="svg_75" opacity="0.1" fill="#33b57d" height="28.18" width="9.9" y="349.54" x="539.51"/>
  <rect id="svg_76" opacity="0.1" fill="#33b57d" height="28.18" width="9.9" y="349.54" x="553.98"/>
  <rect id="svg_77" opacity="0.1" fill="#33b57d" height="28.18" width="9.9" y="349.54" x="568.45"/>
  <rect id="svg_78" opacity="0.1" fill="#33b57d" height="28.18" width="9.9" y="349.54" x="582.93"/>
  <rect id="svg_79" opacity="0.1" fill="#33b57d" height="28.18" width="9.9" y="349.54" x="597.4"/>
  <rect id="svg_80" opacity="0.1" fill="#33b57d" height="28.18" width="9.9" y="349.54" x="611.87"/>
  <rect id="svg_81" opacity="0.1" fill="#33b57d" height="3.05" width="9.9" y="354.87" x="539.51"/>
  <rect id="svg_82" opacity="0.1" fill="#33b57d" height="3.05" width="9.9" y="354.87" x="553.98"/>
  <rect id="svg_83" opacity="0.1" fill="#33b57d" height="3.05" width="9.9" y="354.87" x="568.45"/>
  <rect id="svg_84" opacity="0.1" fill="#33b57d" height="3.05" width="9.9" y="354.87" x="582.93"/>
  <rect id="svg_85" opacity="0.1" fill="#33b57d" height="3.05" width="9.9" y="354.87" x="597.4"/>
  <rect id="svg_86" opacity="0.1" fill="#33b57d" height="3.05" width="9.9" y="354.87" x="611.87"/>
  <rect id="svg_87" opacity="0.1" fill="#33b57d" height="3.05" width="9.9" y="368.58" x="539.51"/>
  <rect id="svg_88" opacity="0.1" fill="#33b57d" height="3.05" width="9.9" y="368.58" x="553.98"/>
  <rect id="svg_89" opacity="0.1" fill="#33b57d" height="3.05" width="9.9" y="368.58" x="568.45"/>
  <rect id="svg_90" opacity="0.1" fill="#33b57d" height="3.05" width="9.9" y="368.58" x="582.93"/>
  <rect id="svg_91" opacity="0.1" fill="#33b57d" height="3.05" width="9.9" y="368.58" x="597.4"/>
  <rect id="svg_92" opacity="0.1" fill="#33b57d" height="3.05" width="9.9" y="368.58" x="611.87"/>
  <path id="svg_93" opacity="0.1" fill="#33b57d" d="m368,385.44a28.45,28.45 0 0 1 -2.10001,-3.09l14.81,-2.42999l-16,0.12a27.06,27.06 0 0 1 -0.51999,-21.38l21.45001,11.12l-19.81,-14.56a27,27 0 1 1 44.57001,30.20001a26.24,26.24 0 0 1 3.07999,4.91998l-19.22,10l20.49002,-6.87a27,27 0 0 1 -4.35004,25.31a27,27 0 1 1 -42.39999,0a27,27 0 0 1 0,-33.37l0,0.03z"/>
  <path id="svg_94" opacity="0.1" fill="#33b57d" d="m416.17999,402.12a26.89,26.89 0 0 1 -5.78,16.66a27,27 0 1 1 -42.39999,0c-3.63,-4.57001 48.17999,-19.69 48.17999,-16.66z"/>
  <path id="svg_95" opacity="0.2" fill="#3f3d56" d="m393.51999,469.66a2.53,2.53 0 0 1 0.13,0.22l-9.16,0c0.04999,-0.07001 0.07999,-0.14999 0.13,-0.22a8.87,8.87 0 0 1 -1.17999,-4.51001a9.26,9.26 0 0 1 0.54999,-3.17999l0,0c0.51001,0.07999 1.14001,0.16998 1.87,0.25a32.1,32.1 0 0 0 6.39001,0q0.91998,-0.09 1.88998,-0.23999a0.09,0.09 0 0 0 0,0.04999a9,9 0 0 1 0.54001,3.13a8.87,8.87 0 0 1 -1.16,4.5z"/>
  <path id="svg_96" opacity="0.1" fill="#33b57d" d="m360.60001,469.88l-51,0c-0.10999,-0.29001 -0.20999,-0.60001 -0.29999,-0.89999a26.85,26.85 0 0 1 0.59,-17.64001a27,27 0 0 1 -9.85001,-31.88998a25.83,25.83 0 0 1 -2.91,-2.33002l13.42001,-6.68997l-15.26001,4.84a27,27 0 0 1 -6.79999,-20.27002l23.80997,4.30002l-23.21997,-8.07001a27,27 0 1 1 51.48999,15.70001a27.35,27.35 0 0 1 4.42999,3.84998l-15.42001,15.20999l17.55002,-12.62a27,27 0 0 1 3.32001,25.5a27,27 0 0 1 10.14999,31.01001z"/>
  <path id="svg_97" opacity="0.1" fill="#33b57d" d="m360.60001,469.88l-51,0c-0.10999,-0.29001 -0.20999,-0.60001 -0.29999,-0.89999a26.85,26.85 0 0 1 0.59,-17.64001c-4.80002,-3.31998 40.22998,-33.06998 41.12,-30.16998a26.88,26.88 0 0 1 -0.59,17.64999a27,27 0 0 1 10.17999,31.06z"/>
  <path id="svg_98" opacity="0.1" fill="#33b57d" d="m591.34998,433.34a26.9,26.9 0 0 1 -13.51001,11.36002a27.4,27.4 0 0 1 0.10999,5.79999l-21.60999,-1.29999l21.11005,4.57999a27,27 0 0 1 -3.22003,8.16a26.57,26.57 0 0 1 -7.19995,7.89999l-29.42004,0l0,0.76999l-30,0c0.06,-0.25998 0.12,-0.50998 0.19,-0.76999a27,27 0 0 1 16.45001,-18.31a27,27 0 0 1 17.13,-28.64001a27.36,27.36 0 0 1 -0.22003,-3.72998l13.95001,5.51001l-13.79999,-8.11002a27,27 0 0 1 10.59003,-18.57999l12.71002,20.57999l-9.53003,-22.66a27,27 0 0 1 36.27002,37.44l-0.00006,0z"/>
  <path id="svg_99" opacity="0.1" fill="#33b57d" d="m574.22998,461.98001a26.57,26.57 0 0 1 -7.20001,7.89999l-29.41998,0l0,0.76999l-30,0c0.06,-0.25998 0.12,-0.50998 0.19,-0.76999a27,27 0 0 1 16.45001,-18.31c-0.25,-2 5.56,-1.70001 13.31,-0.39999c15.19,2.54999 37.70001,9.09 36.66998,10.81z"/>
  <path id="svg_100" fill="#ee8e9e" d="m446.70999,389.97s3.70001,20 -4.56,26.53s7,45.67001 32.17999,41.10001s35.44003,-37.39999 35.44003,-37.39999s-25.22003,-5.22 -15.87006,-31.75l-47.18997,1.51999z"/>
  <path id="svg_101" opacity="0.1" d="m446.70999,389.97s3.70001,20 -4.56,26.53s7,45.67001 32.17999,41.10001s35.44003,-37.39999 35.44003,-37.39999s-25.22003,-5.22 -15.87006,-31.75l-47.18997,1.51999z"/>
  <circle id="svg_102" fill="#ee8e9e" r="41.75" cy="362.9" cx="469"/>
  <path id="svg_103" fill="#33b57d" d="m537.60999,442.26999l0,28.38l-137.85999,0l0,-27.09a17.48,17.48 0 0 1 10.67001,-16.10001l3.94998,-1.67999c10,-4.26001 22.14999,-9.54999 26.12,-11.75a6.53,6.53 0 0 0 1.22,-0.79001c2.17001,-2.16998 1.74002,0.64999 1.74002,0.64999s-0.06,0.54001 -0.10001,1.47c-0.24002,6.39001 0.67999,31.5 30.10999,29.41c28.70999,-2 30.00003,-21.41998 29.70999,-27.13a15.45,15.45 0 0 0 -0.13,-1.57999a37.09,37.09 0 0 1 5.81,1.89999c6,2.22 14.86005,5.78 17.23004,7.46002c0.73999,0.51999 1.63995,1.06 2.62,1.60999a17.23,17.23 0 0 1 3.09998,2.20999a17.51,17.51 0 0 1 5.81,13.03z"/>
  <path id="svg_104" opacity="0.1" d="m508.84998,417.95999c-2.42999,11.26001 -10.06,32.35001 -37.56,32.89999c-29.30002,0.58002 -31,-28.56 -30.81,-36.82999a5.91,5.91 0 0 0 1.22998,-0.79001c2.18002,-2.17001 1.74002,0.64999 1.74002,0.64999s-3.69,33.27002 30,30.88s29.55002,-28.69998 29.55002,-28.69998c0,-0.16 2.51001,0.70999 5.84998,1.88998z"/>
  <path id="svg_105" fill="#454b69" d="m419.57999,364.98999a7.15,7.15 0 0 1 7.53,2.75c1.52002,2.13 1.75,4.70001 1.94,7.16c1.81,0.38 2.83002,-1.67001 3,-3.22c0.67001,-6.31 0.72,-12.73999 2.84,-18.84s6.75,-12 13.86002,-14.33002a16.08,16.08 0 0 1 7.56998,-0.72c1.51001,0.25 2.93002,0.78 4.43002,1c5.19998,0.86002 10.84998,-1.59998 15.72,0.11002c3.05997,1.07999 4.99997,3.57001 6.42996,6.06a13.08,13.08 0 0 0 2.5,3.63c2.07001,1.85999 5.31,2.34 8.28003,2.91998s6.21002,1.59 7.47998,3.88c1.14001,2.07001 0.29999,4.45999 -0.07996,6.70001a16.42,16.42 0 0 0 1.69,10.37c0.54999,1 1.66998,2.20999 3,1.88a2.63,2.63 0 0 0 1.41998,-1.14999c3.40997,-4.78 3.32001,-11 7.59998,-15.31003c1.42999,-1.43997 3.28003,-2.56 4.66998,-4a9.08,9.08 0 0 0 2.42004,-8.23999c-0.77002,-3.29999 -3.41003,-6 -5.54004,-8.89999a35,35 0 0 1 -5.92999,-12.31a2.23,2.23 0 0 1 0,-1.61002a4.29,4.29 0 0 1 1.52002,-1.23999a5.74,5.74 0 0 0 1.94,-7.32999c-1.21002,-2.47 -3.87,-4.35001 -6.87,-5.47a44.8,44.8 0 0 0 -9.37,-2c-2.09998,0.29999 -4.56,-0.89001 -5.21002,-2.57001c-0.28998,-0.75 -0.28998,-1.56 -0.57996,-2.31a5.3,5.3 0 0 0 -4,-2.79999a11.7,11.7 0 0 0 -5.35004,0.38c-2,0.56 -4.27002,1.39999 -6,0.41998c-0.91,-0.51001 -1.41,-1.44 -2.38998,-1.85999c-2,-0.84 -4.06,0.85999 -5.49002,2.25998a13.36,13.36 0 0 1 -4.94998,3.33002a7.37,7.37 0 0 1 -6.14001,-0.41c-1.37,-0.87 -2.06,-2.26999 -3.14999,-3.38a11.86,11.86 0 0 0 -7.44998,-3a26.23,26.23 0 0 0 -8.41,0.92001a50.78,50.78 0 0 0 -14.77002,6.19998a15.87,15.87 0 0 0 -5.66998,5.27002a12,12 0 0 0 -1.27002,5.42999c-0.22,5.91 1.74002,12.13 6.85001,16.26999c-3.12,1.30002 -4.16998,4.49002 -4.89999,7.32001c-1.17001,4.51999 -2.34,9.10999 -1.89999,13.70999c0.22,2.38 0.87,4.76001 0.51999,7.13a15.36,15.36 0 0 0 -0.45999,3.41a3.27,3.27 0 0 0 2.66998,2.48999z"/>
  <g id="svg_106" opacity="0.1">
   <path id="svg_107" d="m521.22998,343.78a9.76,9.76 0 0 1 -1.79999,2.66c-1.39001,1.45999 -3.23999,2.59 -4.66998,4c-4.28003,4.28 -4.19,10.54001 -7.60004,15.32001a2.57,2.57 0 0 1 -1.41998,1.13998c-1.29999,0.34 -2.41998,-0.84 -3,-1.88a17.2,17.2 0 0 1 -1.48999,-4c-0.07001,0.35001 -0.14001,0.70001 -0.20001,1a16.42,16.42 0 0 0 1.69,10.37c0.54999,1 1.66998,2.21002 3,1.88a2.63,2.63 0 0 0 1.41998,-1.14999c3.41003,-4.78 3.32001,-11 7.60004,-15.31c1.42999,-1.44 3.27997,-2.56 4.66998,-4a9.08,9.08 0 0 0 2.41998,-8.23999a10.74,10.74 0 0 0 -0.62,-1.79001z"/>
   <path id="svg_108" d="m511.90997,314.17999a4.19,4.19 0 0 0 -1.52002,1.23999a2.21,2.21 0 0 0 0,1.60001a33.82,33.82 0 0 0 1.51001,4.56l0,0a5.74,5.74 0 0 0 1.94,-7.32999a7,7 0 0 0 -0.70001,-1.17001a5.76,5.76 0 0 1 -1.22998,1.10001z"/>
   <path id="svg_109" d="m423.70999,323.45001a18.54,18.54 0 0 1 -6.54999,-11.59a15.62,15.62 0 0 0 -0.30002,2.72a20.82,20.82 0 0 0 3.29001,12.37a7,7 0 0 1 3.56,-3.5z"/>
   <path id="svg_110" d="m501.08002,354.72c0.38,-2.25 1.22003,-4.64001 0.08002,-6.70001c-1.27002,-2.29999 -4.51001,-3.29999 -7.48004,-3.88s-6.20996,-1.06998 -8.27997,-2.91998a13.08,13.08 0 0 1 -2.5,-3.63c-1.41003,-2.48999 -3.37,-5 -6.42999,-6.06c-4.87003,-1.70999 -10.52002,0.73999 -15.72,-0.10999c-1.5,-0.25 -2.92001,-0.77002 -4.43002,-1a16,16 0 0 0 -7.56998,0.71997c-7.11002,2.34003 -11.74002,8.24002 -13.86002,14.33002s-2.16998,12.51999 -2.84,18.84c-0.17001,1.54001 -1.19,3.60001 -3,3.22c-0.19,-2.47 -0.42001,-5 -1.94,-7.17001a7.15,7.15 0 0 0 -7.53,-2.73999a3.66,3.66 0 0 1 -2.10999,-1.35001a11.59,11.59 0 0 1 0,2.76001a15.36,15.36 0 0 0 -0.46002,3.41a3.27,3.27 0 0 0 2.61002,2.57001a7.15,7.15 0 0 1 7.53,2.75c1.51999,2.12997 1.75,4.69998 1.94,7.16c1.81,0.37997 2.82999,-1.67001 3,-3.22c0.66998,-6.31003 0.72,-12.74002 2.84,-18.84003s6.75,-12 13.85999,-14.32999a16.08,16.08 0 0 1 7.57001,-0.72c1.51001,0.25 2.92999,0.78 4.42999,1c5.20001,0.86002 10.85001,-1.60001 15.72,0.11002c3.06,1.07999 5,3.56998 6.42999,6.06a13.08,13.08 0 0 0 2.5,3.62997c2.07001,1.86002 5.31,2.34003 8.28003,2.92001s6,1.51999 7.33002,3.64001c-0.05005,-0.15002 -0.00006,-0.30002 0.02997,-0.45001z"/>
   <path id="svg_111" d="m417.42999,351.60999a19,19 0 0 0 -0.33002,-5.57001a24.82,24.82 0 0 0 -0.18997,5.84c0,0.5 0.10999,1 0.17999,1.49002c0.11002,-0.59 0.26001,-1.16998 0.34,-1.76001z"/>
  </g>
  <rect id="svg_115" opacity="0.6" fill="#444053" height="2.67" width="240" y="468.62" x="349"/>
  <ellipse id="svg_118" fill="#33b57d" ry="11.44" rx="59.47" cy="758.54" cx="957.08"/>
  <ellipse id="svg_119" fill="#3f3d56" ry="9.06" rx="6.92" cy="753.68" cx="956.09"/>
  <ellipse id="svg_120" fill="#3f3d56" ry="9.06" rx="6.92" cy="742.6" cx="956.09"/>
  <ellipse id="svg_121" fill="#3f3d56" ry="9.06" rx="6.92" cy="731.53" cx="956.09"/>
  <ellipse id="svg_122" fill="#3f3d56" ry="9.06" rx="6.92" cy="720.45" cx="956.09"/>
  <ellipse id="svg_123" fill="#3f3d56" ry="9.06" rx="6.92" cy="709.37" cx="956.09"/>
  <ellipse id="svg_124" fill="#3f3d56" ry="9.06" rx="6.92" cy="698.29" cx="956.09"/>
  <ellipse id="svg_125" fill="#3f3d56" ry="9.06" rx="6.92" cy="687.21" cx="956.09"/>
  <path id="svg_126" fill="#33b57d" d="m982,611.41003a34.28,34.28 0 0 0 2.58002,-3.80005l-18.20001,-3l19.67999,0.14996a33.27,33.27 0 0 0 0.63,-26.27991l-26.38,13.70001l24.34003,-17.89001a33.17,33.17 0 1 0 -54.78003,37.12a33.85,33.85 0 0 0 -3.77997,6l23.62,12.27002l-25.17999,-8.45007a33.19,33.19 0 0 0 5.33997,31.14001a33.16,33.16 0 1 0 52.14001,0a33.18,33.18 0 0 0 0,-41l-0.01001,0.04004z"/>
  <path id="svg_127" opacity="0.1" d="m922.78003,631.91003a33,33 0 0 0 7.09003,20.5a33.16,33.16 0 1 0 52.13995,0c4.44,-5.63007 -59.22998,-24.22009 -59.22998,-20.5z"/>
  <ellipse id="svg_128" opacity="0.1" fill="#33b57d" ry="21" rx="99" cy="810.56" cx="290"/>
  <path id="svg_129" fill="url(#af868219-7e5b-405b-a411-f7ffae4abd96)" d="m323.14999,808.12006c-2,-0.73004 -4.14001,-0.61005 -6.23001,-0.84009a19.28,19.28 0 0 1 -11.45999,-5.56a21,21 0 0 1 -4.57999,-7c0.65997,0.24011 1.31998,0.49011 2,0.76007c-2,-4.66998 0.09998,-9.91003 1.93997,-14.63q4.68002,-12 8.85001,-24.13007c7,-20.48999 13,-41.79993 12.87,-63.59991c0,-7.88007 -1.44998,-15.33008 -1.72998,-23.20001c-0.21002,-5.83997 0.69,-11.67004 0.64999,-17.52002c0,-0.82001 0,-1.63 -0.06,-2.44995a15.53,15.53 0 0 0 5.26999,-12.66003a30.48,30.48 0 0 0 -0.53,-3.68005a59.68,59.68 0 0 0 -1.39999,-6.26001c-0.66,-2.16992 -1.56,-4.25 -2.32999,-6.37c-1.49002,-4.10992 -2.5,-8.38989 -3.77002,-12.56995a4.33,4.33 0 0 1 1.36002,0.36993a2.93,2.93 0 0 1 -0.64001,-1.30994a32.41,32.41 0 0 1 -1.19998,-8.16998l0.85001,-0.38a21.27,21.27 0 0 0 -0.41,-8.09009c0.47998,-4.28992 1.22998,-8.60999 1.69,-12.88c0.16998,-1.59998 0.10001,-3.60999 -1.37,-4c-0.30002,-2.28992 -0.42001,-4.60999 -0.54001,-6.91992q-0.63,-12.09009 -1.25,-24.17004c-0.42001,-8.09003 -0.84,-16.17004 -1,-24.27002c-0.11002,-5.14001 -0.17001,-10.45999 -1.39001,-15.37997a18.6,18.6 0 0 0 -0.70999,-7c-1.85999,-5.89001 -7.63998,-10.56 -13.5,-10.22998a26.86,26.86 0 0 0 -6.38998,-6.46002c1.16998,-2.62 2.56998,-5.31998 3.71997,-7.44c9.38,-3.04999 16.24002,-12.29999 16.24002,-23.29999a25.43,25.43 0 0 0 -2.75,-11.59a12.52,12.52 0 0 0 0.44,-1.35001a11.09,11.09 0 0 0 -0.45001,-6.48999a19,19 0 0 0 -1,-2.32001c-0.25998,-0.5 -0.53998,-1 -0.82999,-1.48001l-0.51001,-0.76999c-0.31,-0.47 -0.63,-0.92001 -1,-1.35999a33.1,33.1 0 0 0 -2.28,-2.74002a22.56,22.56 0 0 0 -3.28,-2.91998a14.46,14.46 0 0 0 -5.39999,-2.49002a16.46,16.46 0 0 0 -3.43002,-0.31c-0.68997,0 -1.38998,0 -2.07999,0.06c-1.39999,0.08002 -2.79001,0.18002 -4.17999,0.17001c-0.45999,0 -0.92999,0 -1.39001,-0.07001a50.63,50.63 0 0 1 -7.23999,-1.51001l-1.20001,-0.25c-0.41,-0.07999 -0.81,-0.14999 -1.22,-0.19998a22.89,22.89 0 0 0 -3.31,-0.20001l-1.10999,0a30.68,30.68 0 0 0 -3.31,0.34l-1.10001,0.17001a31.6,31.6 0 0 0 -8.04999,2.38998c-0.33002,0.15002 -0.67001,0.32001 -1,0.5l-0.20001,0.11002c-0.26999,0.13998 -0.54001,0.29001 -0.79999,0.45001l-0.15002,0.09l-0.84998,0.53998l-0.07001,0.05002c-7.94,5.34 -12.63,15.45999 -13.82001,25.5c-1.32999,11.26999 1,22.63 3.32999,33.72l2.10001,9.99997c0.09,0.45001 0.19,0.89001 0.28,1.34003a22,22 0 0 0 -6.59,9.14001c-2,5 -2.04999,10.40997 -1.88998,15.82999c0,1.09998 0.06,2.19995 0.16998,3.30005c-0.25,2.0799 -0.47,4.16998 -0.60999,6.2699c-0.63,9.70007 0.54999,19.45007 0.23999,29.1701c-0.23999,7.48999 -1.37,15 -0.82001,22.43994c0.48001,6.60004 2.25,13 4,19.37006l2.52002,9.0799a2.41,2.41 0 0 0 0.63,1.25006a1.9,1.9 0 0 0 1.40997,0.29004a85.12,85.12 0 0 0 -4.09998,11.47992a35.5,35.5 0 0 0 -1.48001,7.38c-0.32999,4.58008 0.73001,9.13007 1.79001,13.58008q2.39999,10 4.78,20.0799q1.67999,7.05011 3.35001,14.09009c2.19998,9.26001 4.41,18.57996 4.82001,28.10999a61.05,61.05 0 0 1 -1,14.28998a124.52,124.52 0 0 0 -1.24002,42.83002a210,210 0 0 0 8.09,35.41003c0.81,-0.42999 1.63,-0.83008 2.47,-1.20007l-0.34998,0.65002q-1.73001,3 -3.20001,6.15002a35,35 0 0 0 -1.70999,4.21002c-1.28,4 -1.48001,8.26001 -1.66,12.46991a6.1,6.1 0 0 0 0.20999,2.41003c0.54999,1.51001 2.13,2.27997 3.60001,2.69995c4.32001,1.2301 8.81,0.79004 13.29999,0.21008a1.61,1.61 0 0 0 0.09,0.28998c0.55002,1.50995 2.12003,2.27997 3.60001,2.70001c6.17999,1.75995 12.70001,0.09998 19.07001,-0.5s12.63,-0.15997 18.76001,-1.63a8.93,8.93 0 0 0 2.59998,-1a8.51,8.51 0 0 0 3.28,-4.54999a5.83,5.83 0 0 0 0.38,-1.49005c0.25,-2.19 -1.62,-4.11993 -3.60001,-4.84991zm-21.14999,-92.61011a25.2,25.2 0 0 1 -2,6.78009a129.39999,129.39999 0 0 0 -10.26001,32.16998a149.14999,149.14999 0 0 0 -2.26999,22.24994c-0.10001,5.5 0.10999,11.26001 -2.17999,16.20007l0.82999,-0.13007c-0.26001,0.48004 -0.51001,1 -0.75,1.38l-0.12,0.22003a21.68,21.68 0 0 1 -2.73001,-7.66003c0,-0.09003 -0.44998,-0.16003 -1.13998,-0.20001a206.92999,206.92999 0 0 1 -2.92001,-47.89001a22.17,22.17 0 0 1 0.80002,-5.75c0.50998,-1.60999 1.37,-3.08002 2,-4.63995a34.09,34.09 0 0 0 2,-8.14001a115.64,115.64 0 0 0 1.25998,-21.52002c-0.23999,-6.78998 1.33002,-13.53992 2.67001,-20.29999c0.63998,-3.21002 1.23001,-6.42993 1.54999,-9.65002l0.06,-0.64996a96.87,96.87 0 0 1 12.28,31.88a45.6,45.6 0 0 1 0.92001,15.64996zm-42.79999,-144.51996l0.31998,0.27997a22,22 0 0 1 2.66,2.79004a3.69,3.69 0 0 1 0.84,1.54004c0.30002,1.45996 -0.91,2.69995 -1.89999,3.76996a17,17 0 0 0 -1.20999,1.45996q-0.32001,-4.91992 -0.67999,-9.8399l-0.03,-0.00006z"/>
  <path id="svg_130" fill="#33b57d" d="m245.35999,508.31003l-1.10001,8.49002c-0.37,2.88 -0.73999,5.75 -0.94,8.64001c-0.66998,9.62 0.57001,19.27991 0.25,28.91998c-0.25998,7.41992 -1.43997,14.82996 -0.87,22.23999c0.51001,6.53998 2.37,12.89996 4.23001,19.20001l2.63998,9a2.38,2.38 0 0 0 0.66,1.23999a2.33,2.33 0 0 0 1.69,0.26996l11.72,-1.06c-0.75,-3.43994 -1.57999,-7 -2,-10.53003c-0.32001,-2.75989 -0.50998,-5.53992 -0.70999,-8.31995c-0.62,-8.65997 -1.33002,-17.31995 -2,-26l-1.25,-15.20001c-0.53,-6.59998 -1.08002,-13.23004 -2.73999,-19.63995a39.09,39.09 0 0 0 -9.58002,-17.25003z"/>
  <path id="svg_131" opacity="0.1" d="m245.35999,508.31003l-1.10001,8.49002c-0.37,2.88 -0.73999,5.75 -0.94,8.64001c-0.66998,9.62 0.57001,19.27991 0.25,28.91998c-0.25998,7.41992 -1.43997,14.82996 -0.87,22.23999c0.51001,6.53998 2.37,12.89996 4.23001,19.20001l2.63998,9a2.38,2.38 0 0 0 0.66,1.23999a2.33,2.33 0 0 0 1.69,0.26996l11.72,-1.06c-0.75,-3.43994 -1.57999,-7 -2,-10.53003c-0.32001,-2.75989 -0.50998,-5.53992 -0.70999,-8.31995c-0.62,-8.65997 -1.33002,-17.31995 -2,-26l-1.25,-15.20001c-0.53,-6.59998 -1.08002,-13.23004 -2.73999,-19.63995a39.09,39.09 0 0 0 -9.58002,-17.25003z"/>
  <path id="svg_132" fill="#a26565" d="m266.23999,797.32996a35.81,35.81 0 0 0 -1.79999,4.17999c-1.34003,3.95007 -1.54001,8.19 -1.74002,12.36005a6,6 0 0 0 0.22,2.39001c0.58002,1.49994 2.24002,2.25995 3.79001,2.66998c6.48999,1.75 13.32999,0.11005 20,-0.48999s13.26001,-0.16003 19.70001,-1.61005a10.06,10.06 0 0 0 2.72998,-0.95001a8.51,8.51 0 0 0 3.45001,-4.49994a5.88,5.88 0 0 0 0.38998,-1.48004c0.21002,-2.20001 -1.69998,-4.09991 -3.78,-4.82001s-4.35001,-0.60992 -6.53998,-0.82996a20.6,20.6 0 0 1 -18.24002,-17.20996c-0.07999,-0.4801 -10.84,-0.19 -12,0.42999c-1.32001,0.72992 -2.12,2.53998 -2.87,3.76996q-1.76999,2.96997 -3.31,6.08997z"/>
  <path id="svg_133" opacity="0.1" d="m266.23999,797.32996a35.81,35.81 0 0 0 -1.79999,4.17999c-1.34003,3.95007 -1.54001,8.19 -1.74002,12.36005a6,6 0 0 0 0.22,2.39001c0.58002,1.49994 2.24002,2.25995 3.79001,2.66998c6.48999,1.75 13.32999,0.11005 20,-0.48999s13.26001,-0.16003 19.70001,-1.61005a10.06,10.06 0 0 0 2.72998,-0.95001a8.51,8.51 0 0 0 3.45001,-4.49994a5.88,5.88 0 0 0 0.38998,-1.48004c0.21002,-2.20001 -1.69998,-4.09991 -3.78,-4.82001s-4.35001,-0.60992 -6.53998,-0.82996a20.6,20.6 0 0 1 -18.24002,-17.20996c-0.07999,-0.4801 -10.84,-0.19 -12,0.42999c-1.32001,0.72992 -2.12,2.53998 -2.87,3.76996q-1.76999,2.96997 -3.31,6.08997z"/>
  <path id="svg_134" fill="#a26565" d="m284.09,800.50995a34,34 0 0 0 -1.79999,4.17004c-1.35001,4 -1.55002,8.19 -1.74002,12.36005a5.83,5.83 0 0 0 0.22,2.38989c0.57001,1.50006 2.23001,2.26001 3.78,2.68005c6.49002,1.74005 13.34003,0.09998 20,-0.5s13.27002,-0.16003 19.70001,-1.60999a9.62,9.62 0 0 0 2.73001,-1a8.47,8.47 0 0 0 3.44998,-4.5a5.88,5.88 0 0 0 0.39001,-1.47998c0.20999,-2.19006 -1.70001,-4.10004 -3.78,-4.82007s-4.35001,-0.59991 -6.54001,-0.82996a20.61,20.61 0 0 1 -18.23999,-17.20007c-0.08002,-0.47998 -10.84,-0.19995 -12,0.42004c-1.33002,0.72998 -2.13,2.54004 -2.88,3.77002c-1.14001,2.03003 -2.26001,4.07007 -3.29001,6.14996z"/>
  <path id="svg_135" fill="#454b69" d="m330.62,694.27997c0.14001,21.61005 -6.13998,42.73004 -13.51001,63q-4.38,12.06 -9.29001,23.90997c-1.93997,4.68011 -4.12997,9.88 -2.04999,14.5c-6,-2.27991 -12.10001,-3.62 -18.41,-2.56989c2.40002,-4.90009 2.17001,-10.6001 2.28003,-16a140.3,140.3 0 0 1 2.35999,-22.05011a123,123 0 0 1 10.79001,-31.88995a24.3,24.3 0 0 0 2.09,-6.71997c0.82001,-5.14008 0.17999,-10.41998 -0.89001,-15.51007a92.47,92.47 0 0 0 -12.89999,-31.59998l-0.06,0.64001a93.27,93.27 0 0 1 -1.62,9.56995c-1.41,6.69006 -3.06,13.39001 -2.81,20.12006a108.83,108.83 0 0 1 -1.32001,21.33002a32.43,32.43 0 0 1 -2.14999,8.05994c-0.69,1.55005 -1.59,3 -2.13,4.61005a21,21 0 0 0 -0.84,5.70001c-0.80002,16.27002 0,32.78992 3.32001,48.73999c-5.57001,-0.44 -11.14001,1.17004 -16.12003,3.66998a198.53999,198.53999 0 0 1 -8.5,-35.10004a116.62,116.62 0 0 1 1.30002,-42.46002a56.42,56.42 0 0 0 1.04999,-14.14996c-0.42999,-9.45001 -2.75,-18.68994 -5.06,-27.87l-3.51999,-14q-2.5,-10 -5,-19.90997c-1.11002,-4.40997 -2.23001,-8.91998 -1.88,-13.45996a33.4,33.4 0 0 1 1.56,-7.32007a81.69,81.69 0 0 1 11.07001,-22.64001c19.26999,1.08008 38.76999,-0.71997 58,-2.19995a3.89,3.89 0 0 1 2.72,0.46002a3.85,3.85 0 0 1 1.10001,2.47998l7.22998,41a103,103 0 0 1 2.05002,17.29999c0,5.79999 -0.90002,11.58002 -0.68002,17.37006c0.30002,7.79999 1.78,15.17999 1.82001,22.98993z"/>
  <path id="svg_136" opacity="0.1" d="m291.04999,669.99005a93.27,93.27 0 0 1 -1.62,9.57001c-4.19,-7.25006 -8.70999,-14.32007 -12.57001,-21.75c-1,-1.9101 -1.94,-3.85004 -2.88998,-5.79004l-2.85001,-5.80005c-0.53,-1.08997 -1.06,-2.17993 -1.54001,-3.28992a23.77,23.77 0 0 1 -1.79001,-5c1.40002,-0.26001 4.86002,3.52002 5.90002,4.51001a80.64,80.64 0 0 1 6,6.64001a72.81,72.81 0 0 1 6.25998,8.19989a39.88,39.88 0 0 1 5.10001,12.71008z"/>
  <path id="svg_137" fill="#efb7b9" d="m307.10001,471.07999s-10.69998,17.04999 -8.72,20.62s-33.69998,-3.16998 -33.69998,-3.16998s19.42999,-17.05002 17.43997,-24.19s24.98001,6.73999 24.98001,6.73999z"/>
  <circle id="svg_138" fill="#efb7b9" r="24.19" cy="452.05" cx="297.59"/>
  <path id="svg_139" fill="#33b57d" d="m307.45999,488.95999a24.56,24.56 0 0 0 -10.16998,-8.17999a36.38,36.38 0 0 0 -7.23001,-1.78003l-9.64999,-1.69998c-2.35999,-0.41998 -4.88998,-0.81 -7.09,0.16a11.62,11.62 0 0 0 -3,2.21002c-3.35001,3.10999 -6.60001,6.51996 -10.81,8.32001c-1.14999,0.48999 -2.35001,0.84998 -3.5,1.33997c-4.70999,2 -8.23001,6.26001 -10.22,11c-2.10001,4.94 -2.16,10.31 -2,15.68002a27.56,27.56 0 0 0 0.54999,5.51996a35.57,35.57 0 0 0 1.83002,5.06a92.57,92.57 0 0 1 3.34,10.72998q3.75,14.3501 6.23999,29a10.87,10.87 0 0 0 1.21002,4a14.36,14.36 0 0 0 3.34,3.21002a20.86,20.86 0 0 1 2.78998,2.77008a3.62,3.62 0 0 1 0.91,1.47992c0.31,1.44 -1,2.68005 -2,3.72998a18.06,18.06 0 0 0 -4.51999,7.87006a3.17,3.17 0 0 0 -0.72,2.17004a3.8,3.8 0 0 1 0.22998,1.71991a3.88,3.88 0 0 1 -0.91,1.4101a5.33,5.33 0 0 0 -1,4.27997a67.89,67.89 0 0 0 23.68002,5.53998c2,0.10004 4,0.10004 6,0.34003c1.41998,0.17999 2.81998,0.46997 4.23999,0.64001a45.78,45.78 0 0 0 6.20001,0.15997c10.76999,-0.21997 21.84998,-0.48999 31.73999,-4.76007c0.92999,-5.06989 -1.08002,-10.23993 -2.34,-15.23993c-2,-8 -2.5,-16.19006 -4,-24.26001c-1,-5.50995 -2.5,-10.94 -3.35001,-16.48999s-1,-11.30005 0.48001,-16.70007c1.34998,-4.77991 1.75998,-9.65997 3.16,-14.42999s2.37997,-9.93997 0.79999,-14.65994c-2,-5.84003 -8.07001,-10.47003 -14.23001,-10.14001z"/>
  <path id="svg_140" fill="#a26565" d="m319.34,439.22c1.17999,-4.29001 -1.13998,-8.76001 -3.89999,-12.25c-3,-3.75 -6.82001,-7.13 -11.51001,-8.07001c-3.81,-0.76999 -7.75998,0.16 -11.63998,-0.14999c-3.43002,-0.26999 -6.73001,-1.51001 -10.14001,-2a32.12,32.12 0 0 0 -9.28,0.35001a35.25,35.25 0 0 0 -8.44998,2.35999c-10.30002,4.57001 -16.33002,15.83002 -17.73001,27s1.04999,22.42999 3.48999,33.41998l2.21002,9.94c2.29999,10.35004 4.59998,20.74005 5.20999,31.32004s-0.53,21.43994 -4.88,31.09998a66.89,66.89 0 0 0 30.73001,-34.79004c1.56,-4.0899 2.72,-8.33994 4.45999,-12.35995c1.48999,-3.46002 3.39999,-6.73999 4.72,-10.27002a33.36,33.36 0 0 0 2.10999,-12.46997c-0.07999,-3.20001 -0.60999,-6.38 -0.51999,-9.58002s0.91,-6.53 3.12,-8.84998c2,-2.05002 4.75,-3 7.28,-4.33002a30.31,30.31 0 0 0 10.19,-8.5c1.59,-2.07999 1.67999,-3 2.08002,-5.35999s1.82999,-4.24002 2.44998,-6.51001z"/>
  <path id="svg_141" fill="#efb7b9" d="m319.37,620.93005c0.25,2.48999 -0.19998,5 0.34,7.46997c0.41,1.83997 1.36002,3.49994 1.92001,5.30005a25.2,25.2 0 0 1 0.85001,6.37c0.07999,1.79999 -0.06,4 -1.66,4.83997c-0.70001,0.36993 -1.54001,0.36993 -2.27002,0.69s-1.34998,1.18994 -0.92999,1.87s1.14001,0.57001 1.80002,0.70001s1.37,0.80994 1,1.35992a1.14,1.14 0 0 1 -0.58002,0.37a7.08,7.08 0 0 0 -1.88,0.90009a1.92,1.92 0 0 0 -0.76999,1.82996a1.13,1.13 0 0 0 1.60999,0.73999a5,5 0 0 0 -0.47,2c2.56003,1.10004 5.42999,-0.33997 7.83002,-1.72992a29.49,29.49 0 0 0 3,-1.9201a15,15 0 0 0 5.84,-12.77002a29.79,29.79 0 0 0 -0.57001,-3.64996a54.92,54.92 0 0 0 -1.47,-6.20996c-0.69,-2.15009 -1.63,-4.20001 -2.44,-6.31006c-1.72,-4.48993 -2.82999,-9.19 -4.38998,-13.73993a2.08,2.08 0 0 0 -0.75,-1.19a2.11,2.11 0 0 0 -1.11002,-0.21002a18.19,18.19 0 0 0 -5.20999,0.47998c-1,0.29993 -2.70999,1 -3.17999,2s0.28,1.84003 0.72998,2.66998a22.38,22.38 0 0 1 2.76001,8.14008z"/>
  <path id="svg_142" opacity="0.1" d="m317.73999,499.42001a7.33,7.33 0 0 1 1.28,1.77997c3.44,6.25 3.48001,13.72006 3.64001,20.85007c0.17999,8 0.62,16 1.06,24.04993l1.31,24c0.13,2.29004 0.25,4.58008 0.57999,6.84998c1.54001,0.39001 1.60001,2.39001 1.42999,4c-1.10999,9.78003 -3.85999,19.8501 -1,29.26001a2.94,2.94 0 0 0 0.67001,1.29999a7.81,7.81 0 0 0 -4.47,-0.06c-1.42999,0.30005 -2.81,0.83002 -4.25,1.16003c-1.82001,0.41003 -3.88,0.58997 -5.12,2a99.24,99.24 0 0 1 -3.35001,-12.91992c-0.67999,-4 -0.87,-8.12006 -2.48999,-11.82001c-0.64999,-1.48999 -1.53,-2.87 -2.33002,-4.30005c-4.19,-7.47998 -6.25,-15.92999 -8.25998,-24.26996a35.43,35.43 0 0 1 -0.64001,-12.06006a41.47,41.47 0 0 0 0.5,-5.54993a42.64,42.64 0 0 0 -0.76999,-5.84003a39.15,39.15 0 0 1 1.16998,-16.90997c1.5,-5.09003 2.82001,-10.45004 6,-14.73007s9.73001,-6.71997 15.04001,-6.78998z"/>
  <path id="svg_143" fill="#33b57d" d="m318.92999,498.62003a7.39,7.39 0 0 1 1.28,1.78998c3.44,6.24005 3.48001,13.72 3.63998,20.85001c0.18002,8 0.62003,16 1.06003,24l1.31,24c0.12997,2.29004 0.25,4.58008 0.57999,6.84998c1.54001,0.39001 1.60001,2.39001 1.42001,4c-1.10001,9.78003 -3.85001,19.84009 -1,29.26001a2.94,2.94 0 0 0 0.66998,1.30005a7.81,7.81 0 0 0 -4.47,-0.06006c-1.42999,0.30005 -2.81,0.83008 -4.25,1.15002c-1.82001,0.42004 -3.88,0.58997 -5.12,2a98.21,98.21 0 0 1 -3.31998,-12.98004c-0.67999,-4 -0.87,-8.10992 -2.48999,-11.81a48.28,48.28 0 0 0 -2.33002,-4.29993c-4.19998,-7.4801 -6.25,-15.94006 -8.25998,-24.28003a35.42,35.42 0 0 1 -0.64001,-12.06006a26,26 0 0 0 -0.26999,-11.39001a39.1,39.1 0 0 1 1.16998,-16.8999c1.5,-5.09009 2.82001,-10.45004 6,-14.73001s9.70999,-6.61005 15.01999,-6.69z"/>
  <g id="svg_144" opacity="0.1">
   <path id="svg_145" d="m315.44,426.97c-3,-3.75 -6.82001,-7.13 -11.51001,-8.07001c-3.81,-0.76999 -7.75998,0.16 -11.63998,-0.14999c-3.43002,-0.26999 -6.73001,-1.51001 -10.14001,-2a32.12,32.12 0 0 0 -9.28,0.35001a35.25,35.25 0 0 0 -8.44998,2.35999a25.09,25.09 0 0 0 -4.17001,2.37a35.56,35.56 0 0 1 7.47,-2a32,32 0 0 1 9.26999,-0.34998c3.42001,0.44 6.71002,1.66998 10.15002,1.94c3.87,0.31 7.81998,-0.61002 11.63998,0.14999c4.69,0.94 8.53,4.32999 11.5,8.07999c2.76999,3.48001 5.07999,7.95001 3.91,12.25c-0.62,2.26001 -2.06,4.23999 -2.45001,6.57001s-0.48999,3.28 -2.09,5.35999a30.38,30.38 0 0 1 -7.34,6.83002c0.76999,-0.36002 1.56,-0.72 2.31,-1.11002a30.31,30.31 0 0 0 10.19,-8.5c1.59,-2.07999 1.67999,-3 2.08002,-5.35999s1.82999,-4.30002 2.44998,-6.57001c1.17999,-4.19 -1.13998,-8.66 -3.89999,-12.14999z"/>
   <path id="svg_146" d="m297.34,463.98001a10,10 0 0 1 1.35001,-1.17001c-2.31,1.12003 -4.73999,2.10001 -6.51001,4c-2.20999,2.31 -3,5.65002 -3.12,8.85001s0.45001,6.38 0.51999,9.57001a33.41,33.41 0 0 1 -2.10999,12.47998c-1.32001,3.53003 -3.23001,6.79999 -4.72,10.27002c-1.73001,4 -2.89001,8.25998 -4.45001,12.34995a67,67 0 0 1 -25.40997,31.62c-0.06003,0.13 -0.11002,0.27002 -0.17001,0.40002a66.89,66.89 0 0 0 30.73001,-34.78992c1.56,-4.09003 2.72,-8.34006 4.45999,-12.36008c1.48999,-3.45996 3.39999,-6.73999 4.72,-10.26996a33.36,33.36 0 0 0 2.10999,-12.47003c-0.07999,-3.20001 -0.60999,-6.37997 -0.51999,-9.57999s0.91,-6.58002 3.12,-8.89999z"/>
  </g>
 </g>
</svg>