<svg xmlns="http://www.w3.org/2000/svg" xmlns:xlink="http://www.w3.org/1999/xlink" width="600" zoomAndPan="magnify" viewBox="0 0 450 149.999998" height="200" preserveAspectRatio="xMidYMid meet" version="1.0"><defs><g><g id="id1"/><g id="id2"/></g></defs><g fill="rgb(0.779724%, 12.939453%, 47.44873%)" fill-opacity="1"><g transform="translate(95.696065, 68.286034)"><g><path d="M 18.421875 -38.46875 C 24.109375 -38.46875 29.109375 -37.054688 33.421875 -34.234375 L 29.78125 -26.6875 C 27.789062 -27.84375 25.648438 -28.789062 23.359375 -29.53125 C 21.078125 -30.28125 19.160156 -30.65625 17.609375 -30.65625 C 14.816406 -30.65625 13.421875 -29.726562 13.421875 -27.875 C 13.421875 -26.675781 14.109375 -25.710938 15.484375 -24.984375 C 16.859375 -24.265625 18.53125 -23.640625 20.5 -23.109375 C 22.476562 -22.585938 24.457031 -21.957031 26.4375 -21.21875 C 28.414062 -20.476562 30.09375 -19.273438 31.46875 -17.609375 C 32.84375 -15.941406 33.53125 -13.835938 33.53125 -11.296875 C 33.53125 -7.640625 32.097656 -4.785156 29.234375 -2.734375 C 26.367188 -0.691406 22.726562 0.328125 18.3125 0.328125 C 15.15625 0.328125 12.035156 -0.210938 8.953125 -1.296875 C 5.878906 -2.390625 3.203125 -3.878906 0.921875 -5.765625 L 4.671875 -13.203125 C 6.585938 -11.535156 8.847656 -10.164062 11.453125 -9.09375 C 14.066406 -8.03125 16.390625 -7.5 18.421875 -7.5 C 19.984375 -7.5 21.195312 -7.78125 22.0625 -8.34375 C 22.9375 -8.90625 23.375 -9.726562 23.375 -10.8125 C 23.375 -11.863281 22.875 -12.742188 21.875 -13.453125 C 20.875 -14.160156 19.628906 -14.6875 18.140625 -15.03125 C 16.660156 -15.375 15.050781 -15.832031 13.3125 -16.40625 C 11.570312 -16.988281 9.957031 -17.625 8.46875 -18.3125 C 6.988281 -19 5.75 -20.09375 4.75 -21.59375 C 3.757812 -23.101562 3.265625 -24.910156 3.265625 -27.015625 C 3.265625 -30.484375 4.648438 -33.257812 7.421875 -35.34375 C 10.191406 -37.425781 13.859375 -38.46875 18.421875 -38.46875 Z M 18.421875 -38.46875 "/></g></g></g><g fill="rgb(0.779724%, 12.939453%, 47.44873%)" fill-opacity="1"><g transform="translate(133.462684, 68.286034)"><g><path d="M 29.078125 -7.015625 L 12.4375 -7.015625 L 9.671875 0 L -0.265625 0 L 16.140625 -38.046875 L 26.078125 -38.046875 L 42.109375 0 L 31.796875 0 Z M 26.25 -14.34375 L 20.8125 -28.421875 L 15.265625 -14.34375 Z M 26.25 -14.34375 "/></g></g></g><g fill="rgb(0.779724%, 12.939453%, 47.44873%)" fill-opacity="1"><g transform="translate(178.07612, 68.286034)"><g><path d="M 38.90625 0 L 30.375 0 L 12.875 -23.421875 L 12.875 0 L 3.796875 0 L 3.796875 -38.046875 L 12.34375 -38.046875 L 29.890625 -14.5625 L 29.890625 -38.046875 L 38.90625 -38.046875 Z M 38.90625 0 "/></g></g></g><g fill="rgb(0.779724%, 12.939453%, 47.44873%)" fill-opacity="1"><g transform="translate(223.558984, 68.286034)"><g><path d="M 21.625 -38.359375 C 24.457031 -38.359375 27.238281 -37.78125 29.96875 -36.625 C 32.707031 -35.46875 35.035156 -33.910156 36.953125 -31.953125 L 31.359375 -25.328125 C 30.128906 -26.847656 28.648438 -28.050781 26.921875 -28.9375 C 25.203125 -29.820312 23.492188 -30.265625 21.796875 -30.265625 C 18.785156 -30.265625 16.265625 -29.203125 14.234375 -27.078125 C 12.203125 -24.960938 11.1875 -22.347656 11.1875 -19.234375 C 11.1875 -16.046875 12.203125 -13.382812 14.234375 -11.25 C 16.265625 -9.113281 18.785156 -8.046875 21.796875 -8.046875 C 23.390625 -8.046875 25.046875 -8.441406 26.765625 -9.234375 C 28.484375 -10.035156 30.015625 -11.125 31.359375 -12.5 L 37.015625 -6.515625 C 34.941406 -4.421875 32.5 -2.738281 29.6875 -1.46875 C 26.882812 -0.195312 24.085938 0.4375 21.296875 0.4375 C 15.578125 0.4375 10.8125 -1.425781 7 -5.15625 C 3.195312 -8.894531 1.296875 -13.550781 1.296875 -19.125 C 1.296875 -24.59375 3.234375 -29.164062 7.109375 -32.84375 C 10.992188 -36.519531 15.832031 -38.359375 21.625 -38.359375 Z M 21.625 -38.359375 "/></g></g></g><g fill="rgb(0.779724%, 12.939453%, 47.44873%)" fill-opacity="1"><g transform="translate(263.93392, 68.286034)"><g><path d="M 32.875 -30.265625 L 21.40625 -30.265625 L 21.40625 0 L 11.734375 0 L 11.734375 -30.265625 L 0.375 -30.265625 L 0.375 -38.09375 L 32.875 -38.09375 Z M 32.875 -30.265625 "/></g></g></g><g fill="rgb(0.779724%, 12.939453%, 47.44873%)" fill-opacity="1"><g transform="translate(299.907334, 68.286034)"><g><path d="M 13.484375 0 L 3.796875 0 L 3.796875 -38.046875 L 13.484375 -38.046875 Z M 13.484375 0 "/></g></g></g><g fill="rgb(0.779724%, 12.939453%, 47.44873%)" fill-opacity="1"><g transform="translate(319.959189, 68.286034)"><g><path d="M 21.84375 -38.359375 C 27.75 -38.359375 32.65625 -36.519531 36.5625 -32.84375 C 40.476562 -29.164062 42.4375 -24.578125 42.4375 -19.078125 C 42.4375 -13.535156 40.472656 -8.894531 36.546875 -5.15625 C 32.617188 -1.425781 27.71875 0.4375 21.84375 0.4375 C 15.976562 0.4375 11.085938 -1.414062 7.171875 -5.125 C 3.253906 -8.84375 1.296875 -13.492188 1.296875 -19.078125 C 1.296875 -24.617188 3.253906 -29.21875 7.171875 -32.875 C 11.085938 -36.53125 15.976562 -38.359375 21.84375 -38.359375 Z M 21.953125 -30.265625 C 18.984375 -30.265625 16.445312 -29.1875 14.34375 -27.03125 C 12.238281 -24.875 11.1875 -22.203125 11.1875 -19.015625 C 11.1875 -15.828125 12.242188 -13.132812 14.359375 -10.9375 C 16.484375 -8.75 19.015625 -7.65625 21.953125 -7.65625 C 24.890625 -7.65625 27.378906 -8.75 29.421875 -10.9375 C 31.472656 -13.132812 32.5 -15.828125 32.5 -19.015625 C 32.5 -22.203125 31.472656 -24.875 29.421875 -27.03125 C 27.378906 -29.1875 24.890625 -30.265625 21.953125 -30.265625 Z M 21.953125 -30.265625 "/></g></g></g><g fill="rgb(0.779724%, 12.939453%, 47.44873%)" fill-opacity="1"><g transform="translate(366.474499, 68.286034)"><g><path d="M 38.90625 0 L 30.375 0 L 12.875 -23.421875 L 12.875 0 L 3.796875 0 L 3.796875 -38.046875 L 12.34375 -38.046875 L 29.890625 -14.5625 L 29.890625 -38.046875 L 38.90625 -38.046875 Z M 38.90625 0 "/></g></g></g><g fill="rgb(0.779724%, 12.939453%, 47.44873%)" fill-opacity="1"><g transform="translate(411.957368, 68.286034)"><g><path d="M 18.421875 -38.46875 C 24.109375 -38.46875 29.109375 -37.054688 33.421875 -34.234375 L 29.78125 -26.6875 C 27.789062 -27.84375 25.648438 -28.789062 23.359375 -29.53125 C 21.078125 -30.28125 19.160156 -30.65625 17.609375 -30.65625 C 14.816406 -30.65625 13.421875 -29.726562 13.421875 -27.875 C 13.421875 -26.675781 14.109375 -25.710938 15.484375 -24.984375 C 16.859375 -24.265625 18.53125 -23.640625 20.5 -23.109375 C 22.476562 -22.585938 24.457031 -21.957031 26.4375 -21.21875 C 28.414062 -20.476562 30.09375 -19.273438 31.46875 -17.609375 C 32.84375 -15.941406 33.53125 -13.835938 33.53125 -11.296875 C 33.53125 -7.640625 32.097656 -4.785156 29.234375 -2.734375 C 26.367188 -0.691406 22.726562 0.328125 18.3125 0.328125 C 15.15625 0.328125 12.035156 -0.210938 8.953125 -1.296875 C 5.878906 -2.390625 3.203125 -3.878906 0.921875 -5.765625 L 4.671875 -13.203125 C 6.585938 -11.535156 8.847656 -10.164062 11.453125 -9.09375 C 14.066406 -8.03125 16.390625 -7.5 18.421875 -7.5 C 19.984375 -7.5 21.195312 -7.78125 22.0625 -8.34375 C 22.9375 -8.90625 23.375 -9.726562 23.375 -10.8125 C 23.375 -11.863281 22.875 -12.742188 21.875 -13.453125 C 20.875 -14.160156 19.628906 -14.6875 18.140625 -15.03125 C 16.660156 -15.375 15.050781 -15.832031 13.3125 -16.40625 C 11.570312 -16.988281 9.957031 -17.625 8.46875 -18.3125 C 6.988281 -19 5.75 -20.09375 4.75 -21.59375 C 3.757812 -23.101562 3.265625 -24.910156 3.265625 -27.015625 C 3.265625 -30.484375 4.648438 -33.257812 7.421875 -35.34375 C 10.191406 -37.425781 13.859375 -38.46875 18.421875 -38.46875 Z M 18.421875 -38.46875 "/></g></g></g><g fill="rgb(5.879211%, 64.709473%, 67.059326%)" fill-opacity="1"><g transform="translate(95.696065, 121.99907)"><g><path d="M 32.859375 0 L 27.3125 0 L 27.3125 -13.625 L 9.875 -13.625 L 9.875 0 L 4.328125 0 L 4.328125 -32.90625 L 9.875 -32.90625 L 9.875 -18.609375 L 27.3125 -18.609375 L 27.3125 -32.90625 L 32.859375 -32.90625 Z M 32.859375 0 "/></g></g></g><g fill="rgb(5.879211%, 64.709473%, 67.059326%)" fill-opacity="1"><g transform="translate(137.572208, 121.99907)"><g><path d="M 32.28125 -32.90625 L 32.28125 -13.625 C 32.28125 -9.332031 31.007812 -5.945312 28.46875 -3.46875 C 25.9375 -1 22.445312 0.234375 18 0.234375 C 13.550781 0.234375 10.050781 -1 7.5 -3.46875 C 4.945312 -5.945312 3.671875 -9.332031 3.671875 -13.625 L 3.671875 -32.90625 L 9.21875 -32.90625 L 9.21875 -13.625 C 9.21875 -10.875 10.003906 -8.707031 11.578125 -7.125 C 13.160156 -5.539062 15.316406 -4.75 18.046875 -4.75 C 20.742188 -4.75 22.867188 -5.53125 24.421875 -7.09375 C 25.972656 -8.664062 26.75 -10.84375 26.75 -13.625 L 26.75 -32.90625 Z M 32.28125 -32.90625 "/></g></g></g><g fill="rgb(5.879211%, 64.709473%, 67.059326%)" fill-opacity="1"><g transform="translate(178.179369, 121.99907)"><g><path d="M 4.328125 -32.90625 L 18.609375 -32.90625 C 22.023438 -32.90625 24.71875 -32.175781 26.6875 -30.71875 C 28.664062 -29.257812 29.65625 -27.242188 29.65625 -24.671875 C 29.65625 -22.828125 29.140625 -21.253906 28.109375 -19.953125 C 27.078125 -18.648438 25.664062 -17.78125 23.875 -17.34375 C 26.070312 -16.96875 27.796875 -16.039062 29.046875 -14.5625 C 30.296875 -13.09375 30.921875 -11.25 30.921875 -9.03125 C 30.921875 -6.207031 29.851562 -3.992188 27.71875 -2.390625 C 25.59375 -0.796875 22.664062 0 18.9375 0 L 4.328125 0 Z M 9.875 -27.96875 L 9.875 -19.265625 L 18.328125 -19.265625 C 20.085938 -19.265625 21.46875 -19.65625 22.46875 -20.4375 C 23.46875 -21.226562 23.96875 -22.3125 23.96875 -23.6875 C 23.96875 -25.0625 23.472656 -26.117188 22.484375 -26.859375 C 21.503906 -27.597656 20.117188 -27.96875 18.328125 -27.96875 Z M 9.875 -14.375 L 9.875 -4.9375 L 18.328125 -4.9375 C 20.523438 -4.9375 22.222656 -5.347656 23.421875 -6.171875 C 24.628906 -7.003906 25.234375 -8.191406 25.234375 -9.734375 C 25.234375 -11.171875 24.625 -12.300781 23.40625 -13.125 C 22.1875 -13.957031 20.492188 -14.375 18.328125 -14.375 Z M 9.875 -14.375 "/></g></g></g><path fill="rgb(0.779724%, 12.939453%, 47.44873%)" d="M 33.832031 46.21875 L 93.117188 80.449219 L 33.832031 114.679688 Z M 33.832031 46.21875 " fill-opacity="1" fill-rule="nonzero"/><path fill="rgb(5.879211%, 64.709473%, 67.059326%)" d="M 4.9375 46.21875 L 64.222656 80.449219 L 4.9375 114.679688 Z M 4.9375 46.21875 " fill-opacity="1" fill-rule="nonzero"/></svg>