<svg width="6020" height="538" viewBox="0 0 6020 538" fill="none" xmlns="http://www.w3.org/2000/svg">
<circle cx="250" cy="250" r="250" fill="url(#paint0_linear_454_17)"/>
<circle cx="3010" cy="256" r="250" fill="url(#paint1_linear_454_17)"/>
<circle cx="5770" cy="288" r="250" fill="url(#paint2_linear_454_17)"/>
<path d="M295.374 128.455V383H241.557V179.538H240.065L181.773 216.079V168.352L244.788 128.455H295.374Z" fill="white"/>
<path d="M2919.63 377V338.222L3010.24 254.326C3017.95 246.869 3024.41 240.157 3029.63 234.191C3034.93 228.225 3038.95 222.384 3041.68 216.666C3044.42 210.866 3045.79 204.61 3045.79 197.898C3045.79 190.441 3044.09 184.019 3040.69 178.634C3037.29 173.165 3032.65 168.98 3026.77 166.08C3020.89 163.097 3014.22 161.606 3006.76 161.606C2998.97 161.606 2992.18 163.18 2986.38 166.329C2980.58 169.478 2976.1 173.993 2972.95 179.876C2969.8 185.759 2968.23 192.761 2968.23 200.881H2917.15C2917.15 184.227 2920.92 169.768 2928.46 157.504C2936 145.241 2946.56 135.754 2960.15 129.042C2973.74 122.33 2989.4 118.974 3007.13 118.974C3025.36 118.974 3041.23 122.206 3054.74 128.669C3068.32 135.049 3078.89 143.915 3086.43 155.267C3093.97 166.619 3097.74 179.628 3097.74 194.294C3097.74 203.906 3095.83 213.393 3092.02 222.756C3088.29 232.12 3081.62 242.518 3072.01 253.953C3062.4 265.305 3048.85 278.935 3031.37 294.844L2994.21 331.261V333.001H3101.1V377H2919.63Z" fill="white"/>
<path d="M5769.72 407.48C5751.16 407.48 5734.63 404.29 5720.13 397.91C5705.71 391.447 5694.32 382.581 5685.95 371.312C5677.66 359.96 5673.39 346.868 5673.15 332.036H5727.34C5727.67 338.251 5729.7 343.719 5733.43 348.442C5737.24 353.083 5742.29 356.687 5748.59 359.256C5754.89 361.824 5761.97 363.109 5769.84 363.109C5778.05 363.109 5785.3 361.659 5791.59 358.759C5797.89 355.858 5802.82 351.84 5806.38 346.702C5809.95 341.565 5811.73 335.641 5811.73 328.929C5811.73 322.134 5809.82 316.127 5806.01 310.907C5802.28 305.604 5796.9 301.461 5789.85 298.478C5782.89 295.495 5774.61 294.004 5765 294.004H5741.26V254.479H5765C5773.12 254.479 5780.28 253.071 5786.5 250.254C5792.8 247.436 5797.68 243.542 5801.16 238.57C5804.64 233.516 5806.38 227.633 5806.38 220.921C5806.38 214.541 5804.85 208.948 5801.79 204.142C5798.8 199.253 5794.58 195.442 5789.11 192.707C5783.72 189.973 5777.43 188.606 5770.22 188.606C5762.92 188.606 5756.25 189.932 5750.21 192.583C5744.16 195.152 5739.31 198.839 5735.66 203.645C5732.02 208.451 5730.07 214.085 5729.82 220.548H5678.24C5678.49 205.882 5682.68 192.956 5690.8 181.77C5698.92 170.584 5709.85 161.842 5723.61 155.545C5737.45 149.165 5753.06 145.974 5770.47 145.974C5788.03 145.974 5803.4 149.165 5816.58 155.545C5829.75 161.925 5839.98 170.542 5847.28 181.397C5854.65 192.169 5858.3 204.266 5858.21 217.69C5858.3 231.942 5853.86 243.832 5844.91 253.361C5836.05 262.89 5824.49 268.938 5810.24 271.507V273.496C5828.96 275.899 5843.22 282.403 5852.99 293.009C5862.85 303.532 5867.74 316.707 5867.66 332.533C5867.74 347.034 5863.56 359.919 5855.11 371.188C5846.74 382.456 5835.18 391.322 5820.43 397.786C5805.68 404.249 5788.78 407.48 5769.72 407.48Z" fill="white"/>
<rect x="730" y="222" width="1800" height="55" fill="url(#paint3_linear_454_17)"/>
<rect x="3490" y="222" width="1800" height="55" fill="url(#paint4_linear_454_17)"/>
<defs>
<linearGradient id="paint0_linear_454_17" x1="7.33948e-06" y1="316" x2="250" y2="500" gradientUnits="userSpaceOnUse">
<stop stop-color="#23BDB8"/>
<stop offset="1" stop-color="#43E794"/>
</linearGradient>
<linearGradient id="paint1_linear_454_17" x1="2760" y1="322" x2="3010" y2="506" gradientUnits="userSpaceOnUse">
<stop stop-color="#23BDB8"/>
<stop offset="1" stop-color="#43E794"/>
</linearGradient>
<linearGradient id="paint2_linear_454_17" x1="5520" y1="354" x2="5770" y2="538" gradientUnits="userSpaceOnUse">
<stop stop-color="#23BDB8"/>
<stop offset="1" stop-color="#43E794"/>
</linearGradient>
<linearGradient id="paint3_linear_454_17" x1="2530" y1="277.001" x2="730" y2="276.999" gradientUnits="userSpaceOnUse">
<stop stop-color="#23BDB8"/>
<stop offset="0.723958" stop-color="#43E794"/>
</linearGradient>
<linearGradient id="paint4_linear_454_17" x1="5290" y1="222" x2="3490" y2="222.001" gradientUnits="userSpaceOnUse">
<stop stop-color="#23BDB8"/>
<stop offset="0.723958" stop-color="#43E794"/>
</linearGradient>
</defs>
</svg>
