<svg xmlns="http://www.w3.org/2000/svg" xmlns:xlink="http://www.w3.org/1999/xlink" width="500" zoomAndPan="magnify" viewBox="0 0 375 112.499997" height="150" preserveAspectRatio="xMidYMid meet" version="1.0"><defs><g><g id="id1"/></g><clipPath id="id2"><path d="M 156.996094 0.046875 L 205.53125 0.046875 L 205.53125 55.953125 L 156.996094 55.953125 Z M 156.996094 0.046875 " clip-rule="nonzero"/></clipPath><clipPath id="id3"><path d="M 156.996094 6.136719 L 205.53125 6.136719 L 205.53125 49.746094 L 156.996094 49.746094 Z M 156.996094 6.136719 " clip-rule="nonzero"/></clipPath><clipPath id="id4"><path d="M 156.996094 0.046875 L 205.53125 0.046875 L 205.53125 55.953125 L 156.996094 55.953125 Z M 156.996094 0.046875 " clip-rule="nonzero"/></clipPath></defs><g fill="rgb(29.40979%, 10.5896%, 47.44873%)" fill-opacity="1"><g transform="translate(54.357372, 101.050876)"><g><path d="M 26.328125 -9.90625 C 26.328125 -8.414062 26.03125 -7.03125 25.4375 -5.75 C 24.84375 -4.46875 23.960938 -3.347656 22.796875 -2.390625 C 20.503906 -0.460938 17.566406 0.5 13.984375 0.5 C 11.203125 0.5 8.679688 -0.0703125 6.421875 -1.21875 C 4.160156 -2.363281 2.5 -3.898438 1.4375 -5.828125 L 5.875 -8.109375 C 6.539062 -6.921875 7.59375 -6 9.03125 -5.34375 C 10.476562 -4.695312 12.128906 -4.375 13.984375 -4.375 C 18.796875 -4.375 21.203125 -6.21875 21.203125 -9.90625 C 21.203125 -10.601562 21.078125 -11.203125 20.828125 -11.703125 C 20.578125 -12.203125 20.207031 -12.664062 19.71875 -13.09375 C 18.519531 -14.082031 16.378906 -14.976562 13.296875 -15.78125 C 11.429688 -16.25 9.851562 -16.765625 8.5625 -17.328125 C 7.269531 -17.890625 6.191406 -18.550781 5.328125 -19.3125 C 3.234375 -21.007812 2.1875 -23.25 2.1875 -26.03125 C 2.1875 -27.425781 2.457031 -28.726562 3 -29.9375 C 3.550781 -31.15625 4.328125 -32.210938 5.328125 -33.109375 C 6.359375 -34.003906 7.5625 -34.675781 8.9375 -35.125 C 10.3125 -35.570312 11.828125 -35.796875 13.484375 -35.796875 C 15.910156 -35.796875 18.144531 -35.328125 20.1875 -34.390625 C 22.226562 -33.460938 23.78125 -32.15625 24.84375 -30.46875 L 20.8125 -27.984375 C 19.84375 -29.140625 18.726562 -29.957031 17.46875 -30.4375 C 16.207031 -30.914062 14.878906 -31.15625 13.484375 -31.15625 C 12.492188 -31.15625 11.582031 -30.988281 10.75 -30.65625 C 9.925781 -30.332031 9.226562 -29.9375 8.65625 -29.46875 C 8.195312 -29.070312 7.859375 -28.582031 7.640625 -28 C 7.421875 -27.414062 7.3125 -26.796875 7.3125 -26.140625 C 7.3125 -25.703125 7.378906 -25.257812 7.515625 -24.8125 C 7.648438 -24.363281 7.960938 -23.898438 8.453125 -23.421875 C 8.953125 -22.941406 9.679688 -22.476562 10.640625 -22.03125 C 11.609375 -21.582031 12.921875 -21.140625 14.578125 -20.703125 C 16.578125 -20.210938 18.253906 -19.675781 19.609375 -19.09375 C 20.972656 -18.507812 22.117188 -17.820312 23.046875 -17.03125 C 25.234375 -15.238281 26.328125 -12.863281 26.328125 -9.90625 Z M 26.328125 -9.90625 "/></g></g></g><g fill="rgb(29.40979%, 10.5896%, 47.44873%)" fill-opacity="1"><g transform="translate(83.224588, 101.050876)"><g><path d="M 24.34375 -35.296875 L 24.34375 -30.609375 L 7.96875 -30.609375 L 7.96875 -21 L 22.546875 -21 L 22.546875 -16.171875 L 7.96875 -16.171875 L 7.96875 -4.828125 L 24.34375 -4.828125 L 24.34375 0 L 2.78125 0 L 2.78125 -35.296875 Z M 24.34375 -35.296875 "/></g></g></g><g fill="rgb(29.40979%, 10.5896%, 47.44873%)" fill-opacity="1"><g transform="translate(110.548893, 101.050876)"><g><path d="M 33.203125 -35.296875 L 33.203125 0 L 27.921875 0 L 8.21875 -27.078125 L 8.21875 0 L 2.78125 0 L 2.78125 -35.296875 L 8.265625 -35.296875 L 27.984375 -8.0625 L 27.984375 -35.296875 Z M 33.203125 -35.296875 "/></g></g></g><g fill="rgb(29.40979%, 10.5896%, 47.44873%)" fill-opacity="1"><g transform="translate(146.632905, 101.050876)"><g><path d="M 26.328125 -9.90625 C 26.328125 -8.414062 26.03125 -7.03125 25.4375 -5.75 C 24.84375 -4.46875 23.960938 -3.347656 22.796875 -2.390625 C 20.503906 -0.460938 17.566406 0.5 13.984375 0.5 C 11.203125 0.5 8.679688 -0.0703125 6.421875 -1.21875 C 4.160156 -2.363281 2.5 -3.898438 1.4375 -5.828125 L 5.875 -8.109375 C 6.539062 -6.921875 7.59375 -6 9.03125 -5.34375 C 10.476562 -4.695312 12.128906 -4.375 13.984375 -4.375 C 18.796875 -4.375 21.203125 -6.21875 21.203125 -9.90625 C 21.203125 -10.601562 21.078125 -11.203125 20.828125 -11.703125 C 20.578125 -12.203125 20.207031 -12.664062 19.71875 -13.09375 C 18.519531 -14.082031 16.378906 -14.976562 13.296875 -15.78125 C 11.429688 -16.25 9.851562 -16.765625 8.5625 -17.328125 C 7.269531 -17.890625 6.191406 -18.550781 5.328125 -19.3125 C 3.234375 -21.007812 2.1875 -23.25 2.1875 -26.03125 C 2.1875 -27.425781 2.457031 -28.726562 3 -29.9375 C 3.550781 -31.15625 4.328125 -32.210938 5.328125 -33.109375 C 6.359375 -34.003906 7.5625 -34.675781 8.9375 -35.125 C 10.3125 -35.570312 11.828125 -35.796875 13.484375 -35.796875 C 15.910156 -35.796875 18.144531 -35.328125 20.1875 -34.390625 C 22.226562 -33.460938 23.78125 -32.15625 24.84375 -30.46875 L 20.8125 -27.984375 C 19.84375 -29.140625 18.726562 -29.957031 17.46875 -30.4375 C 16.207031 -30.914062 14.878906 -31.15625 13.484375 -31.15625 C 12.492188 -31.15625 11.582031 -30.988281 10.75 -30.65625 C 9.925781 -30.332031 9.226562 -29.9375 8.65625 -29.46875 C 8.195312 -29.070312 7.859375 -28.582031 7.640625 -28 C 7.421875 -27.414062 7.3125 -26.796875 7.3125 -26.140625 C 7.3125 -25.703125 7.378906 -25.257812 7.515625 -24.8125 C 7.648438 -24.363281 7.960938 -23.898438 8.453125 -23.421875 C 8.953125 -22.941406 9.679688 -22.476562 10.640625 -22.03125 C 11.609375 -21.582031 12.921875 -21.140625 14.578125 -20.703125 C 16.578125 -20.210938 18.253906 -19.675781 19.609375 -19.09375 C 20.972656 -18.507812 22.117188 -17.820312 23.046875 -17.03125 C 25.234375 -15.238281 26.328125 -12.863281 26.328125 -9.90625 Z M 26.328125 -9.90625 "/></g></g></g><g fill="rgb(29.40979%, 10.5896%, 47.44873%)" fill-opacity="1"><g transform="translate(175.500122, 101.050876)"><g><path d="M 9.8125 -30.609375 L 0.25 -30.609375 L 0.25 -35.296875 L 24.59375 -35.296875 L 24.59375 -30.609375 L 14.984375 -30.609375 L 14.984375 0 L 9.8125 0 Z M 9.8125 -30.609375 "/></g></g></g><g fill="rgb(29.40979%, 10.5896%, 47.44873%)" fill-opacity="1"><g transform="translate(201.480614, 101.050876)"><g><path d="M 6.21875 0 L 0.546875 0 L 15.234375 -35.296875 L 20.953125 -35.296875 L 35.640625 0 L 30.015625 0 L 25.390625 -11.046875 L 10.796875 -11.046875 Z M 12.796875 -15.828125 L 23.390625 -15.828125 L 18.125 -28.578125 Z M 12.796875 -15.828125 "/></g></g></g><g fill="rgb(29.40979%, 10.5896%, 47.44873%)" fill-opacity="1"><g transform="translate(237.913027, 101.050876)"><g><path d="M 27.78125 -9.859375 C 27.78125 -8.492188 27.519531 -7.210938 27 -6.015625 C 26.488281 -4.828125 25.785156 -3.785156 24.890625 -2.890625 C 23.992188 -1.992188 22.9375 -1.285156 21.71875 -0.765625 C 20.507812 -0.253906 19.226562 0 17.875 0 L 2.78125 0 L 2.78125 -35.296875 L 16.578125 -35.296875 C 17.773438 -35.296875 18.90625 -35.0625 19.96875 -34.59375 C 21.03125 -34.132812 21.957031 -33.503906 22.75 -32.703125 C 23.539062 -31.910156 24.171875 -30.972656 24.640625 -29.890625 C 25.109375 -28.816406 25.34375 -27.664062 25.34375 -26.4375 C 25.34375 -24.90625 25.09375 -23.515625 24.59375 -22.265625 C 24.09375 -21.023438 23.28125 -19.972656 22.15625 -19.109375 C 24.039062 -18.421875 25.445312 -17.238281 26.375 -15.5625 C 27.3125 -13.882812 27.78125 -11.984375 27.78125 -9.859375 Z M 7.96875 -21 C 9.289062 -20.96875 10.519531 -20.953125 11.65625 -20.953125 L 16.625 -20.953125 C 17.882812 -20.953125 18.945312 -21.425781 19.8125 -22.375 C 20.675781 -23.320312 21.109375 -24.457031 21.109375 -25.78125 C 21.109375 -27.144531 20.675781 -28.289062 19.8125 -29.21875 C 18.945312 -30.144531 17.882812 -30.609375 16.625 -30.609375 L 7.96875 -30.609375 Z M 7.96875 -4.828125 C 8.195312 -4.796875 8.710938 -4.78125 9.515625 -4.78125 L 17.875 -4.78125 C 18.570312 -4.78125 19.226562 -4.925781 19.84375 -5.21875 C 20.457031 -5.519531 20.992188 -5.925781 21.453125 -6.4375 C 21.921875 -6.957031 22.285156 -7.566406 22.546875 -8.265625 C 22.816406 -8.960938 22.953125 -9.707031 22.953125 -10.5 C 22.953125 -11.300781 22.816406 -12.039062 22.546875 -12.71875 C 22.285156 -13.394531 21.921875 -13.988281 21.453125 -14.5 C 20.992188 -15.019531 20.457031 -15.425781 19.84375 -15.71875 C 19.226562 -16.019531 18.570312 -16.171875 17.875 -16.171875 L 7.96875 -16.171875 Z M 7.96875 -4.828125 "/></g></g></g><g fill="rgb(29.40979%, 10.5896%, 47.44873%)" fill-opacity="1"><g transform="translate(267.775667, 101.050876)"><g><path d="M 2.9375 0 L 2.9375 -35.296875 L 8.171875 -35.296875 L 8.171875 -4.828125 L 24.5 -4.828125 L 24.5 0 Z M 2.9375 0 "/></g></g></g><g fill="rgb(29.40979%, 10.5896%, 47.44873%)" fill-opacity="1"><g transform="translate(293.308213, 101.050876)"><g><path d="M 24.34375 -35.296875 L 24.34375 -30.609375 L 7.96875 -30.609375 L 7.96875 -21 L 22.546875 -21 L 22.546875 -16.171875 L 7.96875 -16.171875 L 7.96875 -4.828125 L 24.34375 -4.828125 L 24.34375 0 L 2.78125 0 L 2.78125 -35.296875 Z M 24.34375 -35.296875 "/></g></g></g><g clip-path="url(#id2)"><path fill="rgb(30.198669%, 64.309692%, 87.838745%)" d="M 181.246094 55.953125 L 181.246094 52.847656 L 156.996094 37.390625 L 156.996094 40.492188 Z M 181.246094 34.148438 L 181.246094 37.273438 L 190.84375 31.144531 L 188.410156 29.589844 Z M 181.285156 0.046875 L 181.285156 3.152344 L 205.53125 18.609375 L 205.53125 15.507812 Z M 181.285156 21.851562 L 181.285156 18.730469 L 171.664062 24.859375 L 174.117188 26.410156 L 181.285156 21.851562 " fill-opacity="1" fill-rule="nonzero"/></g><g clip-path="url(#id3)"><path fill="rgb(44.709778%, 24.708557%, 63.919067%)" d="M 181.246094 49.726562 L 181.246094 46.601562 L 156.996094 31.144531 L 156.996094 34.265625 Z M 181.246094 43.5 L 195.734375 34.246094 L 193.300781 32.695312 L 181.246094 40.394531 Z M 181.285156 6.273438 L 181.285156 9.398438 L 205.53125 24.859375 L 205.53125 21.734375 Z M 181.285156 12.5 L 166.773438 21.753906 L 169.230469 23.304688 L 181.285156 15.605469 L 181.285156 12.5 " fill-opacity="1" fill-rule="nonzero"/><path fill="rgb(93.328857%, 12.939453%, 49.798584%)" d="M 181.246094 43.5 L 181.246094 40.375 L 156.996094 24.917969 L 156.996094 28.039062 Z M 181.246094 49.726562 L 200.644531 37.371094 L 198.1875 35.800781 L 181.246094 46.621094 Z M 181.285156 12.5 L 181.285156 15.625 L 205.53125 31.085938 L 205.53125 27.960938 Z M 181.285156 6.273438 L 161.886719 18.632812 L 164.320312 20.203125 L 181.285156 9.378906 L 181.285156 6.273438 " fill-opacity="1" fill-rule="nonzero"/></g><g clip-path="url(#id4)"><path fill="rgb(94.898987%, 93.328857%, 6.669617%)" d="M 181.246094 37.273438 L 181.246094 34.148438 L 156.996094 18.6875 L 156.996094 21.8125 Z M 181.246094 55.953125 L 205.53125 40.472656 L 203.078125 38.921875 L 181.246094 52.847656 Z M 181.285156 18.730469 L 181.285156 21.851562 L 205.53125 37.3125 L 205.53125 34.1875 Z M 181.285156 0.046875 L 156.996094 15.527344 L 159.429688 17.078125 L 181.285156 3.152344 L 181.285156 0.046875 " fill-opacity="1" fill-rule="nonzero"/></g></svg>