<svg xmlns="http://www.w3.org/2000/svg" xmlns:xlink="http://www.w3.org/1999/xlink" width="600" zoomAndPan="magnify" viewBox="0 0 450 112.499997" height="150" preserveAspectRatio="xMidYMid meet" version="1.0"><defs><g><g id="id1"/><g id="id2"/></g><clipPath id="id3"><path d="M 33 39 L 94.167969 39 L 94.167969 81.671875 L 33 81.671875 Z M 33 39 " clip-rule="nonzero"/></clipPath><clipPath id="id4"><path d="M 6.808594 30.152344 L 68 30.152344 L 68 73 L 6.808594 73 Z M 6.808594 30.152344 " clip-rule="nonzero"/></clipPath></defs><g clip-path="url(#id3)"><path fill="rgb(26.669312%, 80.778503%, 43.528748%)" d="M 68.023438 47.183594 C 68.578125 46.792969 69.136719 46.503906 69.699219 46.21875 C 69.984375 46.085938 70.265625 45.972656 70.554688 45.84375 C 70.863281 45.738281 71.167969 45.613281 71.480469 45.53125 C 73.964844 44.765625 76.6875 44.757812 79.230469 45.539062 C 81.773438 46.3125 84.070312 47.863281 85.683594 49.871094 C 87.308594 51.859375 88.300781 54.375 88.550781 56.804688 C 88.683594 58.023438 90.695312 70.464844 76.667969 76.785156 C 77.710938 76.703125 78.808594 76.546875 79.945312 76.269531 C 82.121094 75.734375 84.53125 74.6875 86.75 72.992188 C 87.855469 72.144531 88.921875 71.144531 89.863281 69.96875 C 90.8125 68.804688 91.664062 67.484375 92.332031 66.027344 C 93.015625 64.582031 93.507812 63 93.808594 61.347656 C 94.085938 59.695312 94.171875 57.96875 93.984375 56.242188 C 93.625 52.789062 92.238281 49.28125 89.933594 46.445312 C 87.636719 43.601562 84.410156 41.421875 80.835938 40.335938 C 77.265625 39.230469 73.386719 39.238281 69.878906 40.324219 C 68.105469 40.851562 66.503906 41.644531 64.984375 42.660156 C 63.46875 43.671875 62.058594 44.898438 60.730469 46.261719 C 58.082031 48.996094 55.742188 52.152344 53.453125 55.1875 C 52.308594 56.710938 51.175781 58.207031 50.050781 59.652344 C 48.914062 61.09375 47.800781 62.484375 46.671875 63.792969 C 42.199219 69.066406 37.695312 72.949219 34.347656 75.324219 C 34.089844 75.507812 33.847656 75.679688 33.609375 75.851562 L 34.761719 81.644531 C 34.871094 81.574219 34.976562 81.503906 35.09375 81.425781 C 35.453125 81.1875 35.84375 80.929688 36.261719 80.65625 C 36.664062 80.367188 37.097656 80.058594 37.550781 79.734375 C 38.472656 79.09375 39.433594 78.316406 40.496094 77.492188 C 41.011719 77.0625 41.546875 76.613281 42.105469 76.148438 C 42.65625 75.679688 43.203125 75.171875 43.78125 74.660156 C 46.054688 72.582031 48.46875 70.105469 50.828125 67.328125 C 52.023438 65.941406 53.183594 64.488281 54.363281 62.996094 C 55.519531 61.503906 56.675781 59.980469 57.820312 58.457031 C 60.105469 55.421875 62.371094 52.398438 64.648438 50.054688 C 65.785156 48.886719 66.914062 47.925781 68.023438 47.183594 " fill-opacity="1" fill-rule="nonzero"/></g><path fill="rgb(26.669312%, 80.778503%, 43.528748%)" d="M 69.351562 55.042969 C 69.660156 54.789062 69.980469 54.589844 70.296875 54.394531 C 70.460938 54.304688 70.625 54.222656 70.789062 54.136719 C 70.96875 54.058594 71.140625 53.96875 71.324219 53.90625 C 72.761719 53.339844 74.375 53.210938 75.917969 53.558594 C 77.460938 53.898438 78.894531 54.714844 79.945312 55.832031 C 81 56.9375 81.703125 58.382812 81.960938 59.8125 C 82.097656 60.527344 83.863281 67.816406 75.835938 72.203125 C 76.449219 72.109375 77.09375 71.964844 77.753906 71.75 C 79.023438 71.332031 80.402344 70.601562 81.636719 69.496094 C 82.253906 68.941406 82.84375 68.300781 83.347656 67.5625 C 83.855469 66.824219 84.300781 66.003906 84.628906 65.109375 C 84.96875 64.222656 85.1875 63.257812 85.289062 62.269531 C 85.378906 61.273438 85.351562 60.25 85.160156 59.230469 C 84.789062 57.199219 83.804688 55.183594 82.308594 53.609375 C 80.816406 52.023438 78.800781 50.878906 76.632812 50.398438 C 74.464844 49.90625 72.164062 50.089844 70.136719 50.890625 C 69.105469 51.285156 68.195312 51.828125 67.339844 52.5 C 66.488281 53.167969 65.707031 53.960938 64.984375 54.832031 C 63.539062 56.574219 62.296875 58.550781 61.074219 60.457031 C 60.46875 61.410156 59.863281 62.351562 59.265625 63.257812 C 58.65625 64.164062 58.0625 65.042969 57.453125 65.867188 C 55.042969 69.199219 52.550781 71.707031 50.671875 73.269531 C 50.527344 73.390625 50.390625 73.503906 50.257812 73.617188 L 51.207031 77 C 51.269531 76.953125 51.328125 76.90625 51.394531 76.855469 C 51.597656 76.695312 51.816406 76.527344 52.050781 76.34375 C 52.277344 76.152344 52.519531 75.949219 52.773438 75.738281 C 53.289062 75.316406 53.828125 74.8125 54.417969 74.273438 C 54.703125 73.996094 55 73.703125 55.308594 73.402344 C 55.617188 73.101562 55.917969 72.777344 56.234375 72.445312 C 57.488281 71.109375 58.804688 69.527344 60.078125 67.773438 C 60.722656 66.898438 61.34375 65.984375 61.972656 65.042969 C 62.59375 64.109375 63.207031 63.152344 63.816406 62.195312 C 65.03125 60.292969 66.238281 58.394531 67.480469 56.902344 C 68.101562 56.15625 68.726562 55.535156 69.351562 55.042969 " fill-opacity="1" fill-rule="nonzero"/><g clip-path="url(#id4)"><path fill="rgb(0%, 50.19989%, 21.569824%)" d="M 32.953125 64.644531 C 32.398438 65.03125 31.839844 65.324219 31.28125 65.609375 C 30.996094 65.738281 30.710938 65.855469 30.421875 65.980469 C 30.113281 66.085938 29.808594 66.210938 29.496094 66.296875 C 27.015625 67.0625 24.292969 67.070312 21.746094 66.285156 C 19.203125 65.515625 16.910156 63.960938 15.292969 61.957031 C 13.671875 59.96875 12.675781 57.449219 12.429688 55.023438 C 12.292969 53.804688 10.28125 41.363281 24.308594 35.039062 C 23.269531 35.121094 22.167969 35.277344 21.035156 35.558594 C 18.855469 36.089844 16.445312 37.140625 14.230469 38.835938 C 13.121094 39.679688 12.058594 40.683594 11.113281 41.855469 C 10.164062 43.023438 9.316406 44.339844 8.648438 45.796875 C 7.960938 47.246094 7.472656 48.828125 7.167969 50.476562 C 6.890625 52.132812 6.808594 53.855469 6.996094 55.585938 C 7.351562 59.039062 8.738281 62.542969 11.046875 65.378906 C 13.34375 68.226562 16.570312 70.40625 20.144531 71.492188 C 23.714844 72.59375 27.589844 72.585938 31.097656 71.503906 C 32.875 70.976562 34.472656 70.183594 35.992188 69.167969 C 37.507812 68.15625 38.921875 66.925781 40.246094 65.5625 C 42.894531 62.828125 45.234375 59.671875 47.527344 56.640625 C 48.671875 55.117188 49.804688 53.621094 50.925781 52.175781 C 52.0625 50.734375 53.175781 49.339844 54.304688 48.03125 C 58.777344 42.757812 63.28125 38.875 66.632812 36.503906 C 66.886719 36.320312 67.132812 36.144531 67.371094 35.972656 L 66.21875 30.179688 C 66.109375 30.253906 66 30.324219 65.886719 30.398438 C 65.523438 30.636719 65.132812 30.894531 64.71875 31.171875 C 64.3125 31.460938 63.882812 31.769531 63.425781 32.09375 C 62.507812 32.734375 61.542969 33.507812 60.480469 34.335938 C 59.964844 34.765625 59.429688 35.214844 58.875 35.675781 C 58.320312 36.144531 57.773438 36.652344 57.195312 37.164062 C 54.921875 39.242188 52.507812 41.722656 50.148438 44.5 C 48.957031 45.882812 47.792969 47.335938 46.617188 48.832031 C 45.457031 50.320312 44.300781 51.847656 43.15625 53.371094 C 40.875 56.402344 38.605469 59.425781 36.328125 61.769531 C 35.191406 62.941406 34.066406 63.902344 32.953125 64.644531 " fill-opacity="1" fill-rule="nonzero"/></g><path fill="rgb(0%, 50.19989%, 21.569824%)" d="M 31.628906 56.78125 C 31.316406 57.039062 31 57.234375 30.679688 57.429688 C 30.515625 57.519531 30.355469 57.601562 30.1875 57.691406 C 30.011719 57.769531 29.835938 57.855469 29.652344 57.917969 C 28.21875 58.488281 26.601562 58.617188 25.058594 58.269531 C 23.515625 57.925781 22.082031 57.109375 21.03125 55.996094 C 19.976562 54.890625 19.273438 53.441406 19.015625 52.015625 C 18.878906 51.296875 17.113281 44.011719 25.144531 39.621094 C 24.53125 39.71875 23.882812 39.859375 23.226562 40.078125 C 21.957031 40.492188 20.574219 41.226562 19.339844 42.332031 C 18.722656 42.882812 18.136719 43.527344 17.628906 44.265625 C 17.121094 45 16.679688 45.820312 16.347656 46.714844 C 16.007812 47.605469 15.792969 48.566406 15.6875 49.558594 C 15.597656 50.550781 15.628906 51.578125 15.820312 52.597656 C 16.1875 54.625 17.171875 56.640625 18.671875 58.21875 C 20.164062 59.800781 22.175781 60.945312 24.347656 61.425781 C 26.515625 61.917969 28.8125 61.738281 30.84375 60.933594 C 31.871094 60.539062 32.785156 59.996094 33.640625 59.324219 C 34.492188 58.65625 35.273438 57.863281 35.996094 56.996094 C 37.441406 55.253906 38.683594 53.273438 39.902344 51.371094 C 40.511719 50.414062 41.113281 49.476562 41.714844 48.566406 C 42.320312 47.660156 42.917969 46.785156 43.527344 45.957031 C 45.9375 42.625 48.429688 40.117188 50.308594 38.558594 C 50.449219 38.4375 50.585938 38.324219 50.722656 38.210938 L 49.769531 34.828125 C 49.710938 34.875 49.648438 34.921875 49.585938 34.972656 C 49.378906 35.128906 49.160156 35.300781 48.925781 35.484375 C 48.699219 35.671875 48.457031 35.875 48.203125 36.089844 C 47.6875 36.511719 47.152344 37.011719 46.558594 37.554688 C 46.273438 37.832031 45.976562 38.121094 45.667969 38.421875 C 45.363281 38.726562 45.0625 39.050781 44.742188 39.382812 C 43.488281 40.71875 42.171875 42.296875 40.898438 44.050781 C 40.253906 44.925781 39.632812 45.84375 39.003906 46.78125 C 38.386719 47.71875 37.769531 48.675781 37.160156 49.632812 C 35.945312 51.535156 34.742188 53.429688 33.496094 54.921875 C 32.878906 55.667969 32.253906 56.289062 31.628906 56.78125 " fill-opacity="1" fill-rule="nonzero"/><g fill="rgb(0%, 50.19989%, 21.569824%)" fill-opacity="1"><g transform="translate(98.576067, 53.964118)"><g><path d="M 14.5 -30.28125 C 18.976562 -30.28125 22.910156 -29.164062 26.296875 -26.9375 L 23.4375 -21 C 21.863281 -21.90625 20.175781 -22.648438 18.375 -23.234375 C 16.582031 -23.828125 15.078125 -24.125 13.859375 -24.125 C 11.660156 -24.125 10.5625 -23.394531 10.5625 -21.9375 C 10.5625 -21 11.101562 -20.242188 12.1875 -19.671875 C 13.269531 -19.097656 14.585938 -18.601562 16.140625 -18.1875 C 17.691406 -17.78125 19.242188 -17.285156 20.796875 -16.703125 C 22.359375 -16.117188 23.679688 -15.171875 24.765625 -13.859375 C 25.847656 -12.546875 26.390625 -10.890625 26.390625 -8.890625 C 26.390625 -6.015625 25.257812 -3.769531 23 -2.15625 C 20.75 -0.550781 17.882812 0.25 14.40625 0.25 C 11.925781 0.25 9.472656 -0.175781 7.046875 -1.03125 C 4.628906 -1.882812 2.523438 -3.050781 0.734375 -4.53125 L 3.671875 -10.390625 C 5.179688 -9.078125 6.960938 -8 9.015625 -7.15625 C 11.078125 -6.320312 12.90625 -5.90625 14.5 -5.90625 C 15.726562 -5.90625 16.679688 -6.125 17.359375 -6.5625 C 18.046875 -7.007812 18.390625 -7.660156 18.390625 -8.515625 C 18.390625 -9.335938 17.992188 -10.023438 17.203125 -10.578125 C 16.421875 -11.140625 15.445312 -11.554688 14.28125 -11.828125 C 13.113281 -12.097656 11.84375 -12.457031 10.46875 -12.90625 C 9.101562 -13.363281 7.835938 -13.863281 6.671875 -14.40625 C 5.503906 -14.945312 4.523438 -15.8125 3.734375 -17 C 2.953125 -18.1875 2.5625 -19.601562 2.5625 -21.25 C 2.5625 -23.988281 3.648438 -26.175781 5.828125 -27.8125 C 8.015625 -29.457031 10.90625 -30.28125 14.5 -30.28125 Z M 14.5 -30.28125 "/></g></g></g><g fill="rgb(0%, 50.19989%, 21.569824%)" fill-opacity="1"><g transform="translate(128.294212, 53.964118)"><g><path d="M 26.421875 -23.953125 L 10.609375 -23.953125 L 10.609375 -18 L 24.890625 -18 L 24.890625 -12.015625 L 10.609375 -12.015625 L 10.609375 -5.984375 L 26.90625 -5.984375 L 26.90625 0 L 3 0 L 3 -29.9375 L 26.421875 -29.9375 Z M 26.421875 -23.953125 "/></g></g></g><g fill="rgb(0%, 50.19989%, 21.569824%)" fill-opacity="1"><g transform="translate(159.295124, 53.964118)"><g><path d="M 10.609375 -6.375 L 23.3125 -6.375 L 23.3125 0 L 3 0 L 3 -29.9375 L 10.609375 -29.9375 Z M 10.609375 -6.375 "/></g></g></g><g fill="rgb(0%, 50.19989%, 21.569824%)" fill-opacity="1"><g transform="translate(185.421503, 53.964118)"><g><path d="M 25.1875 -23.953125 L 10.609375 -23.953125 L 10.609375 -17.015625 L 24.03125 -17.015625 L 24.03125 -11.03125 L 10.609375 -11.03125 L 10.609375 0 L 3 0 L 3 -29.9375 L 25.1875 -29.9375 Z M 25.1875 -23.953125 "/></g></g></g><g fill="rgb(0%, 50.19989%, 21.569824%)" fill-opacity="1"><g transform="translate(213.429289, 53.964118)"><g/></g></g><g fill="rgb(0%, 50.19989%, 21.569824%)" fill-opacity="1"><g transform="translate(225.530686, 53.964118)"><g><path d="M 3 -29.9375 L 16.03125 -29.9375 C 19.851562 -29.9375 22.816406 -29.03125 24.921875 -27.21875 C 27.035156 -25.40625 28.09375 -22.832031 28.09375 -19.5 C 28.09375 -15.988281 27.035156 -13.265625 24.921875 -11.328125 C 22.816406 -9.390625 19.851562 -8.421875 16.03125 -8.421875 L 10.609375 -8.421875 L 10.609375 0 L 3 0 Z M 10.609375 -23.953125 L 10.609375 -14.40625 L 15.65625 -14.40625 C 17.332031 -14.40625 18.625 -14.816406 19.53125 -15.640625 C 20.445312 -16.472656 20.90625 -17.675781 20.90625 -19.25 C 20.90625 -20.78125 20.445312 -21.945312 19.53125 -22.75 C 18.625 -23.550781 17.332031 -23.953125 15.65625 -23.953125 Z M 10.609375 -23.953125 "/></g></g></g><g fill="rgb(0%, 50.19989%, 21.569824%)" fill-opacity="1"><g transform="translate(256.788158, 53.964118)"><g><path d="M 26.421875 -23.953125 L 10.609375 -23.953125 L 10.609375 -18 L 24.890625 -18 L 24.890625 -12.015625 L 10.609375 -12.015625 L 10.609375 -5.984375 L 26.90625 -5.984375 L 26.90625 0 L 3 0 L 3 -29.9375 L 26.421875 -29.9375 Z M 26.421875 -23.953125 "/></g></g></g><g fill="rgb(0%, 50.19989%, 21.569824%)" fill-opacity="1"><g transform="translate(287.789073, 53.964118)"><g><path d="M 25.875 -23.828125 L 16.84375 -23.828125 L 16.84375 0 L 9.234375 0 L 9.234375 -23.828125 L 0.296875 -23.828125 L 0.296875 -29.984375 L 25.875 -29.984375 Z M 25.875 -23.828125 "/></g></g></g><g fill="rgb(0%, 50.19989%, 21.569824%)" fill-opacity="1"><g transform="translate(316.096165, 53.964118)"><g><path d="M 10.609375 0 L 3 0 L 3 -29.9375 L 10.609375 -29.9375 Z M 10.609375 0 "/></g></g></g><g fill="rgb(0%, 50.19989%, 21.569824%)" fill-opacity="1"><g transform="translate(331.874845, 53.964118)"><g><path d="M 25.875 -23.828125 L 16.84375 -23.828125 L 16.84375 0 L 9.234375 0 L 9.234375 -23.828125 L 0.296875 -23.828125 L 0.296875 -29.984375 L 25.875 -29.984375 Z M 25.875 -23.828125 "/></g></g></g><g fill="rgb(0%, 50.19989%, 21.569824%)" fill-opacity="1"><g transform="translate(360.181925, 53.964118)"><g><path d="M 10.609375 0 L 3 0 L 3 -29.9375 L 10.609375 -29.9375 Z M 10.609375 0 "/></g></g></g><g fill="rgb(0%, 50.19989%, 21.569824%)" fill-opacity="1"><g transform="translate(375.960604, 53.964118)"><g><path d="M 17.1875 -30.1875 C 21.832031 -30.1875 25.695312 -28.738281 28.78125 -25.84375 C 31.863281 -22.957031 33.40625 -19.347656 33.40625 -15.015625 C 33.40625 -10.648438 31.859375 -7 28.765625 -4.0625 C 25.671875 -1.125 21.8125 0.34375 17.1875 0.34375 C 12.570312 0.34375 8.722656 -1.113281 5.640625 -4.03125 C 2.566406 -6.957031 1.03125 -10.617188 1.03125 -15.015625 C 1.03125 -19.367188 2.566406 -22.984375 5.640625 -25.859375 C 8.722656 -28.742188 12.570312 -30.1875 17.1875 -30.1875 Z M 17.28125 -23.828125 C 14.9375 -23.828125 12.9375 -22.976562 11.28125 -21.28125 C 9.632812 -19.582031 8.8125 -17.476562 8.8125 -14.96875 C 8.8125 -12.457031 9.644531 -10.335938 11.3125 -8.609375 C 12.976562 -6.890625 14.960938 -6.03125 17.265625 -6.03125 C 19.578125 -6.03125 21.539062 -6.890625 23.15625 -8.609375 C 24.769531 -10.335938 25.578125 -12.457031 25.578125 -14.96875 C 25.578125 -17.476562 24.769531 -19.582031 23.15625 -21.28125 C 21.539062 -22.976562 19.582031 -23.828125 17.28125 -23.828125 Z M 17.28125 -23.828125 "/></g></g></g><g fill="rgb(0%, 50.19989%, 21.569824%)" fill-opacity="1"><g transform="translate(412.562962, 53.964118)"><g><path d="M 30.625 0 L 23.90625 0 L 10.140625 -18.4375 L 10.140625 0 L 3 0 L 3 -29.9375 L 9.703125 -29.9375 L 23.515625 -11.46875 L 23.515625 -29.9375 L 30.625 -29.9375 Z M 30.625 0 "/></g></g></g><g fill="rgb(26.669312%, 80.778503%, 43.528748%)" fill-opacity="1"><g transform="translate(98.576067, 85.303312)"><g><path d="M 15.9375 -16.25 L 15.9375 -6.734375 C 15.9375 -4.609375 15.3125 -2.9375 14.0625 -1.71875 C 12.8125 -0.5 11.085938 0.109375 8.890625 0.109375 C 6.691406 0.109375 4.960938 -0.5 3.703125 -1.71875 C 2.441406 -2.9375 1.8125 -4.609375 1.8125 -6.734375 L 1.8125 -16.25 L 4.546875 -16.25 L 4.546875 -6.734375 C 4.546875 -5.367188 4.9375 -4.296875 5.71875 -3.515625 C 6.5 -2.734375 7.5625 -2.34375 8.90625 -2.34375 C 10.238281 -2.34375 11.285156 -2.726562 12.046875 -3.5 C 12.816406 -4.269531 13.203125 -5.347656 13.203125 -6.734375 L 13.203125 -16.25 Z M 15.9375 -16.25 "/></g></g></g><g fill="rgb(26.669312%, 80.778503%, 43.528748%)" fill-opacity="1"><g transform="translate(122.524691, 85.303312)"><g><path d="M 7.46875 -16.359375 C 9.570312 -16.359375 11.46875 -15.800781 13.15625 -14.6875 L 12.015625 -12.28125 C 10.359375 -13.28125 8.773438 -13.78125 7.265625 -13.78125 C 6.441406 -13.78125 5.796875 -13.632812 5.328125 -13.34375 C 4.859375 -13.050781 4.625 -12.632812 4.625 -12.09375 C 4.625 -11.550781 4.835938 -11.085938 5.265625 -10.703125 C 5.703125 -10.328125 6.242188 -10.050781 6.890625 -9.875 C 7.535156 -9.695312 8.238281 -9.472656 9 -9.203125 C 9.757812 -8.929688 10.460938 -8.644531 11.109375 -8.34375 C 11.765625 -8.039062 12.300781 -7.566406 12.71875 -6.921875 C 13.144531 -6.285156 13.359375 -5.507812 13.359375 -4.59375 C 13.359375 -3.164062 12.789062 -2.023438 11.65625 -1.171875 C 10.519531 -0.328125 9.046875 0.09375 7.234375 0.09375 C 6.003906 0.09375 4.804688 -0.132812 3.640625 -0.59375 C 2.484375 -1.0625 1.472656 -1.691406 0.609375 -2.484375 L 1.78125 -4.84375 C 2.601562 -4.09375 3.503906 -3.507812 4.484375 -3.09375 C 5.472656 -2.6875 6.40625 -2.484375 7.28125 -2.484375 C 8.238281 -2.484375 8.984375 -2.65625 9.515625 -3 C 10.054688 -3.351562 10.328125 -3.835938 10.328125 -4.453125 C 10.328125 -5.015625 10.109375 -5.484375 9.671875 -5.859375 C 9.242188 -6.234375 8.703125 -6.507812 8.046875 -6.6875 C 7.398438 -6.875 6.695312 -7.09375 5.9375 -7.34375 C 5.175781 -7.601562 4.472656 -7.875 3.828125 -8.15625 C 3.179688 -8.4375 2.640625 -8.894531 2.203125 -9.53125 C 1.765625 -10.164062 1.546875 -10.929688 1.546875 -11.828125 C 1.546875 -13.210938 2.085938 -14.3125 3.171875 -15.125 C 4.253906 -15.945312 5.6875 -16.359375 7.46875 -16.359375 Z M 7.46875 -16.359375 "/></g></g></g><g fill="rgb(26.669312%, 80.778503%, 43.528748%)" fill-opacity="1"><g transform="translate(143.178398, 85.303312)"><g><path d="M 12.625 -3.671875 L 4.4375 -3.671875 L 2.875 0 L 0.015625 0 L 7.1875 -16.25 L 10 -16.25 L 17.09375 0 L 14.171875 0 Z M 11.578125 -6.109375 L 8.515625 -13.3125 L 5.453125 -6.109375 Z M 11.578125 -6.109375 "/></g></g></g></svg>