<svg xmlns="http://www.w3.org/2000/svg" xmlns:xlink="http://www.w3.org/1999/xlink" width="100" zoomAndPan="magnify" viewBox="0 0 75 74.999997" height="100" preserveAspectRatio="xMidYMid meet" version="1.0"><defs><g><g id="id1"/><g id="id2"/></g></defs><path fill="rgb(32.939148%, 34.118652%, 75.689697%)" d="M 37.925781 1.570312 C 17.835938 1.570312 1.550781 17.859375 1.550781 37.945312 C 1.550781 58.035156 17.835938 74.320312 37.925781 74.320312 C 58.015625 74.320312 74.300781 58.035156 74.300781 37.945312 C 74.300781 17.859375 58.015625 1.570312 37.925781 1.570312 " fill-opacity="1" fill-rule="nonzero"/><g fill="rgb(100%, 100%, 100%)" fill-opacity="1"><g transform="translate(11.823532, 25.412404)"><g><path d="M 2.90625 0 L 1.8125 -3.859375 L 1.78125 -3.859375 C 1.832031 -3.203125 1.859375 -2.691406 1.859375 -2.328125 L 1.859375 0 L 0.578125 0 L 0.578125 -5.359375 L 2.5 -5.359375 L 3.625 -1.546875 L 3.65625 -1.546875 L 4.75 -5.359375 L 6.671875 -5.359375 L 6.671875 0 L 5.34375 0 L 5.34375 -2.34375 C 5.34375 -2.46875 5.34375 -2.601562 5.34375 -2.75 C 5.351562 -2.90625 5.375 -3.269531 5.40625 -3.84375 L 5.375 -3.84375 L 4.28125 0 Z M 2.90625 0 "/></g></g><g transform="translate(19.074511, 25.412404)"><g><path d="M 4.453125 -2.078125 C 4.453125 -1.398438 4.269531 -0.867188 3.90625 -0.484375 C 3.539062 -0.109375 3.03125 0.078125 2.375 0.078125 C 1.75 0.078125 1.25 -0.113281 0.875 -0.5 C 0.5 -0.894531 0.3125 -1.421875 0.3125 -2.078125 C 0.3125 -2.753906 0.492188 -3.28125 0.859375 -3.65625 C 1.222656 -4.03125 1.738281 -4.21875 2.40625 -4.21875 C 2.8125 -4.21875 3.171875 -4.128906 3.484375 -3.953125 C 3.796875 -3.785156 4.035156 -3.539062 4.203125 -3.21875 C 4.367188 -2.894531 4.453125 -2.515625 4.453125 -2.078125 Z M 1.765625 -2.078125 C 1.765625 -1.722656 1.8125 -1.453125 1.90625 -1.265625 C 2 -1.078125 2.160156 -0.984375 2.390625 -0.984375 C 2.609375 -0.984375 2.765625 -1.078125 2.859375 -1.265625 C 2.953125 -1.453125 3 -1.722656 3 -2.078125 C 3 -2.429688 2.953125 -2.695312 2.859375 -2.875 C 2.765625 -3.0625 2.609375 -3.15625 2.390625 -3.15625 C 2.160156 -3.15625 2 -3.066406 1.90625 -2.890625 C 1.8125 -2.710938 1.765625 -2.441406 1.765625 -2.078125 Z M 1.765625 -2.078125 "/></g></g><g transform="translate(23.853566, 25.412404)"><g><path d="M 2.53125 -1.0625 C 2.71875 -1.0625 2.945312 -1.109375 3.21875 -1.203125 L 3.21875 -0.15625 C 3.03125 -0.0703125 2.847656 -0.015625 2.671875 0.015625 C 2.492188 0.0546875 2.285156 0.078125 2.046875 0.078125 C 1.566406 0.078125 1.222656 -0.0390625 1.015625 -0.28125 C 0.804688 -0.519531 0.703125 -0.878906 0.703125 -1.359375 L 0.703125 -3.078125 L 0.1875 -3.078125 L 0.1875 -3.65625 L 0.828125 -4.109375 L 1.203125 -4.984375 L 2.140625 -4.984375 L 2.140625 -4.15625 L 3.15625 -4.15625 L 3.15625 -3.078125 L 2.140625 -3.078125 L 2.140625 -1.46875 C 2.140625 -1.195312 2.269531 -1.0625 2.53125 -1.0625 Z M 2.53125 -1.0625 "/></g></g><g transform="translate(27.303274, 25.412404)"><g><path d="M 1.9375 0 L 0.5 0 L 0.5 -4.15625 L 1.9375 -4.15625 Z M 0.46875 -5.1875 C 0.46875 -5.394531 0.523438 -5.550781 0.640625 -5.65625 C 0.765625 -5.757812 0.957031 -5.8125 1.21875 -5.8125 C 1.488281 -5.8125 1.679688 -5.757812 1.796875 -5.65625 C 1.921875 -5.550781 1.984375 -5.394531 1.984375 -5.1875 C 1.984375 -4.757812 1.726562 -4.546875 1.21875 -4.546875 C 0.71875 -4.546875 0.46875 -4.757812 0.46875 -5.1875 Z M 0.46875 -5.1875 "/></g></g><g transform="translate(29.74224, 25.412404)"><g><path d="M 1.578125 0 L 0 -4.15625 L 1.5 -4.15625 L 2.203125 -1.703125 C 2.203125 -1.679688 2.203125 -1.65625 2.203125 -1.625 C 2.210938 -1.601562 2.222656 -1.570312 2.234375 -1.53125 C 2.242188 -1.488281 2.25 -1.441406 2.25 -1.390625 C 2.257812 -1.347656 2.265625 -1.3125 2.265625 -1.28125 L 2.28125 -1.28125 C 2.28125 -1.40625 2.304688 -1.539062 2.359375 -1.6875 L 3.09375 -4.15625 L 4.578125 -4.15625 L 3 0 Z M 1.578125 0 "/></g></g><g transform="translate(34.32354, 25.412404)"><g><path d="M 3.203125 0 L 2.921875 -0.546875 L 2.890625 -0.546875 C 2.703125 -0.304688 2.503906 -0.140625 2.296875 -0.046875 C 2.097656 0.0351562 1.84375 0.078125 1.53125 0.078125 C 1.132812 0.078125 0.820312 -0.0351562 0.59375 -0.265625 C 0.375 -0.503906 0.265625 -0.835938 0.265625 -1.265625 C 0.265625 -1.710938 0.414062 -2.039062 0.71875 -2.25 C 1.03125 -2.46875 1.476562 -2.59375 2.0625 -2.625 L 2.765625 -2.640625 L 2.765625 -2.703125 C 2.765625 -3.046875 2.59375 -3.21875 2.25 -3.21875 C 1.945312 -3.21875 1.566406 -3.113281 1.109375 -2.90625 L 0.6875 -3.84375 C 1.164062 -4.09375 1.773438 -4.21875 2.515625 -4.21875 C 3.046875 -4.21875 3.457031 -4.085938 3.75 -3.828125 C 4.039062 -3.566406 4.1875 -3.195312 4.1875 -2.71875 L 4.1875 0 Z M 2.140625 -0.9375 C 2.316406 -0.9375 2.460938 -0.988281 2.578125 -1.09375 C 2.703125 -1.207031 2.765625 -1.351562 2.765625 -1.53125 L 2.765625 -1.859375 L 2.4375 -1.84375 C 1.96875 -1.820312 1.734375 -1.644531 1.734375 -1.3125 C 1.734375 -1.0625 1.867188 -0.9375 2.140625 -0.9375 Z M 2.140625 -0.9375 "/></g></g><g transform="translate(38.996394, 25.412404)"><g><path d="M 2.53125 -1.0625 C 2.71875 -1.0625 2.945312 -1.109375 3.21875 -1.203125 L 3.21875 -0.15625 C 3.03125 -0.0703125 2.847656 -0.015625 2.671875 0.015625 C 2.492188 0.0546875 2.285156 0.078125 2.046875 0.078125 C 1.566406 0.078125 1.222656 -0.0390625 1.015625 -0.28125 C 0.804688 -0.519531 0.703125 -0.878906 0.703125 -1.359375 L 0.703125 -3.078125 L 0.1875 -3.078125 L 0.1875 -3.65625 L 0.828125 -4.109375 L 1.203125 -4.984375 L 2.140625 -4.984375 L 2.140625 -4.15625 L 3.15625 -4.15625 L 3.15625 -3.078125 L 2.140625 -3.078125 L 2.140625 -1.46875 C 2.140625 -1.195312 2.269531 -1.0625 2.53125 -1.0625 Z M 2.53125 -1.0625 "/></g></g><g transform="translate(42.446102, 25.412404)"><g><path d="M 1.9375 0 L 0.5 0 L 0.5 -4.15625 L 1.9375 -4.15625 Z M 0.46875 -5.1875 C 0.46875 -5.394531 0.523438 -5.550781 0.640625 -5.65625 C 0.765625 -5.757812 0.957031 -5.8125 1.21875 -5.8125 C 1.488281 -5.8125 1.679688 -5.757812 1.796875 -5.65625 C 1.921875 -5.550781 1.984375 -5.394531 1.984375 -5.1875 C 1.984375 -4.757812 1.726562 -4.546875 1.21875 -4.546875 C 0.71875 -4.546875 0.46875 -4.757812 0.46875 -5.1875 Z M 0.46875 -5.1875 "/></g></g><g transform="translate(44.885068, 25.412404)"><g><path d="M 4.453125 -2.078125 C 4.453125 -1.398438 4.269531 -0.867188 3.90625 -0.484375 C 3.539062 -0.109375 3.03125 0.078125 2.375 0.078125 C 1.75 0.078125 1.25 -0.113281 0.875 -0.5 C 0.5 -0.894531 0.3125 -1.421875 0.3125 -2.078125 C 0.3125 -2.753906 0.492188 -3.28125 0.859375 -3.65625 C 1.222656 -4.03125 1.738281 -4.21875 2.40625 -4.21875 C 2.8125 -4.21875 3.171875 -4.128906 3.484375 -3.953125 C 3.796875 -3.785156 4.035156 -3.539062 4.203125 -3.21875 C 4.367188 -2.894531 4.453125 -2.515625 4.453125 -2.078125 Z M 1.765625 -2.078125 C 1.765625 -1.722656 1.8125 -1.453125 1.90625 -1.265625 C 2 -1.078125 2.160156 -0.984375 2.390625 -0.984375 C 2.609375 -0.984375 2.765625 -1.078125 2.859375 -1.265625 C 2.953125 -1.453125 3 -1.722656 3 -2.078125 C 3 -2.429688 2.953125 -2.695312 2.859375 -2.875 C 2.765625 -3.0625 2.609375 -3.15625 2.390625 -3.15625 C 2.160156 -3.15625 2 -3.066406 1.90625 -2.890625 C 1.8125 -2.710938 1.765625 -2.441406 1.765625 -2.078125 Z M 1.765625 -2.078125 "/></g></g><g transform="translate(49.664122, 25.412404)"><g><path d="M 3.109375 0 L 3.109375 -2.265625 C 3.109375 -2.535156 3.066406 -2.738281 2.984375 -2.875 C 2.910156 -3.019531 2.785156 -3.09375 2.609375 -3.09375 C 2.367188 -3.09375 2.191406 -2.992188 2.078125 -2.796875 C 1.972656 -2.609375 1.921875 -2.28125 1.921875 -1.8125 L 1.921875 0 L 0.5 0 L 0.5 -4.15625 L 1.578125 -4.15625 L 1.75 -3.640625 L 1.84375 -3.640625 C 1.957031 -3.828125 2.125 -3.96875 2.34375 -4.0625 C 2.5625 -4.164062 2.8125 -4.21875 3.09375 -4.21875 C 3.550781 -4.21875 3.90625 -4.082031 4.15625 -3.8125 C 4.414062 -3.550781 4.546875 -3.179688 4.546875 -2.703125 L 4.546875 0 Z M 3.109375 0 "/></g></g><g transform="translate(54.688538, 25.412404)"><g><path d="M 3.203125 0 L 2.921875 -0.546875 L 2.890625 -0.546875 C 2.703125 -0.304688 2.503906 -0.140625 2.296875 -0.046875 C 2.097656 0.0351562 1.84375 0.078125 1.53125 0.078125 C 1.132812 0.078125 0.820312 -0.0351562 0.59375 -0.265625 C 0.375 -0.503906 0.265625 -0.835938 0.265625 -1.265625 C 0.265625 -1.710938 0.414062 -2.039062 0.71875 -2.25 C 1.03125 -2.46875 1.476562 -2.59375 2.0625 -2.625 L 2.765625 -2.640625 L 2.765625 -2.703125 C 2.765625 -3.046875 2.59375 -3.21875 2.25 -3.21875 C 1.945312 -3.21875 1.566406 -3.113281 1.109375 -2.90625 L 0.6875 -3.84375 C 1.164062 -4.09375 1.773438 -4.21875 2.515625 -4.21875 C 3.046875 -4.21875 3.457031 -4.085938 3.75 -3.828125 C 4.039062 -3.566406 4.1875 -3.195312 4.1875 -2.71875 L 4.1875 0 Z M 2.140625 -0.9375 C 2.316406 -0.9375 2.460938 -0.988281 2.578125 -1.09375 C 2.703125 -1.207031 2.765625 -1.351562 2.765625 -1.53125 L 2.765625 -1.859375 L 2.4375 -1.84375 C 1.96875 -1.820312 1.734375 -1.644531 1.734375 -1.3125 C 1.734375 -1.0625 1.867188 -0.9375 2.140625 -0.9375 Z M 2.140625 -0.9375 "/></g></g><g transform="translate(59.361391, 25.412404)"><g><path d="M 1.921875 0 L 0.5 0 L 0.5 -5.703125 L 1.921875 -5.703125 Z M 1.921875 0 "/></g></g></g><g fill="rgb(100%, 100%, 100%)" fill-opacity="1"><g transform="translate(61.784489, 25.412404)"><g/></g></g><g fill="rgb(100%, 100%, 100%)" fill-opacity="1"><g transform="translate(21.996062, 35.829074)"><g><path d="M 4.078125 -1.625 C 4.078125 -1.289062 3.992188 -0.992188 3.828125 -0.734375 C 3.660156 -0.484375 3.414062 -0.285156 3.09375 -0.140625 C 2.78125 0.00390625 2.410156 0.078125 1.984375 0.078125 C 1.628906 0.078125 1.328125 0.0507812 1.078125 0 C 0.835938 -0.0507812 0.585938 -0.140625 0.328125 -0.265625 L 0.328125 -1.546875 C 0.609375 -1.410156 0.894531 -1.300781 1.1875 -1.21875 C 1.488281 -1.144531 1.765625 -1.109375 2.015625 -1.109375 C 2.222656 -1.109375 2.378906 -1.144531 2.484375 -1.21875 C 2.585938 -1.289062 2.640625 -1.382812 2.640625 -1.5 C 2.640625 -1.570312 2.617188 -1.632812 2.578125 -1.6875 C 2.535156 -1.75 2.46875 -1.804688 2.375 -1.859375 C 2.289062 -1.910156 2.054688 -2.023438 1.671875 -2.203125 C 1.316406 -2.359375 1.050781 -2.507812 0.875 -2.65625 C 0.707031 -2.8125 0.578125 -2.984375 0.484375 -3.171875 C 0.398438 -3.367188 0.359375 -3.597656 0.359375 -3.859375 C 0.359375 -4.359375 0.535156 -4.742188 0.890625 -5.015625 C 1.253906 -5.296875 1.753906 -5.4375 2.390625 -5.4375 C 2.941406 -5.4375 3.503906 -5.304688 4.078125 -5.046875 L 3.640625 -3.921875 C 3.140625 -4.160156 2.707031 -4.28125 2.34375 -4.28125 C 2.15625 -4.28125 2.015625 -4.242188 1.921875 -4.171875 C 1.835938 -4.109375 1.796875 -4.023438 1.796875 -3.921875 C 1.796875 -3.816406 1.847656 -3.722656 1.953125 -3.640625 C 2.066406 -3.554688 2.363281 -3.40625 2.84375 -3.1875 C 3.3125 -2.976562 3.632812 -2.753906 3.8125 -2.515625 C 3.988281 -2.285156 4.078125 -1.988281 4.078125 -1.625 Z M 4.078125 -1.625 "/></g></g><g transform="translate(26.324677, 35.829074)"><g><path d="M 2.984375 0.078125 C 2.773438 0.078125 2.585938 0.0390625 2.421875 -0.03125 C 2.253906 -0.101562 2.085938 -0.226562 1.921875 -0.40625 L 1.859375 -0.40625 C 1.898438 -0.113281 1.921875 0.0664062 1.921875 0.140625 L 1.921875 1.796875 L 0.5 1.796875 L 0.5 -4.15625 L 1.65625 -4.15625 L 1.859375 -3.625 L 1.921875 -3.625 C 2.191406 -4.019531 2.5625 -4.21875 3.03125 -4.21875 C 3.488281 -4.21875 3.847656 -4.023438 4.109375 -3.640625 C 4.367188 -3.265625 4.5 -2.742188 4.5 -2.078125 C 4.5 -1.410156 4.363281 -0.882812 4.09375 -0.5 C 3.820312 -0.113281 3.453125 0.078125 2.984375 0.078125 Z M 2.5 -3.09375 C 2.289062 -3.09375 2.144531 -3.015625 2.0625 -2.859375 C 1.976562 -2.710938 1.929688 -2.492188 1.921875 -2.203125 L 1.921875 -2.09375 C 1.921875 -1.738281 1.96875 -1.476562 2.0625 -1.3125 C 2.164062 -1.15625 2.316406 -1.078125 2.515625 -1.078125 C 2.703125 -1.078125 2.835938 -1.15625 2.921875 -1.3125 C 3.003906 -1.46875 3.046875 -1.726562 3.046875 -2.09375 C 3.046875 -2.457031 3.003906 -2.710938 2.921875 -2.859375 C 2.835938 -3.015625 2.695312 -3.09375 2.5 -3.09375 Z M 2.5 -3.09375 "/></g></g><g transform="translate(31.147677, 35.829074)"><g><path d="M 2.5 0.078125 C 1.8125 0.078125 1.273438 -0.101562 0.890625 -0.46875 C 0.503906 -0.84375 0.3125 -1.367188 0.3125 -2.046875 C 0.3125 -2.742188 0.488281 -3.28125 0.84375 -3.65625 C 1.195312 -4.03125 1.703125 -4.21875 2.359375 -4.21875 C 2.984375 -4.21875 3.46875 -4.054688 3.8125 -3.734375 C 4.15625 -3.410156 4.328125 -2.941406 4.328125 -2.328125 L 4.328125 -1.6875 L 1.765625 -1.6875 C 1.773438 -1.457031 1.859375 -1.273438 2.015625 -1.140625 C 2.171875 -1.003906 2.390625 -0.9375 2.671875 -0.9375 C 2.921875 -0.9375 3.148438 -0.960938 3.359375 -1.015625 C 3.578125 -1.066406 3.804688 -1.148438 4.046875 -1.265625 L 4.046875 -0.234375 C 3.828125 -0.117188 3.597656 -0.0390625 3.359375 0 C 3.117188 0.0507812 2.832031 0.078125 2.5 0.078125 Z M 2.40625 -3.25 C 2.238281 -3.25 2.097656 -3.195312 1.984375 -3.09375 C 1.867188 -2.988281 1.804688 -2.820312 1.796875 -2.59375 L 3.015625 -2.59375 C 3.015625 -2.789062 2.957031 -2.945312 2.84375 -3.0625 C 2.738281 -3.1875 2.59375 -3.25 2.40625 -3.25 Z M 2.40625 -3.25 "/></g></g><g transform="translate(35.783909, 35.829074)"><g><path d="M 3.203125 0 L 2.921875 -0.546875 L 2.890625 -0.546875 C 2.703125 -0.304688 2.503906 -0.140625 2.296875 -0.046875 C 2.097656 0.0351562 1.84375 0.078125 1.53125 0.078125 C 1.132812 0.078125 0.820312 -0.0351562 0.59375 -0.265625 C 0.375 -0.503906 0.265625 -0.835938 0.265625 -1.265625 C 0.265625 -1.710938 0.414062 -2.039062 0.71875 -2.25 C 1.03125 -2.46875 1.476562 -2.59375 2.0625 -2.625 L 2.765625 -2.640625 L 2.765625 -2.703125 C 2.765625 -3.046875 2.59375 -3.21875 2.25 -3.21875 C 1.945312 -3.21875 1.566406 -3.113281 1.109375 -2.90625 L 0.6875 -3.84375 C 1.164062 -4.09375 1.773438 -4.21875 2.515625 -4.21875 C 3.046875 -4.21875 3.457031 -4.085938 3.75 -3.828125 C 4.039062 -3.566406 4.1875 -3.195312 4.1875 -2.71875 L 4.1875 0 Z M 2.140625 -0.9375 C 2.316406 -0.9375 2.460938 -0.988281 2.578125 -1.09375 C 2.703125 -1.207031 2.765625 -1.351562 2.765625 -1.53125 L 2.765625 -1.859375 L 2.4375 -1.84375 C 1.96875 -1.820312 1.734375 -1.644531 1.734375 -1.3125 C 1.734375 -1.0625 1.867188 -0.9375 2.140625 -0.9375 Z M 2.140625 -0.9375 "/></g></g><g transform="translate(40.456762, 35.829074)"><g><path d="M 1.875 -2.328125 C 2.050781 -2.609375 2.203125 -2.828125 2.328125 -2.984375 L 3.25 -4.15625 L 4.859375 -4.15625 L 3.40625 -2.390625 L 4.9375 0 L 3.3125 0 L 2.40625 -1.484375 L 1.9375 -1.125 L 1.9375 0 L 0.5 0 L 0.5 -5.703125 L 1.9375 -5.703125 L 1.9375 -3.453125 C 1.9375 -3.066406 1.910156 -2.691406 1.859375 -2.328125 Z M 1.875 -2.328125 "/></g></g><g transform="translate(45.400611, 35.829074)"><g><path d="M 2.5 0.078125 C 1.8125 0.078125 1.273438 -0.101562 0.890625 -0.46875 C 0.503906 -0.84375 0.3125 -1.367188 0.3125 -2.046875 C 0.3125 -2.742188 0.488281 -3.28125 0.84375 -3.65625 C 1.195312 -4.03125 1.703125 -4.21875 2.359375 -4.21875 C 2.984375 -4.21875 3.46875 -4.054688 3.8125 -3.734375 C 4.15625 -3.410156 4.328125 -2.941406 4.328125 -2.328125 L 4.328125 -1.6875 L 1.765625 -1.6875 C 1.773438 -1.457031 1.859375 -1.273438 2.015625 -1.140625 C 2.171875 -1.003906 2.390625 -0.9375 2.671875 -0.9375 C 2.921875 -0.9375 3.148438 -0.960938 3.359375 -1.015625 C 3.578125 -1.066406 3.804688 -1.148438 4.046875 -1.265625 L 4.046875 -0.234375 C 3.828125 -0.117188 3.597656 -0.0390625 3.359375 0 C 3.117188 0.0507812 2.832031 0.078125 2.5 0.078125 Z M 2.40625 -3.25 C 2.238281 -3.25 2.097656 -3.195312 1.984375 -3.09375 C 1.867188 -2.988281 1.804688 -2.820312 1.796875 -2.59375 L 3.015625 -2.59375 C 3.015625 -2.789062 2.957031 -2.945312 2.84375 -3.0625 C 2.738281 -3.1875 2.59375 -3.25 2.40625 -3.25 Z M 2.40625 -3.25 "/></g></g><g transform="translate(50.036844, 35.829074)"><g><path d="M 3 -4.21875 C 3.125 -4.21875 3.242188 -4.207031 3.359375 -4.1875 L 3.4375 -4.171875 L 3.3125 -2.828125 C 3.1875 -2.859375 3.019531 -2.875 2.8125 -2.875 C 2.5 -2.875 2.269531 -2.800781 2.125 -2.65625 C 1.988281 -2.507812 1.921875 -2.304688 1.921875 -2.046875 L 1.921875 0 L 0.5 0 L 0.5 -4.15625 L 1.5625 -4.15625 L 1.78125 -3.484375 L 1.859375 -3.484375 C 1.972656 -3.703125 2.132812 -3.878906 2.34375 -4.015625 C 2.5625 -4.148438 2.78125 -4.21875 3 -4.21875 Z M 3 -4.21875 "/></g></g></g><g fill="rgb(100%, 100%, 100%)" fill-opacity="1"><g transform="translate(37.777318, 40.829076)"><g/></g></g><g fill="rgb(100%, 100%, 100%)" fill-opacity="1"><g transform="translate(34.782525, 49.579079)"><g><path d="M 4.171875 0 L 3.8125 -0.375 C 3.59375 -0.238281 3.410156 -0.140625 3.265625 -0.078125 C 3.128906 -0.0234375 2.972656 0.0078125 2.796875 0.03125 C 2.628906 0.0625 2.429688 0.078125 2.203125 0.078125 C 1.816406 0.078125 1.472656 0.0078125 1.171875 -0.125 C 0.878906 -0.257812 0.65625 -0.441406 0.5 -0.671875 C 0.34375 -0.910156 0.265625 -1.179688 0.265625 -1.484375 C 0.265625 -2.128906 0.597656 -2.617188 1.265625 -2.953125 C 1.109375 -3.128906 0.988281 -3.3125 0.90625 -3.5 C 0.820312 -3.6875 0.78125 -3.90625 0.78125 -4.15625 C 0.78125 -4.539062 0.929688 -4.847656 1.234375 -5.078125 C 1.535156 -5.304688 1.945312 -5.421875 2.46875 -5.421875 C 2.988281 -5.421875 3.390625 -5.304688 3.671875 -5.078125 C 3.960938 -4.847656 4.109375 -4.539062 4.109375 -4.15625 C 4.109375 -3.882812 4.03125 -3.628906 3.875 -3.390625 C 3.71875 -3.160156 3.472656 -2.945312 3.140625 -2.75 L 3.875 -2.046875 C 4.050781 -2.328125 4.175781 -2.644531 4.25 -3 L 5.734375 -3 C 5.660156 -2.664062 5.546875 -2.328125 5.390625 -1.984375 C 5.234375 -1.648438 5.054688 -1.363281 4.859375 -1.125 L 6.03125 0 Z M 1.734375 -1.59375 C 1.734375 -1.4375 1.785156 -1.304688 1.890625 -1.203125 C 2.003906 -1.109375 2.15625 -1.0625 2.34375 -1.0625 C 2.476562 -1.0625 2.597656 -1.078125 2.703125 -1.109375 C 2.804688 -1.148438 2.890625 -1.195312 2.953125 -1.25 L 2.046875 -2.171875 C 1.835938 -2.015625 1.734375 -1.820312 1.734375 -1.59375 Z M 2.8125 -4.15625 C 2.8125 -4.269531 2.773438 -4.351562 2.703125 -4.40625 C 2.640625 -4.457031 2.554688 -4.484375 2.453125 -4.484375 C 2.347656 -4.484375 2.253906 -4.453125 2.171875 -4.390625 C 2.097656 -4.328125 2.0625 -4.234375 2.0625 -4.109375 C 2.0625 -3.921875 2.171875 -3.726562 2.390625 -3.53125 C 2.523438 -3.613281 2.628906 -3.707031 2.703125 -3.8125 C 2.773438 -3.925781 2.8125 -4.039062 2.8125 -4.15625 Z M 2.8125 -4.15625 "/></g></g></g><g fill="rgb(100%, 100%, 100%)" fill-opacity="1"><g transform="translate(37.777318, 54.579081)"><g/></g></g><g fill="rgb(100%, 100%, 100%)" fill-opacity="1"><g transform="translate(23.242807, 63.329084)"><g><path d="M 3.859375 0 L 3.59375 -1 L 1.859375 -1 L 1.59375 0 L 0 0 L 1.75 -5.375 L 3.671875 -5.375 L 5.453125 0 Z M 3.296875 -2.1875 L 3.0625 -3.0625 C 3.007812 -3.257812 2.941406 -3.515625 2.859375 -3.828125 C 2.785156 -4.140625 2.738281 -4.363281 2.71875 -4.5 C 2.695312 -4.375 2.65625 -4.164062 2.59375 -3.875 C 2.53125 -3.59375 2.382812 -3.03125 2.15625 -2.1875 Z M 3.296875 -2.1875 "/></g></g><g transform="translate(28.688366, 63.329084)"><g><path d="M 2.53125 -1.0625 C 2.71875 -1.0625 2.945312 -1.109375 3.21875 -1.203125 L 3.21875 -0.15625 C 3.03125 -0.0703125 2.847656 -0.015625 2.671875 0.015625 C 2.492188 0.0546875 2.285156 0.078125 2.046875 0.078125 C 1.566406 0.078125 1.222656 -0.0390625 1.015625 -0.28125 C 0.804688 -0.519531 0.703125 -0.878906 0.703125 -1.359375 L 0.703125 -3.078125 L 0.1875 -3.078125 L 0.1875 -3.65625 L 0.828125 -4.109375 L 1.203125 -4.984375 L 2.140625 -4.984375 L 2.140625 -4.15625 L 3.15625 -4.15625 L 3.15625 -3.078125 L 2.140625 -3.078125 L 2.140625 -1.46875 C 2.140625 -1.195312 2.269531 -1.0625 2.53125 -1.0625 Z M 2.53125 -1.0625 "/></g></g><g transform="translate(32.138074, 63.329084)"><g><path d="M 3.109375 0 L 3.109375 -2.265625 C 3.109375 -2.816406 2.941406 -3.09375 2.609375 -3.09375 C 2.378906 -3.09375 2.207031 -2.992188 2.09375 -2.796875 C 1.976562 -2.609375 1.921875 -2.285156 1.921875 -1.828125 L 1.921875 0 L 0.5 0 L 0.5 -5.703125 L 1.921875 -5.703125 L 1.921875 -4.890625 C 1.921875 -4.523438 1.90625 -4.109375 1.875 -3.640625 L 1.9375 -3.640625 C 2.070312 -3.847656 2.234375 -3.992188 2.421875 -4.078125 C 2.609375 -4.171875 2.828125 -4.21875 3.078125 -4.21875 C 3.535156 -4.21875 3.894531 -4.082031 4.15625 -3.8125 C 4.414062 -3.550781 4.546875 -3.179688 4.546875 -2.703125 L 4.546875 0 Z M 3.109375 0 "/></g></g><g transform="translate(37.16249, 63.329084)"><g><path d="M 1.921875 0 L 0.5 0 L 0.5 -5.703125 L 1.921875 -5.703125 Z M 1.921875 0 "/></g></g><g transform="translate(39.586807, 63.329084)"><g><path d="M 2.5 0.078125 C 1.8125 0.078125 1.273438 -0.101562 0.890625 -0.46875 C 0.503906 -0.84375 0.3125 -1.367188 0.3125 -2.046875 C 0.3125 -2.742188 0.488281 -3.28125 0.84375 -3.65625 C 1.195312 -4.03125 1.703125 -4.21875 2.359375 -4.21875 C 2.984375 -4.21875 3.46875 -4.054688 3.8125 -3.734375 C 4.15625 -3.410156 4.328125 -2.941406 4.328125 -2.328125 L 4.328125 -1.6875 L 1.765625 -1.6875 C 1.773438 -1.457031 1.859375 -1.273438 2.015625 -1.140625 C 2.171875 -1.003906 2.390625 -0.9375 2.671875 -0.9375 C 2.921875 -0.9375 3.148438 -0.960938 3.359375 -1.015625 C 3.578125 -1.066406 3.804688 -1.148438 4.046875 -1.265625 L 4.046875 -0.234375 C 3.828125 -0.117188 3.597656 -0.0390625 3.359375 0 C 3.117188 0.0507812 2.832031 0.078125 2.5 0.078125 Z M 2.40625 -3.25 C 2.238281 -3.25 2.097656 -3.195312 1.984375 -3.09375 C 1.867188 -2.988281 1.804688 -2.820312 1.796875 -2.59375 L 3.015625 -2.59375 C 3.015625 -2.789062 2.957031 -2.945312 2.84375 -3.0625 C 2.738281 -3.1875 2.59375 -3.25 2.40625 -3.25 Z M 2.40625 -3.25 "/></g></g><g transform="translate(44.223039, 63.329084)"><g><path d="M 2.53125 -1.0625 C 2.71875 -1.0625 2.945312 -1.109375 3.21875 -1.203125 L 3.21875 -0.15625 C 3.03125 -0.0703125 2.847656 -0.015625 2.671875 0.015625 C 2.492188 0.0546875 2.285156 0.078125 2.046875 0.078125 C 1.566406 0.078125 1.222656 -0.0390625 1.015625 -0.28125 C 0.804688 -0.519531 0.703125 -0.878906 0.703125 -1.359375 L 0.703125 -3.078125 L 0.1875 -3.078125 L 0.1875 -3.65625 L 0.828125 -4.109375 L 1.203125 -4.984375 L 2.140625 -4.984375 L 2.140625 -4.15625 L 3.15625 -4.15625 L 3.15625 -3.078125 L 2.140625 -3.078125 L 2.140625 -1.46875 C 2.140625 -1.195312 2.269531 -1.0625 2.53125 -1.0625 Z M 2.53125 -1.0625 "/></g></g><g transform="translate(47.672748, 63.329084)"><g><path d="M 2.5 0.078125 C 1.8125 0.078125 1.273438 -0.101562 0.890625 -0.46875 C 0.503906 -0.84375 0.3125 -1.367188 0.3125 -2.046875 C 0.3125 -2.742188 0.488281 -3.28125 0.84375 -3.65625 C 1.195312 -4.03125 1.703125 -4.21875 2.359375 -4.21875 C 2.984375 -4.21875 3.46875 -4.054688 3.8125 -3.734375 C 4.15625 -3.410156 4.328125 -2.941406 4.328125 -2.328125 L 4.328125 -1.6875 L 1.765625 -1.6875 C 1.773438 -1.457031 1.859375 -1.273438 2.015625 -1.140625 C 2.171875 -1.003906 2.390625 -0.9375 2.671875 -0.9375 C 2.921875 -0.9375 3.148438 -0.960938 3.359375 -1.015625 C 3.578125 -1.066406 3.804688 -1.148438 4.046875 -1.265625 L 4.046875 -0.234375 C 3.828125 -0.117188 3.597656 -0.0390625 3.359375 0 C 3.117188 0.0507812 2.832031 0.078125 2.5 0.078125 Z M 2.40625 -3.25 C 2.238281 -3.25 2.097656 -3.195312 1.984375 -3.09375 C 1.867188 -2.988281 1.804688 -2.820312 1.796875 -2.59375 L 3.015625 -2.59375 C 3.015625 -2.789062 2.957031 -2.945312 2.84375 -3.0625 C 2.738281 -3.1875 2.59375 -3.25 2.40625 -3.25 Z M 2.40625 -3.25 "/></g></g></g></svg>