<svg xmlns="http://www.w3.org/2000/svg" xmlns:xlink="http://www.w3.org/1999/xlink" width="600" zoomAndPan="magnify" viewBox="0 0 450 149.999998" height="200" preserveAspectRatio="xMidYMid meet" version="1.0"><defs><g><g id="id1"/><g id="id2"/></g></defs><g fill="rgb(0.779724%, 12.939453%, 47.44873%)" fill-opacity="1"><g transform="translate(93.869595, 81.365101)"><g><path d="M 6.671875 -66.734375 L 38.234375 -66.734375 C 45.734375 -66.734375 51.691406 -65.222656 56.109375 -62.203125 C 60.523438 -59.191406 62.734375 -55.144531 62.734375 -50.0625 C 62.734375 -46.5625 61.71875 -43.488281 59.6875 -40.84375 C 57.65625 -38.207031 54.859375 -36.382812 51.296875 -35.375 C 55.492188 -34.550781 58.832031 -32.613281 61.3125 -29.5625 C 63.789062 -26.507812 65.03125 -22.820312 65.03125 -18.5 C 65.03125 -12.84375 62.722656 -8.34375 58.109375 -5 C 53.503906 -1.664062 47.257812 0 39.375 0 L 6.671875 0 Z M 23.546875 -53.78125 L 23.546875 -40.046875 L 37.28125 -40.046875 C 39.757812 -40.046875 41.726562 -40.664062 43.1875 -41.90625 C 44.65625 -43.144531 45.390625 -44.84375 45.390625 -47 C 45.390625 -49.101562 44.65625 -50.757812 43.1875 -51.96875 C 41.726562 -53.175781 39.757812 -53.78125 37.28125 -53.78125 Z M 23.546875 -27.84375 L 23.546875 -13.0625 L 37.28125 -13.0625 C 40.457031 -13.0625 42.953125 -13.726562 44.765625 -15.0625 C 46.578125 -16.394531 47.484375 -18.238281 47.484375 -20.59375 C 47.484375 -22.820312 46.578125 -24.585938 44.765625 -25.890625 C 42.953125 -27.191406 40.457031 -27.84375 37.28125 -27.84375 Z M 23.546875 -27.84375 "/></g></g></g><g fill="rgb(0.779724%, 12.939453%, 47.44873%)" fill-opacity="1"><g transform="translate(166.899364, 81.365101)"><g><path d="M 23.640625 -14.203125 L 51.96875 -14.203125 L 51.96875 0 L 6.671875 0 L 6.671875 -66.734375 L 23.640625 -66.734375 Z M 23.640625 -14.203125 "/></g></g></g><g fill="rgb(0.779724%, 12.939453%, 47.44873%)" fill-opacity="1"><g transform="translate(225.151629, 81.365101)"><g><path d="M 58.921875 -53.390625 L 23.640625 -53.390625 L 23.640625 -40.140625 L 55.484375 -40.140625 L 55.484375 -26.796875 L 23.640625 -26.796875 L 23.640625 -13.34375 L 59.96875 -13.34375 L 59.96875 0 L 6.671875 0 L 6.671875 -66.734375 L 58.921875 -66.734375 Z M 58.921875 -53.390625 "/></g></g></g><g fill="rgb(0.779724%, 12.939453%, 47.44873%)" fill-opacity="1"><g transform="translate(294.272506, 81.365101)"><g><path d="M 68.265625 0 L 53.296875 0 L 22.59375 -41.09375 L 22.59375 0 L 6.671875 0 L 6.671875 -66.734375 L 21.640625 -66.734375 L 52.4375 -25.546875 L 52.4375 -66.734375 L 68.265625 -66.734375 Z M 68.265625 0 "/></g></g></g><g fill="rgb(0.779724%, 12.939453%, 47.44873%)" fill-opacity="1"><g transform="translate(374.071313, 81.365101)"><g><path d="M 6.671875 -66.734375 L 35.375 -66.734375 C 45.863281 -66.734375 54.394531 -63.648438 60.96875 -57.484375 C 67.550781 -51.328125 70.84375 -43.289062 70.84375 -33.375 C 70.84375 -23.519531 67.503906 -15.492188 60.828125 -9.296875 C 54.148438 -3.097656 45.441406 0 34.703125 0 L 6.671875 0 Z M 23.640625 -53.203125 L 23.640625 -13.53125 L 35.75 -13.53125 C 40.96875 -13.53125 45.242188 -15.359375 48.578125 -19.015625 C 51.910156 -22.671875 53.578125 -27.421875 53.578125 -33.265625 C 53.578125 -39.117188 51.828125 -43.90625 48.328125 -47.625 C 44.835938 -51.34375 40.390625 -53.203125 34.984375 -53.203125 Z M 23.640625 -53.203125 "/></g></g></g><g fill="rgb(5.879211%, 64.709473%, 67.059326%)" fill-opacity="1"><g transform="translate(95.696065, 128.200627)"><g><path d="M 26.359375 -27.921875 L 9.875 -27.921875 L 9.875 -18.421875 L 24.8125 -18.421875 L 24.8125 -13.484375 L 9.875 -13.484375 L 9.875 0 L 4.328125 0 L 4.328125 -32.90625 L 26.40625 -32.90625 Z M 26.359375 -27.921875 "/></g></g></g><g fill="rgb(5.879211%, 64.709473%, 67.059326%)" fill-opacity="1"><g transform="translate(127.420415, 128.200627)"><g><path d="M 27.828125 -27.921875 L 9.875 -27.921875 L 9.875 -19.03125 L 25.9375 -19.03125 L 25.9375 -14.046875 L 9.875 -14.046875 L 9.875 -4.984375 L 28.390625 -4.984375 L 28.390625 0 L 4.328125 0 L 4.328125 -32.90625 L 27.828125 -32.90625 Z M 27.828125 -27.921875 "/></g></g></g><g fill="rgb(5.879211%, 64.709473%, 67.059326%)" fill-opacity="1"><g transform="translate(162.95169, 128.200627)"><g><path d="M 27.828125 -27.921875 L 9.875 -27.921875 L 9.875 -19.03125 L 25.9375 -19.03125 L 25.9375 -14.046875 L 9.875 -14.046875 L 9.875 -4.984375 L 28.390625 -4.984375 L 28.390625 0 L 4.328125 0 L 4.328125 -32.90625 L 27.828125 -32.90625 Z M 27.828125 -27.921875 "/></g></g></g><g fill="rgb(5.879211%, 64.709473%, 67.059326%)" fill-opacity="1"><g transform="translate(198.482966, 128.200627)"><g><path d="M 4.328125 -32.90625 L 17.8125 -32.90625 C 22.726562 -32.90625 26.789062 -31.351562 30 -28.25 C 33.21875 -25.144531 34.828125 -21.210938 34.828125 -16.453125 C 34.828125 -11.691406 33.210938 -7.757812 29.984375 -4.65625 C 26.753906 -1.550781 22.648438 0 17.671875 0 L 4.328125 0 Z M 9.875 -27.921875 L 9.875 -4.984375 L 17.953125 -4.984375 C 21.179688 -4.984375 23.867188 -6.054688 26.015625 -8.203125 C 28.160156 -10.347656 29.234375 -13.082031 29.234375 -16.40625 C 29.234375 -19.726562 28.128906 -22.476562 25.921875 -24.65625 C 23.710938 -26.832031 20.976562 -27.921875 17.71875 -27.921875 Z M 9.875 -27.921875 "/></g></g></g><g fill="rgb(5.879211%, 64.709473%, 67.059326%)" fill-opacity="1"><g transform="translate(239.607119, 128.200627)"><g><path d="M 4.328125 -32.90625 L 18.609375 -32.90625 C 22.023438 -32.90625 24.71875 -32.175781 26.6875 -30.71875 C 28.664062 -29.257812 29.65625 -27.242188 29.65625 -24.671875 C 29.65625 -22.828125 29.140625 -21.253906 28.109375 -19.953125 C 27.078125 -18.648438 25.664062 -17.78125 23.875 -17.34375 C 26.070312 -16.96875 27.796875 -16.039062 29.046875 -14.5625 C 30.296875 -13.09375 30.921875 -11.25 30.921875 -9.03125 C 30.921875 -6.207031 29.851562 -3.992188 27.71875 -2.390625 C 25.59375 -0.796875 22.664062 0 18.9375 0 L 4.328125 0 Z M 9.875 -27.96875 L 9.875 -19.265625 L 18.328125 -19.265625 C 20.085938 -19.265625 21.46875 -19.65625 22.46875 -20.4375 C 23.46875 -21.226562 23.96875 -22.3125 23.96875 -23.6875 C 23.96875 -25.0625 23.472656 -26.117188 22.484375 -26.859375 C 21.503906 -27.597656 20.117188 -27.96875 18.328125 -27.96875 Z M 9.875 -14.375 L 9.875 -4.9375 L 18.328125 -4.9375 C 20.523438 -4.9375 22.222656 -5.347656 23.421875 -6.171875 C 24.628906 -7.003906 25.234375 -8.191406 25.234375 -9.734375 C 25.234375 -11.171875 24.625 -12.300781 23.40625 -13.125 C 22.1875 -13.957031 20.492188 -14.375 18.328125 -14.375 Z M 9.875 -14.375 "/></g></g></g><g fill="rgb(5.879211%, 64.709473%, 67.059326%)" fill-opacity="1"><g transform="translate(277.488336, 128.200627)"><g><path d="M 25.5625 -7.421875 L 8.984375 -7.421875 L 5.828125 0 L 0.046875 0 L 14.5625 -32.90625 L 20.25 -32.90625 L 34.640625 0 L 28.71875 0 Z M 23.453125 -12.359375 L 17.25 -26.984375 L 11.046875 -12.359375 Z M 23.453125 -12.359375 "/></g></g></g><g fill="rgb(5.879211%, 64.709473%, 67.059326%)" fill-opacity="1"><g transform="translate(316.873522, 128.200627)"><g><path d="M 18.890625 -33.046875 C 21.210938 -33.046875 23.476562 -32.597656 25.6875 -31.703125 C 27.894531 -30.804688 29.796875 -29.5625 31.390625 -27.96875 L 28.15625 -23.921875 C 26.957031 -25.203125 25.546875 -26.21875 23.921875 -26.96875 C 22.296875 -27.726562 20.648438 -28.109375 18.984375 -28.109375 C 15.691406 -28.109375 12.910156 -26.988281 10.640625 -24.75 C 8.367188 -22.507812 7.234375 -19.773438 7.234375 -16.546875 C 7.234375 -13.285156 8.367188 -10.535156 10.640625 -8.296875 C 12.910156 -6.054688 15.691406 -4.9375 18.984375 -4.9375 C 22.398438 -4.9375 25.457031 -6.238281 28.15625 -8.84375 L 31.4375 -5.171875 C 29.75 -3.503906 27.773438 -2.1875 25.515625 -1.21875 C 23.265625 -0.25 20.992188 0.234375 18.703125 0.234375 C 13.878906 0.234375 9.820312 -1.367188 6.53125 -4.578125 C 3.238281 -7.796875 1.59375 -11.769531 1.59375 -16.5 C 1.59375 -21.164062 3.257812 -25.085938 6.59375 -28.265625 C 9.9375 -31.453125 14.035156 -33.046875 18.890625 -33.046875 Z M 18.890625 -33.046875 "/></g></g></g><g fill="rgb(5.879211%, 64.709473%, 67.059326%)" fill-opacity="1"><g transform="translate(354.331766, 128.200627)"><g><path d="M 26.265625 0 L 15.46875 -14.515625 L 9.875 -8.359375 L 9.875 0 L 4.328125 0 L 4.328125 -32.90625 L 9.875 -32.90625 L 9.875 -15.890625 L 25.5625 -32.90625 L 32.09375 -32.90625 L 19.359375 -18.84375 L 32.953125 0 Z M 26.265625 0 "/></g></g></g><path fill="rgb(0.779724%, 12.939453%, 47.44873%)" d="M 33.832031 46.21875 L 93.117188 80.449219 L 33.832031 114.679688 Z M 33.832031 46.21875 " fill-opacity="1" fill-rule="nonzero"/><path fill="rgb(5.879211%, 64.709473%, 67.059326%)" d="M 4.9375 46.21875 L 64.222656 80.449219 L 4.9375 114.679688 Z M 4.9375 46.21875 " fill-opacity="1" fill-rule="nonzero"/></svg>