<svg data-v-fde0c5aa="" xmlns="http://www.w3.org/2000/svg" viewBox="0 0 300 300" class="iconLeft"><!----><defs data-v-fde0c5aa=""><!----></defs><rect data-v-fde0c5aa="" fill="#E9F1EF" x="0" y="0" width="300px" height="300px" class="logo-background-square"></rect><defs data-v-fde0c5aa=""><!----></defs><g data-v-fde0c5aa="" id="4f37a815-5f23-4722-90d5-610eb0a22c96" fill="#163530" transform="matrix(1.798107139135539,0,0,1.798107139135539,69.96705524868993,134.6801272088614)"><path d="M1.01 10.95L1.01 10.95L1.01 10.50L1.01 10.50Q1.01 10.30 1.20 10.30L1.20 10.30L1.83 10.30L1.83 10.30Q2.03 10.30 2.03 10.50L2.03 10.50L2.03 10.86L2.03 10.86Q2.03 12.12 3.28 12.12L3.28 12.12L4.51 12.12L4.51 12.12Q5.75 12.12 5.75 10.84L5.75 10.84L5.75 10.36L5.75 10.36Q5.75 9.35 4.09 9.04L4.09 9.04L4.09 9.04Q3.39 8.92 2.69 8.75L2.69 8.75L2.69 8.75Q1.99 8.58 1.50 8.10L1.50 8.10L1.50 8.10Q1.01 7.62 1.01 6.78L1.01 6.78L1.01 6.09L1.01 6.09Q1.01 5.12 1.56 4.57L1.56 4.57L1.56 4.57Q2.11 4.02 3.08 4.02L3.08 4.02L4.63 4.02L4.63 4.02Q5.59 4.02 6.15 4.57L6.15 4.57L6.15 4.57Q6.71 5.12 6.71 6.09L6.71 6.09L6.71 6.44L6.71 6.44Q6.71 6.65 6.52 6.65L6.52 6.65L5.88 6.65L5.88 6.65Q5.70 6.65 5.70 6.44L5.70 6.44L5.70 6.19L5.70 6.19Q5.70 4.91 4.45 4.91L4.45 4.91L3.26 4.91L3.26 4.91Q2.02 4.91 2.02 6.24L2.02 6.24L2.02 6.80L2.02 6.80Q2.02 7.52 2.95 7.78L2.95 7.78L2.95 7.78Q3.37 7.90 3.88 7.99L3.88 7.99L3.88 7.99Q4.38 8.08 4.89 8.22L4.89 8.22L4.89 8.22Q5.40 8.37 5.82 8.59L5.82 8.59L5.82 8.59Q6.24 8.81 6.50 9.25L6.50 9.25L6.50 9.25Q6.76 9.69 6.76 10.32L6.76 10.32L6.76 10.95L6.76 10.95Q6.76 11.91 6.20 12.47L6.20 12.47L6.20 12.47Q5.64 13.02 4.69 13.02L4.69 13.02L3.08 13.02L3.08 13.02Q2.13 13.02 1.57 12.47L1.57 12.47L1.57 12.47Q1.01 11.91 1.01 10.95ZM13.47 13.02L13.47 13.02L9.07 13.02L9.07 13.02Q8.88 13.02 8.88 12.82L8.88 12.82L8.88 4.21L8.88 4.21Q8.88 4.02 9.07 4.02L9.07 4.02L13.47 4.02L13.47 4.02Q13.66 4.02 13.66 4.21L13.66 4.21L13.66 4.72L13.66 4.72Q13.66 4.91 13.47 4.91L13.47 4.91L10.04 4.91L10.04 4.91Q9.90 4.91 9.90 5.04L9.90 5.04L9.90 7.87L9.90 7.87Q9.90 7.99 10.04 7.99L10.04 7.99L13.03 7.99L13.03 7.99Q13.23 7.99 13.23 8.19L13.23 8.19L13.23 8.69L13.23 8.69Q13.23 8.89 13.03 8.89L13.03 8.89L10.04 8.89L10.04 8.89Q9.90 8.89 9.90 9.02L9.90 9.02L9.90 12.00L9.90 12.00Q9.90 12.12 10.04 12.12L10.04 12.12L13.47 12.12L13.47 12.12Q13.66 12.12 13.66 12.32L13.66 12.32L13.66 12.82L13.66 12.82Q13.66 13.02 13.47 13.02ZM20.29 13.02L20.29 13.02L15.79 13.02L15.79 13.02Q15.60 13.02 15.60 12.82L15.60 12.82L15.60 4.21L15.60 4.21Q15.60 4.02 15.79 4.02L15.79 4.02L16.42 4.02L16.42 4.02Q16.62 4.02 16.62 4.21L16.62 4.21L16.62 11.97L16.62 11.97Q16.62 12.10 16.76 12.10L16.76 12.10L20.29 12.10L20.29 12.10Q20.48 12.10 20.48 12.31L20.48 12.31L20.48 12.82L20.48 12.82Q20.48 13.02 20.29 13.02ZM22.74 13.02L22.74 13.02L22.11 13.02L22.11 13.02Q21.91 13.02 21.91 12.82L21.91 12.82L21.91 4.21L21.91 4.21Q21.91 4.02 22.11 4.02L22.11 4.02L26.46 4.02L26.46 4.02Q26.66 4.02 26.66 4.21L26.66 4.21L26.66 4.72L26.66 4.72Q26.66 4.91 26.46 4.91L26.46 4.91L23.07 4.91L23.07 4.91Q22.93 4.91 22.93 5.04L22.93 5.04L22.93 8.09L22.93 8.09Q22.93 8.22 23.07 8.22L23.07 8.22L26.07 8.22L26.07 8.22Q26.26 8.22 26.26 8.41L26.26 8.41L26.26 8.92L26.26 8.92Q26.26 9.11 26.07 9.11L26.07 9.11L23.07 9.11L23.07 9.11Q22.93 9.11 22.93 9.25L22.93 9.25L22.93 12.82L22.93 12.82Q22.93 13.02 22.74 13.02ZM32.69 13.02L32.69 13.02L32.06 13.02L32.06 13.02Q31.86 13.02 31.86 12.82L31.86 12.82L31.86 4.21L31.86 4.21Q31.86 4.02 32.06 4.02L32.06 4.02L35.34 4.02L35.34 4.02Q36.30 4.02 36.85 4.57L36.85 4.57L36.85 4.57Q37.39 5.12 37.39 6.09L37.39 6.09L37.39 7.64L37.39 7.64Q37.39 8.62 36.85 9.17L36.85 9.17L36.85 9.17Q36.30 9.72 35.34 9.72L35.34 9.72L33.03 9.72L33.03 9.72Q32.89 9.72 32.89 9.84L32.89 9.84L32.89 12.82L32.89 12.82Q32.89 13.02 32.69 13.02ZM33.03 8.81L33.03 8.81L35.20 8.81L35.20 8.81Q36.37 8.81 36.37 7.60L36.37 7.60L36.37 6.13L36.37 6.13Q36.37 4.91 35.20 4.91L35.20 4.91L33.03 4.91L33.03 4.91Q32.89 4.91 32.89 5.04L32.89 5.04L32.89 8.68L32.89 8.68Q32.89 8.81 33.03 8.81ZM43.82 13.02L43.82 13.02L39.42 13.02L39.42 13.02Q39.23 13.02 39.23 12.82L39.23 12.82L39.23 4.21L39.23 4.21Q39.23 4.02 39.42 4.02L39.42 4.02L43.82 4.02L43.82 4.02Q44.02 4.02 44.02 4.21L44.02 4.21L44.02 4.72L44.02 4.72Q44.02 4.91 43.82 4.91L43.82 4.91L40.39 4.91L40.39 4.91Q40.25 4.91 40.25 5.04L40.25 5.04L40.25 7.87L40.25 7.87Q40.25 7.99 40.39 7.99L40.39 7.99L43.39 7.99L43.39 7.99Q43.58 7.99 43.58 8.19L43.58 8.19L43.58 8.69L43.58 8.69Q43.58 8.89 43.39 8.89L43.39 8.89L40.39 8.89L40.39 8.89Q40.25 8.89 40.25 9.02L40.25 9.02L40.25 12.00L40.25 12.00Q40.25 12.12 40.39 12.12L40.39 12.12L43.82 12.12L43.82 12.12Q44.02 12.12 44.02 12.32L44.02 12.32L44.02 12.82L44.02 12.82Q44.02 13.02 43.82 13.02ZM48.15 13.02L48.15 13.02L47.52 13.02L47.52 13.02Q47.32 13.02 47.32 12.82L47.32 12.82L47.32 5.04L47.32 5.04Q47.32 4.91 47.18 4.91L47.18 4.91L45.28 4.91L45.28 4.91Q45.07 4.91 45.07 4.72L45.07 4.72L45.07 4.21L45.07 4.21Q45.07 4.02 45.28 4.02L45.28 4.02L50.39 4.02L50.39 4.02Q50.60 4.02 50.60 4.21L50.60 4.21L50.60 4.72L50.60 4.72Q50.60 4.91 50.39 4.91L50.39 4.91L48.48 4.91L48.48 4.91Q48.34 4.91 48.34 5.04L48.34 5.04L48.34 12.82L48.34 12.82Q48.34 13.02 48.15 13.02ZM53.02 4.21L53.02 4.21L53.02 12.82L53.02 12.82Q53.02 13.02 52.82 13.02L52.82 13.02L52.19 13.02L52.19 13.02Q52.00 13.02 52.00 12.82L52.00 12.82L52.00 4.21L52.00 4.21Q52.00 4.02 52.19 4.02L52.19 4.02L52.82 4.02L52.82 4.02Q53.02 4.02 53.02 4.21ZM57.50 13.02L57.50 13.02L56.87 13.02L56.87 13.02Q56.67 13.02 56.67 12.82L56.67 12.82L56.67 5.04L56.67 5.04Q56.67 4.91 56.53 4.91L56.53 4.91L54.63 4.91L54.63 4.91Q54.42 4.91 54.42 4.72L54.42 4.72L54.42 4.21L54.42 4.21Q54.42 4.02 54.63 4.02L54.63 4.02L59.74 4.02L59.74 4.02Q59.95 4.02 59.95 4.21L59.95 4.21L59.95 4.72L59.95 4.72Q59.95 4.91 59.74 4.91L59.74 4.91L57.83 4.91L57.83 4.91Q57.69 4.91 57.69 5.04L57.69 5.04L57.69 12.82L57.69 12.82Q57.69 13.02 57.50 13.02ZM62.37 4.21L62.37 4.21L62.37 12.82L62.37 12.82Q62.37 13.02 62.17 13.02L62.17 13.02L61.54 13.02L61.54 13.02Q61.35 13.02 61.35 12.82L61.35 12.82L61.35 4.21L61.35 4.21Q61.35 4.02 61.54 4.02L61.54 4.02L62.17 4.02L62.17 4.02Q62.37 4.02 62.37 4.21ZM66.70 12.12L66.70 12.12L68.12 12.12L68.12 12.12Q69.30 12.12 69.30 10.91L69.30 10.91L69.30 6.13L69.30 6.13Q69.30 4.91 68.12 4.91L68.12 4.91L66.70 4.91L66.70 4.91Q65.53 4.91 65.53 6.13L65.53 6.13L65.53 10.91L65.53 10.91Q65.53 12.12 66.70 12.12ZM68.25 13.02L68.25 13.02L66.58 13.02L66.58 13.02Q65.62 13.02 65.07 12.47L65.07 12.47L65.07 12.47Q64.51 11.93 64.51 10.95L64.51 10.95L64.51 6.09L64.51 6.09Q64.51 5.11 65.07 4.56L65.07 4.56L65.07 4.56Q65.62 4.02 66.58 4.02L66.58 4.02L68.25 4.02L68.25 4.02Q69.22 4.02 69.77 4.57L69.77 4.57L69.77 4.57Q70.32 5.12 70.32 6.09L70.32 6.09L70.32 10.95L70.32 10.95Q70.32 11.91 69.77 12.47L69.77 12.47L69.77 12.47Q69.22 13.02 68.25 13.02ZM73.21 13.02L73.21 13.02L72.59 13.02L72.59 13.02Q72.39 13.02 72.39 12.82L72.39 12.82L72.39 4.21L72.39 4.21Q72.39 4.02 72.59 4.02L72.59 4.02L73.16 4.02L73.16 4.02Q73.33 4.02 73.39 4.13L73.39 4.13L77.25 10.92L77.31 10.92L77.31 4.21L77.31 4.21Q77.31 4.02 77.50 4.02L77.50 4.02L78.12 4.02L78.12 4.02Q78.32 4.02 78.32 4.21L78.32 4.21L78.32 12.82L78.32 12.82Q78.32 13.02 78.12 13.02L78.12 13.02L77.60 13.02L77.60 13.02Q77.45 13.02 77.31 12.84L77.31 12.84L73.46 6.12L73.40 6.12L73.40 12.82L73.40 12.82Q73.40 13.02 73.21 13.02ZM88.87 4.02L88.87 4.02L89.50 4.02L89.50 4.02Q89.70 4.02 89.70 4.20L89.70 4.20L89.70 10.95L89.70 10.95Q89.70 11.93 89.15 12.47L89.15 12.47L89.15 12.47Q88.61 13.02 87.64 13.02L87.64 13.02L86.09 13.02L86.09 13.02Q85.12 13.02 84.57 12.47L84.57 12.47L84.57 12.47Q84.01 11.93 84.01 10.95L84.01 10.95L84.01 4.21L84.01 4.21Q84.01 4.02 84.21 4.02L84.21 4.02L84.84 4.02L84.84 4.02Q85.04 4.02 85.04 4.21L85.04 4.21L85.04 10.91L85.04 10.91Q85.04 12.12 86.20 12.12L86.20 12.12L87.51 12.12L87.51 12.12Q88.69 12.12 88.69 10.91L88.69 10.91L88.69 4.21L88.69 4.21Q88.69 4.02 88.87 4.02ZM91.74 10.95L91.74 10.95L91.74 10.50L91.74 10.50Q91.74 10.30 91.94 10.30L91.94 10.30L92.57 10.30L92.57 10.30Q92.76 10.30 92.76 10.50L92.76 10.50L92.76 10.86L92.76 10.86Q92.76 12.12 94.01 12.12L94.01 12.12L95.24 12.12L95.24 12.12Q96.49 12.12 96.49 10.84L96.49 10.84L96.49 10.36L96.49 10.36Q96.49 9.35 94.82 9.04L94.82 9.04L94.82 9.04Q94.12 8.92 93.42 8.75L93.42 8.75L93.42 8.75Q92.72 8.58 92.23 8.10L92.23 8.10L92.23 8.10Q91.74 7.62 91.74 6.78L91.74 6.78L91.74 6.09L91.74 6.09Q91.74 5.12 92.30 4.57L92.30 4.57L92.30 4.57Q92.85 4.02 93.81 4.02L93.81 4.02L95.37 4.02L95.37 4.02Q96.32 4.02 96.88 4.57L96.88 4.57L96.88 4.57Q97.44 5.12 97.44 6.09L97.44 6.09L97.44 6.44L97.44 6.44Q97.44 6.65 97.26 6.65L97.26 6.65L96.61 6.65L96.61 6.65Q96.43 6.65 96.43 6.44L96.43 6.44L96.43 6.19L96.43 6.19Q96.43 4.91 95.19 4.91L95.19 4.91L94.00 4.91L94.00 4.91Q92.75 4.91 92.75 6.24L92.75 6.24L92.75 6.80L92.75 6.80Q92.75 7.52 93.69 7.78L93.69 7.78L93.69 7.78Q94.11 7.90 94.61 7.99L94.61 7.99L94.61 7.99Q95.12 8.08 95.63 8.22L95.63 8.22L95.63 8.22Q96.14 8.37 96.56 8.59L96.56 8.59L96.56 8.59Q96.98 8.81 97.24 9.25L97.24 9.25L97.24 9.25Q97.50 9.69 97.50 10.32L97.50 10.32L97.50 10.95L97.50 10.95Q97.50 11.91 96.94 12.47L96.94 12.47L96.94 12.47Q96.38 13.02 95.42 13.02L95.42 13.02L93.81 13.02L93.81 13.02Q92.86 13.02 92.30 12.47L92.30 12.47L92.30 12.47Q91.74 11.91 91.74 10.95ZM99.72 13.02L99.72 13.02L99.02 13.02L99.02 13.02Q98.84 13.02 98.90 12.82L98.90 12.82L101.51 4.21L101.51 4.21Q101.57 4.02 101.78 4.02L101.78 4.02L102.79 4.02L102.79 4.02Q103.00 4.02 103.05 4.21L103.05 4.21L105.67 12.82L105.67 12.82Q105.73 13.02 105.55 13.02L105.55 13.02L104.83 13.02L104.83 13.02Q104.68 13.02 104.64 12.82L104.64 12.82L103.98 10.78L100.59 10.78L99.93 12.82L99.93 12.82Q99.88 13.02 99.72 13.02ZM102.31 5.07L102.26 5.07L100.81 9.91L103.75 9.91L102.31 5.07Z"></path></g><defs data-v-fde0c5aa=""><linearGradient data-v-fde0c5aa="" gradientTransform="rotate(25)" id="50176e0c-37cd-4ef4-9e2c-f119fff97f8a" x1="0%" y1="0%" x2="100%" y2="0%"><stop data-v-fde0c5aa="" offset="0%" stop-color="#021802" stop-opacity="1"></stop><stop data-v-fde0c5aa="" offset="100%" stop-color="#60DBCC" stop-opacity="1"></stop></linearGradient></defs><g data-v-fde0c5aa="" id="98032dcd-b09f-4644-836d-e23e24d801f4" stroke="none" fill="url(#50176e0c-37cd-4ef4-9e2c-f119fff97f8a)" transform="matrix(0.24817197611556016,0,0,0.24817197611556016,36.77798328332013,137.61460483471953)"><g clip-rule="evenodd"><path d="M12.983 10.59l17.018 88.223-5.872-59.049 29.021-1.892-.054-9.883L64.549 1 53.622 18.977z"></path><path d="M59.389 54.548l5.16-53.541-8.74 39.716-19.612 1.045 1.57 20.462-7.766 36.583 12.057-39.899z"></path><path d="M62.8 67.182l.549-10.453-15.979 3.755-.032 11.797-17.337 26.532 21.68-27.616zM65.711 62.394l14.841-4.731 1.509-12.532-15.899 2.095zM72.07 44.502l10.988-1.417 1.581-10.278-8.079-.373L64.549 1l8.43 30.967z"></path><path d="M87.413 31.294l1.256-9.506-9.544-2.694L64.549 1l14.483 22.437-.422 7z"></path></g></g><!----></svg>