<svg xmlns="http://www.w3.org/2000/svg" xmlns:xlink="http://www.w3.org/1999/xlink" width="100" zoomAndPan="magnify" viewBox="0 0 75 74.999997" height="100" preserveAspectRatio="xMidYMid meet" version="1.0"><defs><g><g id="id1"/></g></defs><path fill="rgb(58.428955%, 21.179199%, 58.428955%)" d="M 37.925781 1.570312 C 17.835938 1.570312 1.550781 17.859375 1.550781 37.945312 C 1.550781 58.035156 17.835938 74.320312 37.925781 74.320312 C 58.015625 74.320312 74.300781 58.035156 74.300781 37.945312 C 74.300781 17.859375 58.015625 1.570312 37.925781 1.570312 " fill-opacity="1" fill-rule="nonzero"/><g fill="rgb(100%, 100%, 100%)" fill-opacity="1"><g transform="translate(12.770188, 35.299772)"><g><path d="M 4.46875 -3.65625 C 4.46875 -3.050781 4.289062 -2.585938 3.9375 -2.265625 C 3.582031 -1.941406 3.082031 -1.78125 2.4375 -1.78125 L 2.03125 -1.78125 L 2.03125 0 L 0.578125 0 L 0.578125 -5.359375 L 2.4375 -5.359375 C 3.113281 -5.359375 3.617188 -5.207031 3.953125 -4.90625 C 4.296875 -4.613281 4.46875 -4.195312 4.46875 -3.65625 Z M 2.03125 -2.953125 L 2.28125 -2.953125 C 2.5 -2.953125 2.671875 -3.015625 2.796875 -3.140625 C 2.929688 -3.265625 3 -3.429688 3 -3.640625 C 3 -4.003906 2.800781 -4.1875 2.40625 -4.1875 L 2.03125 -4.1875 Z M 2.03125 -2.953125 "/></g></g><g transform="translate(17.50896, 35.299772)"><g><path d="M 4.453125 -2.078125 C 4.453125 -1.398438 4.269531 -0.867188 3.90625 -0.484375 C 3.539062 -0.109375 3.03125 0.078125 2.375 0.078125 C 1.75 0.078125 1.25 -0.113281 0.875 -0.5 C 0.5 -0.894531 0.3125 -1.421875 0.3125 -2.078125 C 0.3125 -2.753906 0.492188 -3.28125 0.859375 -3.65625 C 1.222656 -4.03125 1.738281 -4.21875 2.40625 -4.21875 C 2.8125 -4.21875 3.171875 -4.128906 3.484375 -3.953125 C 3.796875 -3.785156 4.035156 -3.539062 4.203125 -3.21875 C 4.367188 -2.894531 4.453125 -2.515625 4.453125 -2.078125 Z M 1.765625 -2.078125 C 1.765625 -1.722656 1.8125 -1.453125 1.90625 -1.265625 C 2 -1.078125 2.160156 -0.984375 2.390625 -0.984375 C 2.609375 -0.984375 2.765625 -1.078125 2.859375 -1.265625 C 2.953125 -1.453125 3 -1.722656 3 -2.078125 C 3 -2.429688 2.953125 -2.695312 2.859375 -2.875 C 2.765625 -3.0625 2.609375 -3.15625 2.390625 -3.15625 C 2.160156 -3.15625 2 -3.066406 1.90625 -2.890625 C 1.8125 -2.710938 1.765625 -2.441406 1.765625 -2.078125 Z M 1.765625 -2.078125 "/></g></g><g transform="translate(22.288014, 35.299772)"><g><path d="M 3.703125 -1.28125 C 3.703125 -0.832031 3.550781 -0.492188 3.25 -0.265625 C 2.945312 -0.0351562 2.507812 0.078125 1.9375 0.078125 C 1.632812 0.078125 1.367188 0.0546875 1.140625 0.015625 C 0.910156 -0.015625 0.675781 -0.0703125 0.4375 -0.15625 L 0.4375 -1.296875 C 0.664062 -1.203125 0.910156 -1.125 1.171875 -1.0625 C 1.441406 -1 1.675781 -0.96875 1.875 -0.96875 C 2.1875 -0.96875 2.34375 -1.035156 2.34375 -1.171875 C 2.34375 -1.253906 2.300781 -1.320312 2.21875 -1.375 C 2.132812 -1.4375 1.882812 -1.546875 1.46875 -1.703125 C 1.082031 -1.859375 0.8125 -2.035156 0.65625 -2.234375 C 0.507812 -2.441406 0.4375 -2.695312 0.4375 -3 C 0.4375 -3.382812 0.582031 -3.679688 0.875 -3.890625 C 1.175781 -4.109375 1.597656 -4.21875 2.140625 -4.21875 C 2.421875 -4.21875 2.679688 -4.1875 2.921875 -4.125 C 3.160156 -4.070312 3.410156 -3.988281 3.671875 -3.875 L 3.28125 -2.953125 C 3.082031 -3.035156 2.878906 -3.101562 2.671875 -3.15625 C 2.460938 -3.21875 2.289062 -3.25 2.15625 -3.25 C 1.914062 -3.25 1.796875 -3.191406 1.796875 -3.078125 C 1.796875 -3.015625 1.835938 -2.957031 1.921875 -2.90625 C 2.003906 -2.851562 2.242188 -2.75 2.640625 -2.59375 C 2.921875 -2.476562 3.132812 -2.363281 3.28125 -2.25 C 3.425781 -2.132812 3.53125 -2 3.59375 -1.84375 C 3.664062 -1.6875 3.703125 -1.5 3.703125 -1.28125 Z M 3.703125 -1.28125 "/></g></g><g transform="translate(26.287039, 35.299772)"><g><path d="M 2.53125 -1.0625 C 2.71875 -1.0625 2.945312 -1.109375 3.21875 -1.203125 L 3.21875 -0.15625 C 3.03125 -0.0703125 2.847656 -0.015625 2.671875 0.015625 C 2.492188 0.0546875 2.285156 0.078125 2.046875 0.078125 C 1.566406 0.078125 1.222656 -0.0390625 1.015625 -0.28125 C 0.804688 -0.519531 0.703125 -0.878906 0.703125 -1.359375 L 0.703125 -3.078125 L 0.1875 -3.078125 L 0.1875 -3.65625 L 0.828125 -4.109375 L 1.203125 -4.984375 L 2.140625 -4.984375 L 2.140625 -4.15625 L 3.15625 -4.15625 L 3.15625 -3.078125 L 2.140625 -3.078125 L 2.140625 -1.46875 C 2.140625 -1.195312 2.269531 -1.0625 2.53125 -1.0625 Z M 2.53125 -1.0625 "/></g></g><g transform="translate(29.736747, 35.299772)"><g><path d="M 1.78125 0.078125 C 1.488281 0.078125 1.226562 -0.00390625 1 -0.171875 C 0.78125 -0.347656 0.609375 -0.597656 0.484375 -0.921875 C 0.367188 -1.242188 0.3125 -1.625 0.3125 -2.0625 C 0.3125 -2.738281 0.445312 -3.265625 0.71875 -3.640625 C 0.988281 -4.023438 1.363281 -4.21875 1.84375 -4.21875 C 2.070312 -4.21875 2.269531 -4.171875 2.4375 -4.078125 C 2.613281 -3.984375 2.773438 -3.828125 2.921875 -3.609375 L 2.953125 -3.609375 C 2.910156 -3.941406 2.890625 -4.269531 2.890625 -4.59375 L 2.890625 -5.703125 L 4.328125 -5.703125 L 4.328125 0 L 3.25 0 L 2.9375 -0.53125 L 2.890625 -0.53125 C 2.640625 -0.125 2.269531 0.078125 1.78125 0.078125 Z M 2.375 -1.0625 C 2.601562 -1.0625 2.765625 -1.128906 2.859375 -1.265625 C 2.953125 -1.410156 3 -1.632812 3 -1.9375 L 3 -2.046875 C 3 -2.421875 2.945312 -2.679688 2.84375 -2.828125 C 2.738281 -2.984375 2.578125 -3.0625 2.359375 -3.0625 C 2.171875 -3.0625 2.023438 -2.972656 1.921875 -2.796875 C 1.816406 -2.617188 1.765625 -2.367188 1.765625 -2.046875 C 1.765625 -1.722656 1.816406 -1.476562 1.921875 -1.3125 C 2.023438 -1.144531 2.175781 -1.0625 2.375 -1.0625 Z M 2.375 -1.0625 "/></g></g><g transform="translate(34.559747, 35.299772)"><g><path d="M 4.453125 -2.078125 C 4.453125 -1.398438 4.269531 -0.867188 3.90625 -0.484375 C 3.539062 -0.109375 3.03125 0.078125 2.375 0.078125 C 1.75 0.078125 1.25 -0.113281 0.875 -0.5 C 0.5 -0.894531 0.3125 -1.421875 0.3125 -2.078125 C 0.3125 -2.753906 0.492188 -3.28125 0.859375 -3.65625 C 1.222656 -4.03125 1.738281 -4.21875 2.40625 -4.21875 C 2.8125 -4.21875 3.171875 -4.128906 3.484375 -3.953125 C 3.796875 -3.785156 4.035156 -3.539062 4.203125 -3.21875 C 4.367188 -2.894531 4.453125 -2.515625 4.453125 -2.078125 Z M 1.765625 -2.078125 C 1.765625 -1.722656 1.8125 -1.453125 1.90625 -1.265625 C 2 -1.078125 2.160156 -0.984375 2.390625 -0.984375 C 2.609375 -0.984375 2.765625 -1.078125 2.859375 -1.265625 C 2.953125 -1.453125 3 -1.722656 3 -2.078125 C 3 -2.429688 2.953125 -2.695312 2.859375 -2.875 C 2.765625 -3.0625 2.609375 -3.15625 2.390625 -3.15625 C 2.160156 -3.15625 2 -3.066406 1.90625 -2.890625 C 1.8125 -2.710938 1.765625 -2.441406 1.765625 -2.078125 Z M 1.765625 -2.078125 "/></g></g><g transform="translate(39.338802, 35.299772)"><g><path d="M 2.390625 0.078125 C 1.703125 0.078125 1.179688 -0.101562 0.828125 -0.46875 C 0.484375 -0.84375 0.3125 -1.367188 0.3125 -2.046875 C 0.3125 -2.742188 0.5 -3.28125 0.875 -3.65625 C 1.257812 -4.03125 1.800781 -4.21875 2.5 -4.21875 C 2.976562 -4.21875 3.429688 -4.113281 3.859375 -3.90625 L 3.4375 -2.84375 C 3.257812 -2.925781 3.097656 -2.988281 2.953125 -3.03125 C 2.804688 -3.070312 2.65625 -3.09375 2.5 -3.09375 C 2.269531 -3.09375 2.085938 -3.003906 1.953125 -2.828125 C 1.828125 -2.648438 1.765625 -2.394531 1.765625 -2.0625 C 1.765625 -1.394531 2.007812 -1.0625 2.5 -1.0625 C 2.925781 -1.0625 3.332031 -1.1875 3.71875 -1.4375 L 3.71875 -0.296875 C 3.34375 -0.046875 2.898438 0.078125 2.390625 0.078125 Z M 2.390625 0.078125 "/></g></g><g transform="translate(43.381772, 35.299772)"><g><path d="M 2.53125 -1.0625 C 2.71875 -1.0625 2.945312 -1.109375 3.21875 -1.203125 L 3.21875 -0.15625 C 3.03125 -0.0703125 2.847656 -0.015625 2.671875 0.015625 C 2.492188 0.0546875 2.285156 0.078125 2.046875 0.078125 C 1.566406 0.078125 1.222656 -0.0390625 1.015625 -0.28125 C 0.804688 -0.519531 0.703125 -0.878906 0.703125 -1.359375 L 0.703125 -3.078125 L 0.1875 -3.078125 L 0.1875 -3.65625 L 0.828125 -4.109375 L 1.203125 -4.984375 L 2.140625 -4.984375 L 2.140625 -4.15625 L 3.15625 -4.15625 L 3.15625 -3.078125 L 2.140625 -3.078125 L 2.140625 -1.46875 C 2.140625 -1.195312 2.269531 -1.0625 2.53125 -1.0625 Z M 2.53125 -1.0625 "/></g></g><g transform="translate(46.83148, 35.299772)"><g><path d="M 4.453125 -2.078125 C 4.453125 -1.398438 4.269531 -0.867188 3.90625 -0.484375 C 3.539062 -0.109375 3.03125 0.078125 2.375 0.078125 C 1.75 0.078125 1.25 -0.113281 0.875 -0.5 C 0.5 -0.894531 0.3125 -1.421875 0.3125 -2.078125 C 0.3125 -2.753906 0.492188 -3.28125 0.859375 -3.65625 C 1.222656 -4.03125 1.738281 -4.21875 2.40625 -4.21875 C 2.8125 -4.21875 3.171875 -4.128906 3.484375 -3.953125 C 3.796875 -3.785156 4.035156 -3.539062 4.203125 -3.21875 C 4.367188 -2.894531 4.453125 -2.515625 4.453125 -2.078125 Z M 1.765625 -2.078125 C 1.765625 -1.722656 1.8125 -1.453125 1.90625 -1.265625 C 2 -1.078125 2.160156 -0.984375 2.390625 -0.984375 C 2.609375 -0.984375 2.765625 -1.078125 2.859375 -1.265625 C 2.953125 -1.453125 3 -1.722656 3 -2.078125 C 3 -2.429688 2.953125 -2.695312 2.859375 -2.875 C 2.765625 -3.0625 2.609375 -3.15625 2.390625 -3.15625 C 2.160156 -3.15625 2 -3.066406 1.90625 -2.890625 C 1.8125 -2.710938 1.765625 -2.441406 1.765625 -2.078125 Z M 1.765625 -2.078125 "/></g></g><g transform="translate(51.610535, 35.299772)"><g><path d="M 3 -4.21875 C 3.125 -4.21875 3.242188 -4.207031 3.359375 -4.1875 L 3.4375 -4.171875 L 3.3125 -2.828125 C 3.1875 -2.859375 3.019531 -2.875 2.8125 -2.875 C 2.5 -2.875 2.269531 -2.800781 2.125 -2.65625 C 1.988281 -2.507812 1.921875 -2.304688 1.921875 -2.046875 L 1.921875 0 L 0.5 0 L 0.5 -4.15625 L 1.5625 -4.15625 L 1.78125 -3.484375 L 1.859375 -3.484375 C 1.972656 -3.703125 2.132812 -3.878906 2.34375 -4.015625 C 2.5625 -4.148438 2.78125 -4.21875 3 -4.21875 Z M 3 -4.21875 "/></g></g><g transform="translate(55.129823, 35.299772)"><g><path d="M 3.203125 0 L 2.921875 -0.546875 L 2.890625 -0.546875 C 2.703125 -0.304688 2.503906 -0.140625 2.296875 -0.046875 C 2.097656 0.0351562 1.84375 0.078125 1.53125 0.078125 C 1.132812 0.078125 0.820312 -0.0351562 0.59375 -0.265625 C 0.375 -0.503906 0.265625 -0.835938 0.265625 -1.265625 C 0.265625 -1.710938 0.414062 -2.039062 0.71875 -2.25 C 1.03125 -2.46875 1.476562 -2.59375 2.0625 -2.625 L 2.765625 -2.640625 L 2.765625 -2.703125 C 2.765625 -3.046875 2.59375 -3.21875 2.25 -3.21875 C 1.945312 -3.21875 1.566406 -3.113281 1.109375 -2.90625 L 0.6875 -3.84375 C 1.164062 -4.09375 1.773438 -4.21875 2.515625 -4.21875 C 3.046875 -4.21875 3.457031 -4.085938 3.75 -3.828125 C 4.039062 -3.566406 4.1875 -3.195312 4.1875 -2.71875 L 4.1875 0 Z M 2.140625 -0.9375 C 2.316406 -0.9375 2.460938 -0.988281 2.578125 -1.09375 C 2.703125 -1.207031 2.765625 -1.351562 2.765625 -1.53125 L 2.765625 -1.859375 L 2.4375 -1.84375 C 1.96875 -1.820312 1.734375 -1.644531 1.734375 -1.3125 C 1.734375 -1.0625 1.867188 -0.9375 2.140625 -0.9375 Z M 2.140625 -0.9375 "/></g></g><g transform="translate(59.802676, 35.299772)"><g><path d="M 1.921875 0 L 0.5 0 L 0.5 -5.703125 L 1.921875 -5.703125 Z M 1.921875 0 "/></g></g></g><g fill="rgb(100%, 100%, 100%)" fill-opacity="1"><g transform="translate(23.102223, 45.716443)"><g><path d="M 4.078125 -1.625 C 4.078125 -1.289062 3.992188 -0.992188 3.828125 -0.734375 C 3.660156 -0.484375 3.414062 -0.285156 3.09375 -0.140625 C 2.78125 0.00390625 2.410156 0.078125 1.984375 0.078125 C 1.628906 0.078125 1.328125 0.0507812 1.078125 0 C 0.835938 -0.0507812 0.585938 -0.140625 0.328125 -0.265625 L 0.328125 -1.546875 C 0.609375 -1.410156 0.894531 -1.300781 1.1875 -1.21875 C 1.488281 -1.144531 1.765625 -1.109375 2.015625 -1.109375 C 2.222656 -1.109375 2.378906 -1.144531 2.484375 -1.21875 C 2.585938 -1.289062 2.640625 -1.382812 2.640625 -1.5 C 2.640625 -1.570312 2.617188 -1.632812 2.578125 -1.6875 C 2.535156 -1.75 2.46875 -1.804688 2.375 -1.859375 C 2.289062 -1.910156 2.054688 -2.023438 1.671875 -2.203125 C 1.316406 -2.359375 1.050781 -2.507812 0.875 -2.65625 C 0.707031 -2.8125 0.578125 -2.984375 0.484375 -3.171875 C 0.398438 -3.367188 0.359375 -3.597656 0.359375 -3.859375 C 0.359375 -4.359375 0.535156 -4.742188 0.890625 -5.015625 C 1.253906 -5.296875 1.753906 -5.4375 2.390625 -5.4375 C 2.941406 -5.4375 3.503906 -5.304688 4.078125 -5.046875 L 3.640625 -3.921875 C 3.140625 -4.160156 2.707031 -4.28125 2.34375 -4.28125 C 2.15625 -4.28125 2.015625 -4.242188 1.921875 -4.171875 C 1.835938 -4.109375 1.796875 -4.023438 1.796875 -3.921875 C 1.796875 -3.816406 1.847656 -3.722656 1.953125 -3.640625 C 2.066406 -3.554688 2.363281 -3.40625 2.84375 -3.1875 C 3.3125 -2.976562 3.632812 -2.753906 3.8125 -2.515625 C 3.988281 -2.285156 4.078125 -1.988281 4.078125 -1.625 Z M 4.078125 -1.625 "/></g></g><g transform="translate(27.430838, 45.716443)"><g><path d="M 2.390625 0.078125 C 1.703125 0.078125 1.179688 -0.101562 0.828125 -0.46875 C 0.484375 -0.84375 0.3125 -1.367188 0.3125 -2.046875 C 0.3125 -2.742188 0.5 -3.28125 0.875 -3.65625 C 1.257812 -4.03125 1.800781 -4.21875 2.5 -4.21875 C 2.976562 -4.21875 3.429688 -4.113281 3.859375 -3.90625 L 3.4375 -2.84375 C 3.257812 -2.925781 3.097656 -2.988281 2.953125 -3.03125 C 2.804688 -3.070312 2.65625 -3.09375 2.5 -3.09375 C 2.269531 -3.09375 2.085938 -3.003906 1.953125 -2.828125 C 1.828125 -2.648438 1.765625 -2.394531 1.765625 -2.0625 C 1.765625 -1.394531 2.007812 -1.0625 2.5 -1.0625 C 2.925781 -1.0625 3.332031 -1.1875 3.71875 -1.4375 L 3.71875 -0.296875 C 3.34375 -0.046875 2.898438 0.078125 2.390625 0.078125 Z M 2.390625 0.078125 "/></g></g><g transform="translate(31.473808, 45.716443)"><g><path d="M 3.109375 0 L 3.109375 -2.265625 C 3.109375 -2.816406 2.941406 -3.09375 2.609375 -3.09375 C 2.378906 -3.09375 2.207031 -2.992188 2.09375 -2.796875 C 1.976562 -2.609375 1.921875 -2.285156 1.921875 -1.828125 L 1.921875 0 L 0.5 0 L 0.5 -5.703125 L 1.921875 -5.703125 L 1.921875 -4.890625 C 1.921875 -4.523438 1.90625 -4.109375 1.875 -3.640625 L 1.9375 -3.640625 C 2.070312 -3.847656 2.234375 -3.992188 2.421875 -4.078125 C 2.609375 -4.171875 2.828125 -4.21875 3.078125 -4.21875 C 3.535156 -4.21875 3.894531 -4.082031 4.15625 -3.8125 C 4.414062 -3.550781 4.546875 -3.179688 4.546875 -2.703125 L 4.546875 0 Z M 3.109375 0 "/></g></g><g transform="translate(36.498224, 45.716443)"><g><path d="M 4.453125 -2.078125 C 4.453125 -1.398438 4.269531 -0.867188 3.90625 -0.484375 C 3.539062 -0.109375 3.03125 0.078125 2.375 0.078125 C 1.75 0.078125 1.25 -0.113281 0.875 -0.5 C 0.5 -0.894531 0.3125 -1.421875 0.3125 -2.078125 C 0.3125 -2.753906 0.492188 -3.28125 0.859375 -3.65625 C 1.222656 -4.03125 1.738281 -4.21875 2.40625 -4.21875 C 2.8125 -4.21875 3.171875 -4.128906 3.484375 -3.953125 C 3.796875 -3.785156 4.035156 -3.539062 4.203125 -3.21875 C 4.367188 -2.894531 4.453125 -2.515625 4.453125 -2.078125 Z M 1.765625 -2.078125 C 1.765625 -1.722656 1.8125 -1.453125 1.90625 -1.265625 C 2 -1.078125 2.160156 -0.984375 2.390625 -0.984375 C 2.609375 -0.984375 2.765625 -1.078125 2.859375 -1.265625 C 2.953125 -1.453125 3 -1.722656 3 -2.078125 C 3 -2.429688 2.953125 -2.695312 2.859375 -2.875 C 2.765625 -3.0625 2.609375 -3.15625 2.390625 -3.15625 C 2.160156 -3.15625 2 -3.066406 1.90625 -2.890625 C 1.8125 -2.710938 1.765625 -2.441406 1.765625 -2.078125 Z M 1.765625 -2.078125 "/></g></g><g transform="translate(41.277279, 45.716443)"><g><path d="M 1.921875 0 L 0.5 0 L 0.5 -5.703125 L 1.921875 -5.703125 Z M 1.921875 0 "/></g></g><g transform="translate(43.701596, 45.716443)"><g><path d="M 3.203125 0 L 2.921875 -0.546875 L 2.890625 -0.546875 C 2.703125 -0.304688 2.503906 -0.140625 2.296875 -0.046875 C 2.097656 0.0351562 1.84375 0.078125 1.53125 0.078125 C 1.132812 0.078125 0.820312 -0.0351562 0.59375 -0.265625 C 0.375 -0.503906 0.265625 -0.835938 0.265625 -1.265625 C 0.265625 -1.710938 0.414062 -2.039062 0.71875 -2.25 C 1.03125 -2.46875 1.476562 -2.59375 2.0625 -2.625 L 2.765625 -2.640625 L 2.765625 -2.703125 C 2.765625 -3.046875 2.59375 -3.21875 2.25 -3.21875 C 1.945312 -3.21875 1.566406 -3.113281 1.109375 -2.90625 L 0.6875 -3.84375 C 1.164062 -4.09375 1.773438 -4.21875 2.515625 -4.21875 C 3.046875 -4.21875 3.457031 -4.085938 3.75 -3.828125 C 4.039062 -3.566406 4.1875 -3.195312 4.1875 -2.71875 L 4.1875 0 Z M 2.140625 -0.9375 C 2.316406 -0.9375 2.460938 -0.988281 2.578125 -1.09375 C 2.703125 -1.207031 2.765625 -1.351562 2.765625 -1.53125 L 2.765625 -1.859375 L 2.4375 -1.84375 C 1.96875 -1.820312 1.734375 -1.644531 1.734375 -1.3125 C 1.734375 -1.0625 1.867188 -0.9375 2.140625 -0.9375 Z M 2.140625 -0.9375 "/></g></g><g transform="translate(48.374449, 45.716443)"><g><path d="M 3 -4.21875 C 3.125 -4.21875 3.242188 -4.207031 3.359375 -4.1875 L 3.4375 -4.171875 L 3.3125 -2.828125 C 3.1875 -2.859375 3.019531 -2.875 2.8125 -2.875 C 2.5 -2.875 2.269531 -2.800781 2.125 -2.65625 C 1.988281 -2.507812 1.921875 -2.304688 1.921875 -2.046875 L 1.921875 0 L 0.5 0 L 0.5 -4.15625 L 1.5625 -4.15625 L 1.78125 -3.484375 L 1.859375 -3.484375 C 1.972656 -3.703125 2.132812 -3.878906 2.34375 -4.015625 C 2.5625 -4.148438 2.78125 -4.21875 3 -4.21875 Z M 3 -4.21875 "/></g></g></g></svg>